SplineFontDB: 3.2
FontName: Vazir-Thin
FullName: Vazir Thin
FamilyName: Vazir Thin
Weight: Thin
Copyright: Copyright (c) 2003 by Bitstream, Inc. All Rights Reserved.\nDejaVu changes are in public domain\nChanges by Saber Rastikerdar are in public domain.
Version: 26.0.2
ItalicAngle: 0
UnderlinePosition: -500
UnderlineWidth: 100
Ascent: 1638
Descent: 410
InvalidEm: 0
LayerCount: 2
Layer: 0 0 "Back" 1
Layer: 1 0 "Fore" 0
PreferredKerning: 4
XUID: [1021 502 1027637223 8226918]
UniqueID: 4203523
UseUniqueID: 1
FSType: 0
OS2Version: 1
OS2_WeightWidthSlopeOnly: 0
OS2_UseTypoMetrics: 1
CreationTime: 1431850356
ModificationTime: 1589610827
PfmFamily: 33
TTFWeight: 100
TTFWidth: 5
LineGap: 0
VLineGap: 0
Panose: 2 11 6 3 3 8 4 2 2 4
OS2TypoAscent: 2100
OS2TypoAOffset: 0
OS2TypoDescent: -1100
OS2TypoDOffset: 0
OS2TypoLinegap: 0
OS2WinAscent: 2100
OS2WinAOffset: 0
OS2WinDescent: 1100
OS2WinDOffset: 0
HheadAscent: 2100
HheadAOffset: 0
HheadDescent: -1100
HheadDOffset: 0
OS2SubXSize: 1331
OS2SubYSize: 1433
OS2SubXOff: 0
OS2SubYOff: 286
OS2SupXSize: 1331
OS2SupYSize: 1433
OS2SupXOff: 0
OS2SupYOff: 983
OS2StrikeYSize: 102
OS2StrikeYPos: 530
OS2CapHeight: 1638
OS2XHeight: 1082
OS2Vendor: '    '
OS2CodePages: 00000041.20080000
OS2UnicodeRanges: 80002003.80000000.00000008.00000000
Lookup: 1 9 0 "Single Substitution 0" { "Single Substitution 0 subtable"  } []
Lookup: 1 9 0 "'fina' Terminal Forms in Arabic lookup 1" { "'fina' Terminal Forms in Arabic lookup 1 subtable"  } ['fina' ('DFLT' <'dflt' > 'arab' <'FAR ' 'KUR ' 'URD ' 'dflt' > ) ]
Lookup: 1 9 0 "'medi' Medial Forms in Arabic lookup 2" { "'medi' Medial Forms in Arabic lookup 2 subtable"  } ['medi' ('DFLT' <'dflt' > 'arab' <'FAR ' 'KUR ' 'URD ' 'dflt' > ) ]
Lookup: 1 9 0 "'init' Initial Forms in Arabic lookup 3" { "'init' Initial Forms in Arabic lookup 3 subtable"  } ['init' ('DFLT' <'dflt' > 'arab' <'FAR ' 'KUR ' 'URD ' 'dflt' > ) ]

StartChar: exclam
Encoding: 33 33 1
GlifName: exclam
Width: 632
VWidth: 2732
GlyphClass: 2
Flags: HW
LayerCount: 2
Fore
SplineSet
213 104 m 0
 213 160.577148438 259.939453125 208 316 208 c 0
 372.061523438 208 419 160.580078125 419 104 c 0
 419 47.63671875 372.361328125 1 316 1 c 0
 258.073242188 1 213 44.5576171875 213 104 c 0
251.837890625 1296 m 5
 384.1953125 1296 l 5
 370.784179688 432 l 1
 266.185546875 432 l 1
 251.837890625 1296 l 5
EndSplineSet
EndChar

StartChar: period
Encoding: 46 46 2
GlifName: period
Width: 632
VWidth: 2732
GlyphClass: 2
Flags: HW
LayerCount: 2
Fore
SplineSet
213 104 m 0
 213 160.577148438 259.939453125 208 316 208 c 0
 372.061523438 208 419 160.580078125 419 104 c 0
 419 47.63671875 372.361328125 1 316 1 c 0
 258.073242188 1 213 44.5576171875 213 104 c 0
EndSplineSet
EndChar

StartChar: colon
Encoding: 58 58 3
GlifName: colon
Width: 632
VWidth: 2732
GlyphClass: 2
Flags: HW
LayerCount: 2
Fore
SplineSet
213 724 m 0
 213 780.577148438 259.939453125 828 316 828 c 0
 372.061523438 828 419 780.580078125 419 724 c 0
 419 667.63671875 372.361328125 621 316 621 c 0
 258.073242188 621 213 664.557617188 213 724 c 0
213 104 m 0
 213 160.577148438 259.939453125 208 316 208 c 0
 372.061523438 208 419 160.580078125 419 104 c 0
 419 47.63671875 372.361328125 1 316 1 c 0
 258.073242188 1 213 44.5576171875 213 104 c 0
EndSplineSet
EndChar

StartChar: uni060C
Encoding: 1548 1548 5
GlifName: afii57388
Width: 669
VWidth: 2740
GlyphClass: 2
Flags: HW
LayerCount: 2
Fore
SplineSet
457.163085938 541.176757812 m 5
 369.719726562 456.999023438 311 372.467773438 311 247 c 6
 311 217 l 5
 341 217 l 6
 427.375976562 217 446 188.67578125 446 113 c 4
 446 38.9638671875 412.2734375 1 341 1 c 4
 247.216796875 1 213 49.2685546875 213 145 c 4
 213 318.872070312 298.27734375 456.166015625 428.990234375 563.639648438 c 5
 457.163085938 541.176757812 l 5
EndSplineSet
EndChar

StartChar: uni0615
Encoding: 1557 1557 6
GlifName: uni0615
Width: 0
VWidth: 2712
GlyphClass: 4
Flags: HW
AnchorPoint: "Anchor-10" 438.449 1190.96 mark 0
AnchorPoint: "Anchor-9" 438.449 1190.96 mark 0
AnchorPoint: "Anchor-1" 436.616 1958.36 basemark 0
AnchorPoint: "Anchor-1" 438.449 1190.96 mark 0
LayerCount: 2
Fore
SplineSet
400.533783398 1355 m 2
 579.89497251 1355 683.5 1392.04948571 683.5 1481 c 0
 683.5 1540.79561932 639.333094153 1587 576 1587 c 0
 492.54549632 1587 407.227526211 1508.62436913 318.087228602 1369.90604083 c 2
 308.107312235 1354.37549682 l 1
 326.567566025 1354.50022826 l 1
 400.533783398 1355 l 2
244.516583167 1358.75902574 m 2
 256.451981614 1378.15404822 268.930644901 1397.62168355 280.95488903 1416.66007009 c 2
 282.5 1419.10649579 l 1
 282.5 1422 l 1
 282.5 1887 l 1
 347 1887 l 1
 347 1542 l 1
 347 1513.79311246 l 1
 364.766931279 1535.70120817 l 2
 430.29262921 1616.49981314 498.107952491 1657.5 571.5 1657.5 c 0
 680.01038284 1657.5 752.50025328 1584.87072229 752.50025328 1485.07117257 c 0
 751.561790176 1353.21710643 641.304736891 1284 402.5 1284 c 2
 135 1284 l 1
 135 1354 l 1
 236 1354 l 1
 241.58795194 1354 l 1
 244.516583167 1358.75902574 l 2
EndSplineSet
EndChar

StartChar: uni061B
Encoding: 1563 1563 7
GlifName: uni061B_
Width: 669
VWidth: 2740
GlyphClass: 2
Flags: HW
LayerCount: 2
Fore
SplineSet
241 104 m 0
 241 160.577148438 287.939453125 208 344 208 c 0
 400.061523438 208 447 160.580078125 447 104 c 0
 447 47.63671875 400.361328125 1 344 1 c 0
 286.073242188 1 241 44.5576171875 241 104 c 0
457.10546875 973.223632812 m 1
 369.5234375 889.23046875 311 804.653320312 311 679 c 2
 311 649 l 1
 341 649 l 2
 427.017578125 649 446 620.215820312 446 545 c 0
 446 470.963867188 412.2734375 433 341 433 c 0
 247.216796875 433 213 481.268554688 213 577 c 0
 213 750.872070312 298.27734375 888.166015625 428.990234375 995.639648438 c 1
 457.10546875 973.223632812 l 1
EndSplineSet
EndChar

StartChar: uni061F
Encoding: 1567 1567 8
GlifName: uni061F_
Width: 924
VWidth: 2732
GlyphClass: 2
Flags: HW
LayerCount: 2
Fore
SplineSet
422 104 m 0
 422 160.577148438 468.939453125 208 525 208 c 0
 581.061523438 208 628 160.580078125 628 104 c 0
 628 47.63671875 581.361328125 1 525 1 c 0
 467.073242188 1 422 44.5576171875 422 104 c 0
129 981 m 4
 129 1176.53222656 287.01171875 1306 469 1306 c 4
 694.793945312 1306 786.662109375 1200.2265625 795.387695312 971 c 5
 698.96875 971 l 5
 690.576171875 1101.37402344 624.047851562 1186 480 1186 c 4
 347.627929688 1186 250 1107.8125 250 972 c 4
 250 760.428710938 565.2734375 750.861328125 586.778320312 432 c 1
 461.958007812 432 l 1
 439.205078125 742.870117188 129 708 129 981 c 4
EndSplineSet
EndChar

StartChar: uni0621
Encoding: 1569 1569 9
GlifName: uni0621
Width: 830
VWidth: 2950
GlyphClass: 2
Flags: HW
AnchorPoint: "Anchor-7" 445.326 -135.646 basechar 0
AnchorPoint: "Anchor-10" 401.848 969.06 basechar 0
LayerCount: 2
Fore
SplineSet
460.694335938 203.756835938 m 2
 533.021484375 220.313476562 608.756835938 237.125976562 681.249023438 253.587890625 c 1
 697.737304688 146.413085938 l 1
 538.029296875 120.715820312 349.657226562 47.888671875 128 -69.740234375 c 1
 128 37.1328125 l 1
 192.029296875 80.123046875 248.750976562 109.216796875 304.434570312 129.873046875 c 2
 368.337890625 153.579101562 l 1
 307.694335938 184.692382812 l 2
 198.409179688 240.759765625 148 308.623046875 148 404 c 0
 148 593.467773438 270.715820312 708 443 708 c 0
 520.037109375 708 581.286132812 685.047851562 632.331054688 641.10546875 c 1
 598.875976562 559.596679688 l 1
 552.486328125 586.428710938 505.25 601 456 601 c 0
 336.766601562 601 250 527.09765625 250 405 c 0
 250 320.927734375 326.721679688 258.083007812 441.549804688 205.705078125 c 2
 450.791992188 201.489257812 l 1
 460.694335938 203.756835938 l 2
EndSplineSet
Position2: "Single Positioning lookup 2 subtable" dx=0 dy=0 dh=-178 dv=0
Position2: "Single Positioning lookup 1 subtable" dx=0 dy=0 dh=-120 dv=0
EndChar

StartChar: uni0627
Encoding: 1575 1575 15
GlifName: uni0627
Width: 465
VWidth: 2920
GlyphClass: 2
Flags: HW
AnchorPoint: "Anchor-10" 224.871 1465.46 basechar 0
AnchorPoint: "Anchor-7" 228.587 -268.365 basechar 0
LayerCount: 2
Fore
SplineSet
178 1306 m 1
 287 1306 l 1
 287 1 l 1
 178 1 l 1
 178 1306 l 1
EndSplineSet
Position2: "Single Positioning lookup 2 subtable" dx=0 dy=0 dh=-143 dv=0
Position2: "Single Positioning lookup 1 subtable" dx=0 dy=0 dh=-127 dv=0
Position2: "Single Positioning lookup 0 subtable" dx=0 dy=0 dh=130 dv=0
Substitution2: "'fina' Terminal Forms in Arabic lookup 1 subtable" uniFE8E
EndChar

StartChar: uni062D
Encoding: 1581 1581 21
GlifName: uni062D_
Width: 1347
VWidth: 2920
GlyphClass: 2
Flags: HW
AnchorPoint: "Anchor-7" 690.833 -860.619 basechar 0
AnchorPoint: "Anchor-10" 601.478 1146.07 basechar 0
LayerCount: 2
Fore
SplineSet
847.141601562 547.854492188 m 2
 822.075195312 557.880859375 812.569335938 561.680664062 756.26953125 584.802734375 c 0
 621.094726562 638.873046875 536.266601562 676 477 676 c 0
 387.983398438 676 305.051757812 619.294921875 252.212890625 550.28125 c 2
 240.2890625 534.823242188 l 1
 140.002929688 584.634765625 l 1
 220.159179688 713.901367188 340.44921875 794 478 794 c 0
 552.979492188 794 650.915039062 757.521484375 767.897460938 701.012695312 c 0
 958.577148438 607.975585938 1083.88867188 562.2265625 1195.80566406 550.453125 c 1
 1187.03027344 435.692382812 l 1
 664.407226562 387.203125 235 160.532226562 235 -165 c 0
 235 -435.467773438 437.3046875 -566 798 -566 c 0
 934.013671875 -566 1066.953125 -536.872070312 1191.15917969 -483.688476562 c 1
 1213.81542969 -593.733398438 l 1
 1088.32421875 -649.471679688 949.0234375 -677 784 -677 c 0
 385.791992188 -677 129 -519.504882812 129 -181 c 0
 129 122.186523438 367.885742188 384.3671875 842.559570312 490.725585938 c 2
 937.0390625 511.895507812 l 1
 847.141601562 547.854492188 l 2
EndSplineSet
Substitution2: "'fina' Terminal Forms in Arabic lookup 1 subtable" uniFEA2
Substitution2: "'medi' Medial Forms in Arabic lookup 2 subtable" uniFEA4
Substitution2: "'init' Initial Forms in Arabic lookup 3 subtable" uniFEA3
EndChar

StartChar: uni062F
Encoding: 1583 1583 23
GlifName: uni062F_
Width: 963
VWidth: 2920
GlyphClass: 2
Flags: HW
AnchorPoint: "Anchor-10" 371.137 1139.03 basechar 0
AnchorPoint: "Anchor-7" 432.24 -271.316 basechar 0
LayerCount: 2
Fore
SplineSet
128 140.673828125 m 1
 198.9921875 127.7578125 260.436523438 121 317 121 c 0
 562.049804688 121 719 181.044921875 719 334 c 0
 719 477.692382812 572.969726562 628.469726562 316.866210938 793.887695312 c 1
 382.107421875 892.416015625 l 1
 691.561523438 702.51953125 835 516.618164062 835 337 c 0
 835 117.806640625 682.59765625 2 330 2 c 0
 257.711914062 2 188.197265625 9.173828125 128 20.552734375 c 1
 128 140.673828125 l 1
EndSplineSet
Position2: "Single Positioning lookup 2 subtable" dx=0 dy=0 dh=-178 dv=0
Position2: "Single Positioning lookup 1 subtable" dx=0 dy=0 dh=-173 dv=0
Substitution2: "'fina' Terminal Forms in Arabic lookup 1 subtable" uniFEAA
EndChar

StartChar: uni0631
Encoding: 1585 1585 25
GlifName: uni0631
Width: 780
VWidth: 2112
GlyphClass: 2
Flags: HW
AnchorPoint: "Anchor-10" 493.256 818.2 basechar 0
AnchorPoint: "Anchor-7" 322.969 -669.998 basechar 0
LayerCount: 2
Fore
SplineSet
582.6015625 458.90625 m 1
 628.518554688 335.752929688 652 206.8515625 652 105 c 0
 652 -234.947265625 462.62109375 -441.943359375 68.8232421875 -523.674804688 c 1
 30.8896484375 -426.311523438 l 1
 364.354492188 -353.938476562 542.943359375 -177.817382812 545 99.888671875 c 0
 545 188.719726562 521.586914062 308.057617188 477.579101562 421.305664062 c 1
 582.6015625 458.90625 l 1
EndSplineSet
Position2: "Single Positioning lookup 2 subtable" dx=0 dy=0 dh=-30 dv=0
Position2: "Single Positioning lookup 1 subtable" dx=0 dy=0 dh=-30 dv=0
Substitution2: "'fina' Terminal Forms in Arabic lookup 1 subtable" uniFEAE
EndChar

StartChar: uni0633
Encoding: 1587 1587 27
GlifName: uni0633
Width: 2456
GlyphClass: 2
Flags: HW
AnchorPoint: "Anchor-10" 1770.53 837.1 basechar 0
AnchorPoint: "Anchor-7" 710.902 -746.086 basechar 0
LayerCount: 2
Fore
SplineSet
1531 0 m 0
 1456 0 1404 18 1361 52 c 2
 1313 89 l 1
 1312 28 l 2
 1309 -156 1256 -290 1154 -381 c 0
 1051 -473 908 -520 721 -520 c 0
 318 -520 128 -342 128 26 c 0
 128 153 154 284 205 416 c 1
 305 375 l 1
 261 252 240 139 240 31 c 0
 240 -258 411 -407 728 -407 c 0
 1041 -407 1206 -242 1207 70 c 0
 1207 186 1180 304 1128 421 c 1
 1237 459 l 1
 1286 305 l 2
 1324 187 1405 121 1533 120 c 0
 1683 120 1748 214 1748 359 c 0
 1748 389 1745 440 1740 511 c 1
 1845 523 l 1
 1859 329 l 2
 1866 220 1922 120 2047 120 c 0
 2163 120 2216 221 2216 372 c 0
 2216 440 2203 521 2179 615 c 1
 2290 644 l 1
 2316 554 2328 469 2328 387 c 0
 2328 162 2251 1 2048 0 c 0
 1943 0 1875 39 1833 124 c 2
 1811 169 l 1
 1782 129 l 2
 1718 41 1637 0 1531 0 c 0
EndSplineSet
Position2: "Single Positioning lookup 2 subtable" dx=0 dy=0 dh=-178 dv=0
Position2: "Single Positioning lookup 1 subtable" dx=0 dy=0 dh=-173 dv=0
Substitution2: "'fina' Terminal Forms in Arabic lookup 1 subtable" uniFEB2
Substitution2: "'medi' Medial Forms in Arabic lookup 2 subtable" uniFEB4
Substitution2: "'init' Initial Forms in Arabic lookup 3 subtable" uniFEB3
EndChar

StartChar: uni0635
Encoding: 1589 1589 29
GlifName: uni0635
Width: 2575
VWidth: 2920
GlyphClass: 2
Flags: HW
AnchorPoint: "Anchor-7" 710.902 -746.086 basechar 0
AnchorPoint: "Anchor-10" 2052.53 1098.1 basechar 0
LayerCount: 2
Fore
SplineSet
1753.1015625 121 m 2
 2109.99902344 121 2329 194.146484375 2329 383 c 0
 2329 507.88671875 2236.00390625 605 2104 605 c 0
 1930.63085938 605 1758.19042969 443.884765625 1579.76171875 166.217773438 c 2
 1549.82226562 119.626953125 l 1
 1605.203125 120.000976562 l 1
 1753.1015625 121 l 2
1207 69.94921875 m 0
 1207 187.8671875 1179.44335938 305.321289062 1128.15039062 421.405273438 c 1
 1236.82714844 458.702148438 l 1
 1286.47363281 304.712890625 l 2
 1314.62011719 218.26171875 1351.59472656 156.635742188 1415.53515625 149.201171875 c 2
 1434.95117188 146.943359375 l 1
 1444.859375 163.791992188 l 2
 1670.90917969 548.17578125 1887.27148438 727 2098 727 c 0
 2301.57128906 727 2447 581.060546875 2447 392.053710938 c 0
 2446.09277344 137.208984375 2234.98144531 0 1757 0 c 2
 1706 0 l 2
 1539.17578125 0 1425.18457031 20.3115234375 1354.99316406 54.0400390625 c 2
 1312.61132812 74.4052734375 l 1
 1312.00292969 27.388671875 l 2
 1307.22265625 -341.633789062 1083.84765625 -520 721 -520 c 0
 317.294921875 -520 128 -342.08984375 128 26 c 0
 128 152.734375 153.965820312 284.143554688 204.693359375 415.83203125 c 1
 304.858398438 375.119140625 l 1
 262.118164062 254.66796875 240 142.059570312 240 31 c 0
 240 -257.825195312 411.58203125 -407 728 -407 c 0
 1039.04296875 -407 1205.95214844 -242.264648438 1207 69.94921875 c 0
EndSplineSet
Position2: "Single Positioning lookup 2 subtable" dx=0 dy=0 dh=-178 dv=0
Position2: "Single Positioning lookup 1 subtable" dx=0 dy=0 dh=-173 dv=0
Substitution2: "'fina' Terminal Forms in Arabic lookup 1 subtable" uniFEBA
Substitution2: "'medi' Medial Forms in Arabic lookup 2 subtable" uniFEBC
Substitution2: "'init' Initial Forms in Arabic lookup 3 subtable" uniFEBB
EndChar

StartChar: uni0637
Encoding: 1591 1591 31
GlifName: uni0637
Width: 1471
VWidth: 2920
GlyphClass: 2
Flags: HW
AnchorPoint: "Anchor-10" 476.36 1468.58 basechar 0
AnchorPoint: "Anchor-7" 636.602 -268.453 basechar 0
LayerCount: 2
Fore
SplineSet
649.1015625 122 m 2
 1005.99902344 122 1225 195.146484375 1225 384 c 0
 1225 508.88671875 1132.00390625 606 1000 606 c 0
 826.630859375 606 654.190429688 444.884765625 475.76171875 167.217773438 c 2
 445.822265625 120.626953125 l 1
 501.203125 121.000976562 l 1
 649.1015625 122 l 2
345.549804688 134.27734375 m 2
 369.356445312 172.961914062 394.291992188 211.865234375 418.364257812 249.98046875 c 2
 423 257.319335938 l 1
 423 266 l 1
 423 1306 l 5
 532 1306 l 5
 532 506 l 1
 532 421.37890625 l 1
 585.30078125 487.103515625 l 2
 715.37890625 647.500976562 848.321289062 727 991 727 c 0
 1203.03222656 727 1343 586.200195312 1343 392.106445312 c 0
 1341.18554688 137.240234375 1129.91308594 0 653 0 c 2
 128 0 l 1
 128 120 l 1
 320 120 l 1
 336.763671875 120 l 1
 345.549804688 134.27734375 l 2
EndSplineSet
Position2: "Single Positioning lookup 2 subtable" dx=0 dy=0 dh=-178 dv=0
Position2: "Single Positioning lookup 1 subtable" dx=0 dy=0 dh=-173 dv=0
Substitution2: "'fina' Terminal Forms in Arabic lookup 1 subtable" uniFEC2
Substitution2: "'medi' Medial Forms in Arabic lookup 2 subtable" uniFEC4
Substitution2: "'init' Initial Forms in Arabic lookup 3 subtable" uniFEC3
EndChar

StartChar: uni0639
Encoding: 1593 1593 33
GlifName: uni0639
Width: 1306
VWidth: 2920
GlyphClass: 2
Flags: HW
AnchorPoint: "Anchor-7" 670.833 -860.619 basechar 0
AnchorPoint: "Anchor-10" 694.478 1334.07 basechar 0
LayerCount: 2
Fore
SplineSet
954.200195312 795.301757812 m 1
 864.059570312 844.548828125 786.107421875 871 715 871 c 0
 585.602539062 871 465 783.700195312 465 640 c 0
 465 531.586914062 523.729492188 473.52734375 581.453125 400.411132812 c 2
 592.560546875 386.341796875 l 1
 610.213867188 389.456054688 l 2
 728.0546875 410.251953125 829.560546875 421 912 421 c 0
 961.842773438 421 1012.41015625 418.200195312 1059.11035156 414.087890625 c 1
 1043.90234375 301.020507812 l 1
 1010.78710938 302.037109375 988.084960938 302 971 302 c 0
 486.920898438 302 234 126.588867188 234 -187 c 0
 234 -427.112304688 432.821289062 -562 766 -562 c 0
 896.645507812 -562 1027.81542969 -532.684570312 1151.11914062 -480.491210938 c 1
 1173.87011719 -590.998046875 l 1
 1051.11035156 -647.092773438 912.389648438 -674 755 -674 c 0
 395.063476562 -674 128 -514.892578125 128 -194 c 0
 128 21.158203125 223.764648438 227.188476562 449.205078125 327.594726562 c 2
 486.036132812 343.999023438 l 1
 459.743164062 374.564453125 l 2
 383.940429688 462.684570312 352 553.934570312 352 653 c 0
 352 827.791992188 517.923828125 989 705 989 c 0
 792.274414062 989 890.849609375 956.030273438 996.1640625 888.1328125 c 1
 954.200195312 795.301757812 l 1
EndSplineSet
Substitution2: "'fina' Terminal Forms in Arabic lookup 1 subtable" uniFECA
Substitution2: "'medi' Medial Forms in Arabic lookup 2 subtable" uniFECC
Substitution2: "'init' Initial Forms in Arabic lookup 3 subtable" uniFECB
EndChar

StartChar: uni0640
Encoding: 1600 1600 35
GlifName: afii57440
Width: 286
VWidth: 2920
GlyphClass: 2
Flags: HW
AnchorPoint: "Anchor-10" 143.774 840.11 basechar 0
AnchorPoint: "Anchor-7" 147.7 -266.739 basechar 0
LayerCount: 2
Fore
SplineSet
-20 0 m 5
 -20 120 l 5
 306 120 l 1
 306 0 l 1
 -20 0 l 5
EndSplineSet
Position2: "Single Positioning lookup 2 subtable" dx=0 dy=0 dh=-178 dv=0
Position2: "Single Positioning lookup 1 subtable" dx=0 dy=0 dh=-173 dv=0
EndChar

StartChar: uni0643
Encoding: 1603 1603 38
GlifName: uni0643
Width: 1831
VWidth: 2920
GlyphClass: 2
Flags: HW
AnchorPoint: "Anchor-10" 916.11 1210.05 basechar 0
AnchorPoint: "Anchor-7" 900.268 -256.468 basechar 0
LayerCount: 2
Fore
SplineSet
723 541.182617188 m 5
 773.895507812 535.26953125 797.032226562 532 839 532 c 4
 933.349609375 532 1040 529.661132812 1040 630 c 4
 1040 703.227539062 989.124023438 712.706054688 922.065429688 713 c 4
 839.16796875 713.36328125 768 752.38671875 768 879 c 4
 768 980.854492188 829.147460938 1055.578125 972.252929688 1055.578125 c 4
 1000.43652344 1055.578125 1033.19238281 1052.74121094 1067 1047.32324219 c 5
 1067 982.109375 l 5
 1032.37109375 986.397460938 1003.04980469 988.399414062 976.748046875 988.399414062 c 4
 878.321289062 988.399414062 827 946.831054688 827 888 c 4
 827 828.92578125 859.2265625 787.434570312 939.918945312 787 c 4
 1061.34179688 786.346679688 1098 745.474609375 1098 634 c 4
 1098 502.1328125 1027.36621094 464 846 464 c 4
 798.709960938 464 778.959960938 468.188476562 723 476.875 c 5
 723 541.182617188 l 5
978 120 m 2
 1451.66601562 120 1544 222.071289062 1544 440 c 6
 1544 1306 l 5
 1653 1306 l 5
 1653 442 l 6
 1653 147.353515625 1558.83398438 0 985 0 c 2
 840 0 l 2
 365.087890625 0 128 156.538085938 128 454 c 0
 128 528.747070312 143.16015625 602.15234375 168.837890625 669.712890625 c 1
 267.112304688 633.100585938 l 1
 250.8671875 581.138671875 243 531.252929688 243 478.931640625 c 0
 244.119140625 232.771484375 459.916992188 120 830 120 c 2
 978 120 l 2
EndSplineSet
Position2: "Single Positioning lookup 2 subtable" dx=0 dy=0 dh=-143 dv=0
Position2: "Single Positioning lookup 1 subtable" dx=0 dy=0 dh=-104 dv=0
Position2: "Single Positioning lookup 0 subtable" dx=0 dy=0 dh=130 dv=0
Substitution2: "'fina' Terminal Forms in Arabic lookup 1 subtable" uniFEDA
Substitution2: "'medi' Medial Forms in Arabic lookup 2 subtable" uniFEDC
Substitution2: "'init' Initial Forms in Arabic lookup 3 subtable" uniFEDB
EndChar

StartChar: uni0644
Encoding: 1604 1604 39
GlifName: uni0644
Width: 1377
VWidth: 2920
GlyphClass: 2
Flags: HW
AnchorPoint: "Anchor-7" 662.902 -738.086 basechar 0
AnchorPoint: "Anchor-10" 654.908 975.66 basechar 0
LayerCount: 2
Fore
SplineSet
296.512695312 311.259765625 m 1
 258.135742188 207.099609375 239 115.385742188 239 6 c 0
 239 -264.514648438 392.232421875 -407 675 -407 c 0
 945.009765625 -407 1088 -250.270507812 1088 37.931640625 c 2
 1090.93164062 1306 l 5
 1198.9765625 1306 l 5
 1198 77 l 2
 1198 -330.740234375 1026.05664062 -520 674 -520 c 0
 303.299804688 -520 128 -350.095703125 128 7 c 0
 128 128.486328125 150.577148438 233.755859375 196.600585938 351.869140625 c 1
 296.512695312 311.259765625 l 1
EndSplineSet
Position2: "Single Positioning lookup 2 subtable" dx=0 dy=0 dh=-60 dv=0
Position2: "Single Positioning lookup 1 subtable" dx=0 dy=0 dh=-58 dv=0
Position2: "Single Positioning lookup 0 subtable" dx=0 dy=0 dh=130 dv=0
Substitution2: "'fina' Terminal Forms in Arabic lookup 1 subtable" uniFEDE
Substitution2: "'medi' Medial Forms in Arabic lookup 2 subtable" uniFEE0
Substitution2: "'init' Initial Forms in Arabic lookup 3 subtable" uniFEDF
EndChar

StartChar: uni0645
Encoding: 1605 1605 40
GlifName: uni0645
Width: 1230
VWidth: 2590
GlyphClass: 2
Flags: HW
AnchorPoint: "Anchor-10" 763.952 990.2 basechar 0
AnchorPoint: "Anchor-7" 714.983 -368.909 basechar 0
LayerCount: 2
Fore
SplineSet
541.623046875 242.287109375 m 2
 663.034179688 148.193359375 761.749023438 95 843.182617188 95 c 0
 942.544921875 96.2119140625 995 162.059570312 995 265 c 0
 995 398.03515625 917.342773438 516 781 516 c 0
 665.62890625 516 584.98046875 423.502929688 531.783203125 276.189453125 c 2
 524.369140625 255.659179688 l 1
 541.623046875 242.287109375 l 2
140.299804688 -655 m 5
 134.26953125 -548.793945312 131 -459.012695312 131 -363 c 4
 131 -12.203125 173.028320312 226.900390625 390.767578125 269.559570312 c 2
 406.870117188 272.71484375 l 1
 412.900390625 287.974609375 l 2
 509.32421875 531.985351562 633.2265625 640.110351562 780.090820312 641 c 0
 975.065429688 641 1102 479.909179688 1102 277 c 0
 1102 94.15625 1018.43554688 -23 843 -23 c 0
 783.297851562 -23 705.081054688 2.796875 614.426757812 54.7353515625 c 0
 580.567382812 75.8388671875 546.797851562 93.638671875 509.782226562 112.646484375 c 0
 477.423828125 129.383789062 446.63671875 138 418.85546875 138 c 0
 278.102539062 136.646484375 244 -45.7353515625 244 -335 c 4
 244 -453.41015625 248.21484375 -558.71875 255.506835938 -655 c 5
 140.299804688 -655 l 5
EndSplineSet
Position2: "Single Positioning lookup 2 subtable" dx=0 dy=0 dh=-178 dv=0
Position2: "Single Positioning lookup 1 subtable" dx=0 dy=0 dh=-173 dv=0
Substitution2: "'init' Initial Forms in Arabic lookup 3 subtable" uniFEE3
Substitution2: "'medi' Medial Forms in Arabic lookup 2 subtable" uniFEE4
Substitution2: "'fina' Terminal Forms in Arabic lookup 1 subtable" uniFEE2
EndChar

StartChar: uni0647
Encoding: 1607 1607 42
GlifName: uni0647
Width: 922
VWidth: 2920
GlyphClass: 2
Flags: HW
AnchorPoint: "Anchor-10" 419.775 1179.01 basechar 0
AnchorPoint: "Anchor-7" 445.63 -272.576 basechar 0
LayerCount: 2
Fore
SplineSet
427.168945312 627.510742188 m 2
 299.684570312 515.203125 235 421.291992188 235 319 c 0
 235 188.470703125 313.260742188 120 460 120 c 0
 607.5859375 120 687 188.323242188 687 320 c 4
 687 419.080078125 609.353515625 512.93359375 465.80078125 628.377929688 c 2
 446.120117188 644.205078125 l 1
 427.168945312 627.510742188 l 2
375.178710938 860.115234375 m 1
 668.638671875 640.696289062 794 463.001953125 794 314 c 4
 794 136.71875 674.091796875 6.818359375 460.801757812 4 c 0
 241.475585938 4 128 113.418945312 128 314 c 0
 128 440.086914062 190.747070312 567.268554688 337.998046875 711.573242188 c 2
 361.243164062 734.354492188 l 1
 336.647460938 755.670898438 l 1
 312.719726562 776.408203125 l 1
 375.178710938 860.115234375 l 1
EndSplineSet
Position2: "Single Positioning lookup 2 subtable" dx=0 dy=0 dh=-178 dv=0
Position2: "Single Positioning lookup 1 subtable" dx=0 dy=0 dh=-173 dv=0
Substitution2: "'fina' Terminal Forms in Arabic lookup 1 subtable" uniFEEA
Substitution2: "'medi' Medial Forms in Arabic lookup 2 subtable" uniFEEC
Substitution2: "'init' Initial Forms in Arabic lookup 3 subtable" uniFEEB
EndChar

StartChar: uni0648
Encoding: 1608 1608 43
GlifName: uni0648
Width: 880
VWidth: 2112
GlyphClass: 2
Flags: HW
AnchorPoint: "Anchor-7" 415.969 -669.998 basechar 0
AnchorPoint: "Anchor-10" 430.256 1000.2 basechar 0
LayerCount: 2
Fore
SplineSet
612.232421875 12.7626953125 m 2
 533.979492188 2.857421875 477.739257812 -2 457 -2 c 0
 226.681640625 -2 128 84.41015625 128 266 c 0
 128 483.948242188 256.452148438 660 428 660 c 0
 642.99609375 660 752 412.376953125 752 136 c 0
 752 -215.247070312 566.578125 -443.17578125 186.801757812 -523.619140625 c 1
 148.905273438 -426.353515625 l 1
 425.365234375 -366.086914062 591.5390625 -223.10546875 644.966796875 -24.8046875 c 2
 656.6015625 18.37890625 l 1
 612.232421875 12.7626953125 l 2
645.940429688 170.887695312 m 2
 631.954101562 392.666992188 564.506835938 535 420 535 c 0
 300.44921875 535 233 402.20703125 233 281 c 0
 233 166.946289062 322.65234375 112 458 112 c 0
 514.23828125 112 570.05078125 123.791015625 624.669921875 140.280273438 c 2
 647.4375 147.153320312 l 1
 645.940429688 170.887695312 l 2
EndSplineSet
Position2: "Single Positioning lookup 2 subtable" dx=0 dy=0 dh=-30 dv=0
Position2: "Single Positioning lookup 1 subtable" dx=0 dy=0 dh=-30 dv=0
Substitution2: "'fina' Terminal Forms in Arabic lookup 1 subtable" uniFEEE
EndChar

StartChar: uni0649
Encoding: 1609 1609 44
GlifName: uni0649
Width: 1477
VWidth: 2950
GlyphClass: 2
Flags: HW
AnchorPoint: "Anchor-7" 716.902 -706.086 basechar 0
AnchorPoint: "Anchor-10" 644.6 906.22 basechar 0
LayerCount: 2
Fore
SplineSet
322.0390625 428.452148438 m 1
 267.21484375 288.6875 239 170.564453125 239 52 c 0
 239 -236.60546875 409.215820312 -386.9609375 724 -388 c 0
 958.161132812 -388 1247 -287.762695312 1247 -72 c 0
 1247 9.5302734375 1155.43066406 16 1118 16 c 2
 974 16 l 2
 827.634765625 16 758 85.3203125 758 233 c 0
 758 484.884765625 963.358398438 646.53515625 1191.55859375 646.53515625 c 0
 1224.23339844 646.53515625 1280.34375 644.87890625 1337.72167969 625.822265625 c 1
 1316.70410156 517.450195312 l 1
 1267.82421875 529.01171875 1225.54980469 531.233398438 1191.96875 531.233398438 c 0
 999.157226562 531.233398438 867 386.841796875 867 246 c 0
 867 176.69140625 898.490234375 132 984 132 c 2
 1163.9375 132 l 2
 1291.32128906 131.46875 1349 63.6044921875 1349 -32 c 0
 1349 -328.259765625 1103.52441406 -499 719 -499 c 0
 317.41015625 -499 128 -321.20703125 128 49 c 0
 128 178.321289062 159.138671875 313.329101562 222.29296875 468.994140625 c 1
 322.0390625 428.452148438 l 1
EndSplineSet
Position2: "Single Positioning lookup 2 subtable" dx=0 dy=0 dh=-60 dv=0
Position2: "Single Positioning lookup 1 subtable" dx=0 dy=0 dh=-58 dv=0
Substitution2: "'fina' Terminal Forms in Arabic lookup 1 subtable" uniFEF0
Substitution2: "'medi' Medial Forms in Arabic lookup 2 subtable" uniFBE9
Substitution2: "'init' Initial Forms in Arabic lookup 3 subtable" uniFBE8
EndChar

StartChar: uni064B
Encoding: 1611 1611 46
GlifName: uni064B_
Width: 0
VWidth: 2316
GlyphClass: 4
Flags: HW
AnchorPoint: "Anchor-10" 583.551 1123.65 mark 0
AnchorPoint: "Anchor-9" 583.551 1123.65 mark 0
AnchorPoint: "Anchor-1" 553.285 1596.25 basemark 0
AnchorPoint: "Anchor-1" 583.551 1123.65 mark 0
LayerCount: 2
Fore
SplineSet
337 1090.92151333 m 1
 337 1173.28462438 l 1
 772 1351.10880021 l 1
 772 1269.70173311 l 1
 337 1090.92151333 l 1
337 1302.92151333 m 1
 337 1385.28462438 l 1
 772 1563.10880021 l 1
 772 1481.70173311 l 1
 337 1302.92151333 l 1
EndSplineSet
EndChar

StartChar: uni064C
Encoding: 1612 1612 47
GlifName: uni064C_
Width: 0
VWidth: 2316
GlyphClass: 4
Flags: HW
AnchorPoint: "Anchor-10" 680.906 1278.67 mark 0
AnchorPoint: "Anchor-9" 680.906 1278.67 mark 0
AnchorPoint: "Anchor-1" 637.739 1852.46 basemark 0
AnchorPoint: "Anchor-1" 680.906 1278.67 mark 0
LayerCount: 2
Fore
SplineSet
499 1629 m 0
 499 1720.92254991 562.661044562 1781 652 1781 c 0
 741.818302147 1781 804 1721.98682063 804 1628 c 0
 804 1590.69711065 794.369726464 1549.9067844 777.796690815 1510.9114064 c 2
 772.87783625 1499.33763095 l 1
 785.262146661 1497.15216441 l 2
 798.152493966 1494.87739724 810.795997681 1493.68632728 820 1493.23866995 c 1
 820 1437.59528011 l 1
 800.810485742 1438.90086077 782.068510108 1440.91141723 755.842885351 1445.82872187 c 2
 747.90683005 1447.31673224 l 1
 744.780178944 1439.87232484 l 2
 682.501335639 1291.58936459 592.724868867 1220.99202128 471.867219481 1220.99202128 c 0
 349.449274647 1220.99202128 283.214623775 1332.34037592 278.182417882 1511.64866687 c 1
 337.331975364 1522.13086693 l 1
 342.495937198 1383.63994647 384.105853525 1279 473 1279 c 0
 552.48225941 1279 622.089813995 1336.98342205 681.717971853 1443.1013301 c 2
 687.560305304 1453.49870319 l 1
 676.303504248 1457.43858356 l 2
 570.664770657 1494.41214032 499 1540.9420679 499 1629 c 0
718.1914503 1519.06080701 m 2
 732.476611679 1552.39285023 746 1592.05787208 746 1627 c 0
 746 1680.25404628 705.390224418 1721 656 1721 c 0
 600.76727936 1721 559 1682.66242438 559 1625 c 0
 559 1558.07309596 643.209905311 1530.07061012 706.441074397 1513.33294772 c 2
 714.789556725 1511.12305534 l 1
 718.1914503 1519.06080701 l 2
EndSplineSet
EndChar

StartChar: uni064D
Encoding: 1613 1613 48
GlifName: uni064D_
Width: 0
VWidth: 2316
GlyphClass: 4
Flags: HW
AnchorPoint: "Anchor-7" 542.278 32.7109 mark 0
AnchorPoint: "Anchor-6" 542.278 32.7109 mark 0
AnchorPoint: "Anchor-0" 592.022 -407.025 basemark 0
AnchorPoint: "Anchor-0" 542.278 32.7109 mark 0
LayerCount: 2
Fore
SplineSet
342 -431.121153945 m 1
 342 -348.720951318 l 1
 778 -170.878846055 l 1
 778 -253.279048682 l 1
 342 -431.121153945 l 1
342 -219.121153945 m 1
 342 -136.720951318 l 1
 778 41.1211539453 l 1
 778 -41.2790486821 l 1
 342 -219.121153945 l 1
EndSplineSet
EndChar

StartChar: uni064E
Encoding: 1614 1614 49
GlifName: uni064E_
Width: 0
VWidth: 2316
GlyphClass: 4
Flags: HW
AnchorPoint: "Anchor-10" 545.66 1397.63 mark 0
AnchorPoint: "Anchor-9" 545.66 1397.63 mark 0
AnchorPoint: "Anchor-1" 541.396 1651.77 basemark 0
AnchorPoint: "Anchor-1" 545.66 1397.63 mark 0
LayerCount: 2
Fore
SplineSet
306 1363.87884605 m 1
 306 1446.27904868 l 1
 742 1624.12115395 l 1
 742 1541.72095132 l 1
 306 1363.87884605 l 1
EndSplineSet
EndChar

StartChar: uni064F
Encoding: 1615 1615 50
GlifName: uni064F_
Width: 0
VWidth: 2316
GlyphClass: 4
Flags: HW
AnchorPoint: "Anchor-10" 591.295 1339.37 mark 0
AnchorPoint: "Anchor-9" 591.295 1339.37 mark 0
AnchorPoint: "Anchor-1" 542.134 1865.4 basemark 0
AnchorPoint: "Anchor-1" 591.295 1339.37 mark 0
LayerCount: 2
Fore
SplineSet
713 1437.08795008 m 1
 688.798733432 1437.52747365 667.000483232 1439.42526907 644.520571843 1442.88371698 c 2
 638.439059774 1443.81933422 l 1
 634.862665288 1438.81238194 l 2
 573.928029485 1353.50389181 447.471861078 1304.21485618 290 1293.62333695 c 1
 290 1351.90922517 l 1
 419.16159987 1364.86267402 524.003567009 1395.72248536 573.286276689 1448.15089991 c 2
 585.880740173 1461.54926532 l 1
 567.788854382 1464.8386991 l 2
 478.019800351 1481.16034529 390 1540.12264246 390 1626 c 0
 390 1718.32861787 453.843355245 1778 543 1778 c 0
 632.369621572 1778 696 1717.93084224 696 1625 c 0
 696 1587.56142432 687.385800034 1549.92144834 670.762578864 1509.83015023 c 2
 665.880053686 1498.05464833 l 1
 678.479428157 1496.11628302 l 2
 688.828822367 1494.52406853 700.870758606 1492.92939687 713 1492.25983279 c 1
 713 1437.08795008 l 1
609.1914503 1516.06080701 m 2
 623.476611679 1549.39285023 637 1589.05787208 637 1624 c 0
 637 1677.77012842 596.96915978 1717 547 1717 c 0
 491.55586692 1717 450 1680.05348045 450 1622 c 0
 450 1555.07309596 534.209905311 1527.07061012 597.441074397 1510.33294772 c 2
 605.789556725 1508.12305534 l 1
 609.1914503 1516.06080701 l 2
EndSplineSet
EndChar

StartChar: uni0650
Encoding: 1616 1616 51
GlifName: uni0650
Width: 0
VWidth: 2316
GlyphClass: 4
Flags: HW
AnchorPoint: "Anchor-7" 571.144 -44.8242 mark 0
AnchorPoint: "Anchor-6" 571.144 -44.8242 mark 0
AnchorPoint: "Anchor-0" 619.091 -324.624 basemark 0
AnchorPoint: "Anchor-0" 571.144 -44.8242 mark 0
LayerCount: 2
Fore
SplineSet
353 -331.078486667 m 1
 353 -248.715375617 l 1
 788 -70.891199793 l 1
 788 -152.298266887 l 1
 353 -331.078486667 l 1
EndSplineSet
EndChar

StartChar: uni0651
Encoding: 1617 1617 52
GlifName: uni0651
Width: 0
VWidth: 2393
GlyphClass: 4
Flags: HW
AnchorPoint: "Anchor-10" 598.801 1453.71 mark 0
AnchorPoint: "Anchor-9" 598.801 1453.71 mark 0
AnchorPoint: "Anchor-1" 570.087 1839.1 basemark 0
AnchorPoint: "Anchor-1" 598.801 1453.71 mark 0
LayerCount: 2
Fore
SplineSet
598.316724329 1748 m 1
 599.050100663 1722.56448188 599.210869212 1699.78340193 601.027318961 1675.26133032 c 0
 605.5760815 1613.8490926 628.307282161 1564 681 1564 c 0
 735.89369238 1564 758 1606.72780802 758 1675 c 0
 758 1699.4752814 752.30268934 1738.05425307 742.892297548 1784.76619761 c 1
 811.792831842 1795.72764624 l 1
 822.065718744 1757.88659806 827 1721.35345252 827 1685 c 0
 827 1552.28380769 780.815224925 1492.92720657 689.94898092 1492 c 0
 649.64606779 1492 605.524222654 1512.31223447 589.94427191 1543.47213595 c 2
 577.96593822 1567.42880334 l 1
 571.31336134 1541.4837535 l 2
 552.878995425 1469.58972644 490.963227508 1448 432 1448 c 0
 345.119231724 1448 303.873817788 1501.51175401 303.873817788 1616.0779836 c 0
 303.873817788 1647.7191824 308.141126629 1679.13661995 314.385613581 1704.63112685 c 1
 373.062120929 1694.85170896 l 1
 367.311145496 1665.04394705 366 1642.3858646 366 1620 c 0
 366 1560.8907373 392.662741806 1526 444 1526 c 0
 539.015415409 1526 541.4140625 1600.13074476 541.4140625 1719.33203125 c 0
 541.4140625 1728.33017375 541.323098297 1739.47934345 541.189708697 1748 c 1
 598.316724329 1748 l 1
EndSplineSet
EndChar

StartChar: uni0652
Encoding: 1618 1618 53
GlifName: uni0652
Width: 0
VWidth: 2316
GlyphClass: 4
Flags: HW
AnchorPoint: "Anchor-10" 593.219 1239.43 mark 0
AnchorPoint: "Anchor-9" 593.219 1239.43 mark 0
AnchorPoint: "Anchor-1" 589.537 1682.66 basemark 0
AnchorPoint: "Anchor-1" 593.219 1239.43 mark 0
LayerCount: 2
Fore
SplineSet
490 1462 m 0
 490 1404.3834396 536.629228219 1359 594 1359 c 0
 651.472621747 1359 697 1404.52731735 697 1462 c 0
 697 1519.37079682 651.616507231 1566 594 1566 c 0
 536.485050244 1566 490 1519.51492178 490 1462 c 0
431 1462 m 0
 431 1551.45617256 504.543947643 1625 594 1625 c 0
 683.456172556 1625 757 1551.45605236 757 1462 c 0
 757 1372.54382744 683.456052357 1299 594 1299 c 0
 504.543827444 1299 431 1372.54394764 431 1462 c 0
EndSplineSet
EndChar

StartChar: uni0653
Encoding: 1619 1619 54
GlifName: uni0653
Width: -30
VWidth: 2673
GlyphClass: 4
Flags: HW
AnchorPoint: "Anchor-10" 461.017 1539.11 mark 0
AnchorPoint: "Anchor-9" 461.017 1539.11 mark 0
AnchorPoint: "Anchor-1" 449.017 1883.25 basemark 0
AnchorPoint: "Anchor-1" 461.017 1539.11 mark 0
LayerCount: 2
Fore
SplineSet
373.235351562 1674.82714844 m 0
 306.380859375 1674.82714844 246.474735194 1628.03148766 195.979188846 1572.3050824 c 1
 122.162109375 1631.12207031 l 5
 186.803710938 1718.23828125 258.46484375 1771.68457031 338.674804688 1771.68457031 c 4
 415.684570312 1771.68457031 483.544921875 1719.62207031 574.038085938 1719.62207031 c 4
 627.155273438 1719.62207031 683.662109375 1739.71386719 742.963867188 1767.3515625 c 5
 791.769402689 1684.73983507 l 1
 729.992891806 1649.9732298 667.27734375 1627.77539062 600.071289062 1627.77539062 c 0
 525.342773438 1627.77539062 458.07421875 1674.82714844 373.235351562 1674.82714844 c 0
EndSplineSet
EndChar

StartChar: uni0657
Encoding: 1623 1623 57
GlifName: uni0657
Width: 0
VWidth: 2316
GlyphClass: 4
Flags: HW
AnchorPoint: "Anchor-10" 513.285 1400.55 mark 0
AnchorPoint: "Anchor-9" 513.285 1400.55 mark 0
AnchorPoint: "Anchor-1" 537.285 2069.85 basemark 0
AnchorPoint: "Anchor-1" 513.285 1400.55 mark 0
LayerCount: 2
Fore
SplineSet
275 1794.70522489 m 1
 313.495273456 1793.40577131 350.860322619 1790.63928287 393.942139454 1786.05611087 c 2
 398.692851584 1785.55071596 l 1
 402.071067812 1788.92893219 l 1
 403.071067812 1789.92893219 l 1
 403.680120592 1790.53798497 l 1
 404.176056394 1791.24221381 l 2
 500.639323123 1928.22005256 623.720602118 2004.62763269 775 2021.91192971 c 1
 775 1963.44008912 l 1
 652.351140308 1941.39902177 553.821938133 1881.77251601 478.097801988 1784.12823519 c 2
 469.10064367 1772.52663631 l 1
 483.191012468 1768.40262593 l 2
 569.085052863 1743.26290679 648 1690.38611331 648 1599 c 0
 648 1512.74449768 587.396605318 1448 501 1448 c 0
 413.439353297 1448 342 1508.43593265 342 1603 c 0
 342 1630.43754848 348.737938257 1669.62004518 364.524241472 1718.95224273 c 2
 368.390877545 1731.03548046 l 1
 355.738716855 1731.97267754 l 2
 331.722701265 1733.75164166 303.327819772 1735.61736866 275 1735.94327152 c 1
 275 1794.70522489 l 1
501 1506 m 0
 554.854846155 1506 587 1544.54692007 587 1597 c 0
 587 1667.31280652 504.97224392 1703.095672 439.316205272 1718.72806215 c 2
 431.054805507 1720.69506209 l 1
 427.775590117 1712.86138088 l 2
 409.526845118 1669.26715672 400 1634.19059597 400 1605 c 0
 400 1547.02085847 446.267415898 1506 501 1506 c 0
EndSplineSet
EndChar

StartChar: uni065A
Encoding: 1626 1626 58
GlifName: uni065A_
Width: 0
VWidth: 2316
GlyphClass: 4
Flags: HW
AnchorPoint: "Anchor-10" 573.285 1350.55 mark 0
AnchorPoint: "Anchor-9" 573.285 1350.55 mark 0
AnchorPoint: "Anchor-1" 571.012 1862.38 basemark 0
AnchorPoint: "Anchor-1" 573.285 1350.55 mark 0
LayerCount: 2
Fore
SplineSet
507.682941341 1454 m 1
 326.596521588 1758 l 1
 427.256296675 1758 l 1
 564.362210991 1522.96128974 l 1
 572.969288359 1508.20629997 l 1
 581.622111466 1522.93450951 l 1
 719.723087127 1758 l 1
 820.356788881 1758 l 1
 638.332097523 1454 l 1
 507.682941341 1454 l 1
EndSplineSet
EndChar

StartChar: uni0660
Encoding: 1632 1632 59
GlifName: afii57392
Width: 799
VWidth: 2655
GlyphClass: 2
Flags: HW
LayerCount: 2
Fore
SplineSet
217.333990335 488.99280716 m 1
 398.235360081 670.623142379 l 1
 581.581041402 488.007448274 l 1
 399.950195312 306.376602183 l 1
 217.333990335 488.99280716 l 1
EndSplineSet
EndChar

StartChar: uni0661
Encoding: 1633 1633 60
GlifName: afii57393
Width: 651
VWidth: 2950
GlyphClass: 2
Flags: HW
LayerCount: 2
Fore
SplineSet
257.904296875 1252.17871094 m 5
 383.41796875 962.303710938 447 624.767578125 447 215 c 6
 447 0 l 1
 337 0 l 1
 337 218 l 6
 337 630.743164062 277.861328125 959.051757812 159.245117188 1216.13085938 c 5
 257.904296875 1252.17871094 l 5
EndSplineSet
EndChar

StartChar: uni0662
Encoding: 1634 1634 61
GlifName: afii57394
Width: 1114
VWidth: 2950
GlyphClass: 2
Flags: HW
LayerCount: 2
Fore
SplineSet
337 218 m 6
 337 630.684570312 277.802734375 959.178710938 159.295898438 1216.02148438 c 5
 255.362304688 1250.72949219 l 5
 282.59375 1178.796875 309.352539062 1110.28613281 335.943359375 1039.37890625 c 4
 386.145507812 907.997070312 472.109375 835 624 835 c 4
 786.87109375 835 860 956.955078125 860 1120 c 4
 860 1164.13476562 853.454101562 1214.3828125 847.521484375 1253.69238281 c 5
 955.936523438 1265.88085938 l 5
 961.032226562 1223.90722656 966 1174.87207031 966 1130 c 4
 966 868.28125 846.712890625 722 626 722 c 4
 539.719726562 722 464.135742188 750.151367188 400.794921875 781.583984375 c 5
 408.298828125 728.779296875 l 6
 435.125 540.001953125 447 372.484375 447 215 c 6
 447 0 l 1
 337 0 l 1
 337 218 l 6
EndSplineSet
EndChar

StartChar: uni0663
Encoding: 1635 1635 62
GlifName: afii57395
Width: 1411
VWidth: 2950
GlyphClass: 2
Flags: HW
LayerCount: 2
Fore
SplineSet
337 218 m 6
 337 630.684570312 277.802734375 959.178710938 159.295898438 1216.02148438 c 5
 254.88671875 1250.55761719 l 5
 288.41015625 1157.12109375 321.051757812 1068.640625 353.755859375 976.887695312 c 4
 387.081054688 883.805664062 462.953125 836.106445312 565.838867188 835 c 4
 685.0703125 835 727.01171875 956.918945312 728 1130.91503906 c 4
 728 1153.63085938 728.512695312 1177.38476562 728.8046875 1200.40917969 c 5
 824.162109375 1208.45898438 l 5
 825.216796875 1183.03417969 826.317382812 1160.77148438 827.016601562 1136.98242188 c 4
 833.94921875 956.747070312 880.627929688 835 999 835 c 4
 1130.49023438 835 1158 962.577148438 1158 1064 c 4
 1158 1143.29394531 1149.64941406 1206.22949219 1141.85839844 1253.91601562 c 5
 1249.95117188 1266.70800781 l 5
 1256.265625 1215.15136719 1263 1149.83398438 1263 1070 c 4
 1263 857.284179688 1177.84960938 722 995 722 c 4
 920.994140625 722 856.18359375 750.8828125 794.77734375 822.5234375 c 6
 771.647460938 849.508789062 l 5
 748.928710938 822.17578125 l 6
 689.358398438 750.504882812 623.423828125 722 568 722 c 4
 502.04296875 722 428.375976562 754.92578125 401.78515625 782.659179688 c 5
 410.280273438 720.911132812 l 6
 436.143554688 532.905273438 447 382.681640625 447 215 c 6
 447 0 l 1
 337 0 l 1
 337 218 l 6
EndSplineSet
EndChar

StartChar: uni0664
Encoding: 1636 1636 63
GlifName: afii57396
Width: 1006
VWidth: 2950
GlyphClass: 2
Flags: HW
LayerCount: 2
Fore
SplineSet
737.776367188 614.1171875 m 5
 451.193359375 496.727539062 284 407.4609375 284 281 c 0
 284 146.041015625 472.741210938 120 704 120 c 2
 866.331054688 120 l 1
 867.665039062 -0 l 1
 697.080078125 -0 l 2
 323.995117188 1 161 99.1513671875 161 277 c 0
 161 409.405273438 284.573242188 516.205078125 541.213867188 630.598632812 c 6
 625.484375 668.161132812 l 5
 535.237304688 687.344726562 l 6
 334.435546875 730.02734375 244 816.204101562 244 963 c 4
 244 1147.05273438 424.389648438 1256.078125 656.189453125 1259 c 4
 689.919921875 1259 728.129882812 1257.06152344 765.974609375 1253.35742188 c 5
 757.334960938 1135.06640625 l 5
 734.411132812 1137.0703125 714.311523438 1138 694 1138 c 4
 505.088867188 1138 379 1083.10742188 379 946 c 4
 379 822.427734375 523.849609375 769.0625 736.30078125 747.622070312 c 5
 737.776367188 614.1171875 l 5
EndSplineSet
EndChar

StartChar: uni0665
Encoding: 1637 1637 64
GlifName: afii57397
Width: 1177
VWidth: 2950
GlyphClass: 2
Flags: HW
LayerCount: 2
Fore
SplineSet
540.060546875 969.461914062 m 6
 356.744140625 772.905273438 259 581.353515625 259 438 c 0
 259 267.778320312 370.6484375 118 595 118 c 0
 805.5703125 118 919 269.619140625 919 445 c 0
 919 613.37890625 790.8828125 805.12890625 580.685546875 972.470703125 c 6
 558.981445312 989.749023438 l 5
 540.060546875 969.461914062 l 6
476.938476562 1217.03613281 m 5
 854.353515625 942.698242188 1031 722.122070312 1031 422 c 0
 1031 183.400390625 872.212890625 0 591 0 c 0
 292.098632812 0 147 188.6328125 147 421 c 0
 147 634.825195312 247.840820312 815.876953125 441.749023438 1041.44335938 c 6
 462.313476562 1065.36523438 l 5
 437.389648438 1084.70214844 l 5
 402.143554688 1112.04882812 l 5
 476.938476562 1217.03613281 l 5
EndSplineSet
EndChar

StartChar: uni0666
Encoding: 1638 1638 65
GlifName: afii57398
Width: 1175
VWidth: 2950
GlyphClass: 2
Flags: HW
LayerCount: 2
Fore
SplineSet
859.637695312 0 m 1
 782.359375 325.002929688 740.778320312 651.561523438 732.994140625 1046.59082031 c 2
 732.234375 1085.12890625 l 1
 695.063476562 1074.93066406 l 2
 584.3984375 1044.57128906 515.078125 1039 404 1039 c 0
 282.012695312 1039 229.989257812 1051.9140625 123 1099.40332031 c 1
 123 1230.68359375 l 1
 232.563476562 1183.43164062 311.702148438 1166 450 1166 c 0
 586.80078125 1166 698.840820312 1185.66699219 834.685546875 1235.66503906 c 1
 844.30078125 701.7265625 891.72265625 312.819335938 980.033203125 -0 c 1
 859.637695312 0 l 1
EndSplineSet
EndChar

StartChar: uni0667
Encoding: 1639 1639 66
GlifName: afii57399
Width: 1246
VWidth: 2950
GlyphClass: 2
Flags: HW
LayerCount: 2
Fore
SplineSet
567.129882812 0 m 1
 478.40625 490.87109375 324.033203125 904.427734375 142.662109375 1193.99804688 c 5
 243.6953125 1248.75195312 l 5
 409.9609375 958.063476562 546.1484375 590.46484375 624.422851562 134.052734375 c 1
 700.591796875 591.069335938 836.653320312 959.133789062 1002.3046875 1248.75195312 c 5
 1103.33984375 1193.99707031 l 5
 921.280273438 903.224609375 768.188476562 488.795898438 679.869140625 -0 c 1
 567.129882812 0 l 1
EndSplineSet
EndChar

StartChar: uni0668
Encoding: 1640 1640 67
GlifName: afii57400
Width: 1246
VWidth: 2950
GlyphClass: 2
Flags: HW
LayerCount: 2
Fore
SplineSet
567.129882812 1245 m 5
 679.869140625 1245 l 5
 768.563476562 754.131835938 921.9765625 340.663085938 1103.33984375 51.0029296875 c 1
 1002.3046875 -3.751953125 l 1
 835.803511098 287.352517503 700.665039062 663.490234375 624.422851562 1120.94726562 c 5
 546.2265625 664.990234375 409.102741326 285.436393188 243.6953125 -3.751953125 c 1
 142.662109375 51.001953125 l 1
 324.73046875 341.685546875 478.780273438 756.198242188 567.129882812 1245 c 5
EndSplineSet
EndChar

StartChar: uni0669
Encoding: 1641 1641 68
GlifName: afii57401
Width: 1026
GlyphClass: 2
Flags: HW
LayerCount: 2
Fore
SplineSet
137 900 m 4
 137 1078.01171875 280.76171875 1256 462 1256 c 4
 703.53125 1256 769.501953125 1079.14941406 784.037109375 798.51171875 c 4
 798.73828125 502.569335938 809.5078125 245.931640625 816.19140625 -0 c 1
 708.217773438 0 l 1
 704.017578125 157.452148438 694.325195312 484.922851562 690.990234375 612.782226562 c 6
 689.966796875 652.010742188 l 5
 652.379882812 640.734375 l 6
 621.075195312 631.342773438 561.345703125 617 483 617 c 4
 241.756835938 617 137 694.423828125 137 900 c 4
461 1145 m 4
 332.9609375 1145 243 1018.38769531 243 900 c 4
 243 783.439453125 325.063476562 727 486 727 c 4
 542.01171875 727 618.774414062 742.2109375 655.620117188 753.265625 c 6
 678.397460938 760.098632812 l 5
 676.944335938 783.833984375 l 6
 670.12890625 895.126953125 663.59375 999.165039062 615.287109375 1069.91601562 c 4
 583.077148438 1117.09179688 531.53125 1145 461 1145 c 4
EndSplineSet
EndChar

StartChar: uni066A
Encoding: 1642 1642 69
GlifName: afii57381
Width: 1033
VWidth: 4036
GlyphClass: 2
Flags: HW
LayerCount: 2
Fore
SplineSet
757 1282 m 1
 834 1247 l 1
 277 15 l 1
 200 50 l 1
 757 1282 l 1
667 163 m 0
 667 220 714 267 770 267 c 0
 826 267 873 220 873 163 c 0
 873 107 826 60 770 60 c 0
 712 60 667 104 667 163 c 0
160 1129 m 0
 160 1186 207 1233 263 1233 c 0
 319 1233 366 1186 366 1129 c 0
 366 1073 319 1026 263 1026 c 0
 205 1026 160 1070 160 1129 c 0
EndSplineSet
EndChar

StartChar: uni066B
Encoding: 1643 1643 70
GlifName: uni066B_
Width: 772
VWidth: 2920
GlyphClass: 2
Flags: HW
LayerCount: 2
Fore
SplineSet
549.604492188 643.765625 m 1
 621.470703125 613.208007812 l 1
 183.368164062 -398.6015625 l 1
 108.556640625 -366.375 l 1
 549.604492188 643.765625 l 1
EndSplineSet
PairPos2: "'kern' Horizontal Kerning lookup 4 subtable 1" uni06F2 dx=-130 dy=0 dh=-130 dv=0 dx=0 dy=0 dh=0 dv=0
PairPos2: "'kern' Horizontal Kerning lookup 4 subtable 1" uni06F3 dx=-130 dy=0 dh=-130 dv=0 dx=0 dy=0 dh=0 dv=0
PairPos2: "'kern' Horizontal Kerning lookup 4 subtable 1" uni06F4 dx=-110 dy=0 dh=-110 dv=0 dx=0 dy=0 dh=0 dv=0
EndChar

StartChar: uni066C
Encoding: 1644 1644 71
GlifName: uni066C_
Width: 560
GlyphClass: 2
Flags: HW
LayerCount: 2
Fore
SplineSet
176.653944508 -261.337249504 m 1
 123.905517505 -221.359494301 l 1
 179.903355207 -135.614736324 214.337396376 -40.9461241755 217 51.5683835077 c 2
 217 189 l 1
 328 189 l 1
 328 74 l 2
 328 -56.4427651366 253.035402952 -189.518137527 176.653944508 -261.337249504 c 1
EndSplineSet
EndChar

StartChar: uni066D
Encoding: 1645 1645 72
GlifName: afii63167
Width: 1436
VWidth: 2918
GlyphClass: 2
Flags: HW
LayerCount: 2
Fore
SplineSet
242.620117188 979 m 1
 583 979 l 1
 604.72265625 979 l 1
 611.501953125 999.637695312 l 1
 718 1323.86621094 l 1
 824.498046875 999.637695312 l 1
 831.27734375 979 l 1
 853 979 l 1
 1193.37988281 979 l 1
 918.255859375 777.190429688 l 1
 900.733398438 764.336914062 l 1
 907.484375 743.680664062 l 1
 1012.875 421.215820312 l 1
 735.5546875 621.328125 l 1
 718 633.995117188 l 1
 700.4453125 621.328125 l 1
 423.125 421.215820312 l 1
 528.515625 743.680664062 l 1
 535.266601562 764.336914062 l 1
 517.744140625 777.190429688 l 1
 242.620117188 979 l 1
EndSplineSet
EndChar

StartChar: uni066E
Encoding: 1646 1646 73
GlifName: uni066E_
Width: 1777
VWidth: 2920
GlyphClass: 2
Flags: HW
AnchorPoint: "Anchor-10" 973.36 1383.35 basechar 0
AnchorPoint: "Anchor-7" 923.36 -289.261 basechar 0
LayerCount: 2
Fore
SplineSet
975 0 m 6
 840 0 l 2
 365.087890625 0 128 156.538085938 128 454 c 0
 128 528.747070312 143.16015625 602.15234375 168.837890625 669.712890625 c 1
 267.112304688 633.100585938 l 1
 250.8671875 581.138671875 243 531.252929688 243 478.931640625 c 0
 244.119140625 232.771484375 459.916992188 120 830 120 c 2
 968 120 l 6
 1232.05859375 120 1536 116.563476562 1536 418 c 4
 1536 475.819335938 1524.60742188 556.19921875 1505.54003906 645.961914062 c 5
 1609.90039062 672.051757812 l 5
 1636.45214844 584.068359375 1649 502.177734375 1649 433 c 4
 1649 55.458984375 1387.36230469 0 975 0 c 6
EndSplineSet
Substitution2: "'fina' Terminal Forms in Arabic lookup 1 subtable" uni066E.fina
EndChar

StartChar: uni066F
Encoding: 1647 1647 74
GlifName: uni066F_
Width: 1437
VWidth: 2920
GlyphClass: 2
Flags: HW
AnchorPoint: "Anchor-10" 115.809 1330.22 basechar 0
AnchorPoint: "Anchor-7" 329.219 -793.353 basechar 0
LayerCount: 2
Fore
SplineSet
1192.79101562 249.53125 m 2
 1177.40234375 379.379882812 1131.89453125 584 971 584 c 0
 864.02734375 584 781 472.525390625 781 346 c 0
 781 240.1484375 864.385742188 189 987 189 c 0
 1049.39941406 189 1111.22753906 199.563476562 1171.43847656 217.2109375 c 2
 1195.77636719 224.344726562 l 1
 1192.79101562 249.53125 l 2
304.858398438 435.119140625 m 1
 262.118164062 314.66796875 240 202.059570312 240 91 c 0
 240 -196.465820312 407.311523438 -347 725 -347 c 0
 1073.62597656 -347 1205.77050781 -186.649414062 1209.99609375 78.5224609375 c 2
 1210.64453125 119.212890625 l 1
 1171.58300781 107.794921875 l 2
 1108.93261719 89.4814453125 1045.12597656 79 971 79 c 0
 770.196289062 79 681 158.259765625 681 319 c 0
 681 513.635742188 796.020507812 699 978 699 c 0
 1216.63574219 699 1309 430.096679688 1309 126 c 0
 1309 -275.59375 1136.95996094 -460 721 -460 c 0
 314.328125 -460 128 -282.234375 128 86 c 0
 128 212.734375 153.965820312 344.143554688 204.693359375 475.83203125 c 1
 304.858398438 435.119140625 l 1
EndSplineSet
Substitution2: "'fina' Terminal Forms in Arabic lookup 1 subtable" uni066F.fina
EndChar

StartChar: uni0670
Encoding: 1648 1648 75
GlifName: uni0670
Width: 0
VWidth: 2574
GlyphClass: 4
Flags: HW
AnchorPoint: "Anchor-10" 636.984 1500.61 mark 0
AnchorPoint: "Anchor-9" 636.984 1500.61 mark 0
AnchorPoint: "Anchor-1" 636.984 1957.18 basemark 0
AnchorPoint: "Anchor-1" 636.984 1500.61 mark 0
LayerCount: 2
Fore
SplineSet
603 1578 m 1
 603 1920 l 1
 671 1920 l 1
 671 1578 l 1
 603 1578 l 1
EndSplineSet
EndChar

StartChar: uni0674
Encoding: 1652 1652 76
GlifName: uni0674
Width: 551
VWidth: 2539
GlyphClass: 2
Flags: HW
LayerCount: 2
Fore
SplineSet
195.533051264 1981.04297421 m 2
 149.338043528 2018.47450889 131 2061.0444531 131 2133 c 0
 131 2252.59494181 219.108539585 2326 317 2326 c 0
 359.469507115 2326 402.228116562 2312.5765839 438.085955228 2291.72028675 c 1
 438.736229861 2206.48052765 l 1
 402.445666961 2224.43656671 367.751411487 2233 331 2233 c 0
 274.83230841 2233 216 2200.22993257 216 2119.74995314 c 0
 217.274365202 2068.79604774 248.115313848 2031.70617493 314.35712457 2007.13234643 c 0
 321.903375872 2004.61654324 329.46540228 2002.1953125 338.90234375 2002.1953125 c 0
 342.778763878 2002.1953125 346.412634213 2002.79494365 350.389056071 2003.66843962 c 0
 387.56319907 2010.79824977 428.526510179 2019.3177986 465 2026.64206344 c 1
 465 1940.75607864 l 1
 98 1852.38752827 l 1
 98 1934.02797758 l 1
 189.407554243 1954.76024145 l 1
 209.493067601 1959.31586233 l 1
 219.535824281 1961.59367277 l 1
 211.534899941 1968.07677325 l 1
 195.533051264 1981.04297421 l 2
EndSplineSet
EndChar

StartChar: uni06A1
Encoding: 1697 1697 80
GlifName: uni06A_1
Width: 1781
VWidth: 2920
GlyphClass: 2
Flags: HW
AnchorPoint: "Anchor-10" 637.853 1598.62 basechar 0
AnchorPoint: "Anchor-7" 620.182 -384.248 basechar 0
LayerCount: 2
Fore
SplineSet
1520.078125 388.642578125 m 6
 1462.265625 370.635742188 1397.22753906 361 1328 361 c 4
 1121.1875 361 1032 439.953125 1032 608 c 4
 1032 806.853515625 1149.10449219 981 1328 981 c 4
 1550.20117188 981 1653 724.709960938 1653 431.078125 c 4
 1651.09277344 66.8212890625 1518.09570312 0 1127 0 c 6
 837 0 l 2
 354.322265625 0 128 156.036132812 128 454 c 0
 128 528.747070312 143.16015625 602.15234375 168.837890625 669.712890625 c 1
 267.112304688 633.100585938 l 1
 250.876953125 581.171875 243 531.173828125 243 479 c 0
 243 232.038085938 472.366210938 120 833 120 c 2
 1148 120 l 6
 1395.28417969 120 1559 160.103515625 1559 360 c 6
 1559 400.765625 l 5
 1520.078125 388.642578125 l 6
1543.7578125 531.803710938 m 6
 1527.45507812 659.3515625 1481.98632812 865 1322 865 c 4
 1215.30078125 865 1132 755.602539062 1132 627 c 4
 1132 520.885742188 1215.80273438 471 1339 471 c 4
 1400.46679688 471 1461.3046875 481.595703125 1522.30566406 499.172851562 c 6
 1547.01855469 506.29296875 l 5
 1543.7578125 531.803710938 l 6
EndSplineSet
Substitution2: "'init' Initial Forms in Arabic lookup 3 subtable" uni06A1.init
Substitution2: "'medi' Medial Forms in Arabic lookup 2 subtable" uni06A1.medi
Substitution2: "'fina' Terminal Forms in Arabic lookup 1 subtable" uni06A1.fina
EndChar

StartChar: uni06A9
Encoding: 1705 1705 81
GlifName: uni06A_9
Width: 1865
VWidth: 2920
GlyphClass: 2
Flags: HW
AnchorPoint: "Anchor-7" 900.268 -256.468 basechar 0
AnchorPoint: "Anchor-10" 1193.88 1314.67 basechar 0
LayerCount: 2
Fore
SplineSet
267.112304688 633.100585938 m 1
 250.8671875 581.138671875 243 531.252929688 243 478.931640625 c 0
 244.119140625 232.771484375 459.916992188 120 830 120 c 2
 1030 120 l 2
 1314.88378906 120 1496 181.80078125 1496 342 c 0
 1496 420.057617188 1455.8515625 481.743164062 1382.51367188 550.890625 c 4
 1279.86621094 646.494140625 1187.62402344 716.731445312 1106.47851562 780.633789062 c 0
 1034.06933594 836.845703125 1005 889.576171875 1005 942 c 0
 1005 1013.29785156 1040.88378906 1062.140625 1125.6328125 1094.94726562 c 2
 1775 1335.87109375 l 1
 1775 1228.88085938 l 1
 1119.58105469 986.1328125 l 1
 1071.19921875 968.212890625 l 1
 1110.70410156 935.029296875 l 2
 1285.11621094 788.5234375 1416.80273438 678.663085938 1492.93066406 596.678710938 c 4
 1572.796875 509.206054688 1612 425.651367188 1612 325 c 0
 1612 112.481445312 1435.4375 0 1031 0 c 2
 840 0 l 2
 365.087890625 0 128 156.538085938 128 454 c 0
 128 528.747070312 143.16015625 602.15234375 168.837890625 669.712890625 c 1
 267.112304688 633.100585938 l 1
EndSplineSet
Position2: "Single Positioning lookup 2 subtable" dx=0 dy=0 dh=-226 dv=0
Position2: "Single Positioning lookup 1 subtable" dx=0 dy=0 dh=-219 dv=0
Position2: "Single Positioning lookup 0 subtable" dx=0 dy=0 dh=180 dv=0
Substitution2: "'init' Initial Forms in Arabic lookup 3 subtable" uniFB90
Substitution2: "'medi' Medial Forms in Arabic lookup 2 subtable" uniFB91
Substitution2: "'fina' Terminal Forms in Arabic lookup 1 subtable" uniFB8F
EndChar

StartChar: uni06BA
Encoding: 1722 1722 83
GlifName: afii57514
Width: 1447
VWidth: 2920
GlyphClass: 2
Flags: HW
LayerCount: 2
Fore
SplineSet
1128.15039062 491.405273438 m 1
 1238.31835938 529.213867188 l 1
 1292.67285156 382.640625 1319 244.674804688 1319 110 c 0
 1319 -259.03125 1094.37207031 -450 721 -450 c 0
 317.341796875 -450 128 -271.096679688 128 96 c 0
 128 222.734375 153.965820312 354.143554688 204.693359375 485.83203125 c 1
 304.858398438 445.119140625 l 1
 262.118164062 324.66796875 240 212.059570312 240 101 c 0
 240 -186.8125 411.516601562 -337 728 -337 c 0
 1039.10546875 -337 1205.95214844 -171.325195312 1207 139.94921875 c 0
 1207 257.8671875 1179.44335938 375.321289062 1128.15039062 491.405273438 c 1
EndSplineSet
Substitution2: "'fina' Terminal Forms in Arabic lookup 1 subtable" uniFB9F
EndChar

StartChar: uni06F0
Encoding: 1776 1776 86
GlifName: uni06F_0
Width: 902
VWidth: 2655
GlyphClass: 2
Flags: HW
LayerCount: 2
Fore
SplineSet
173.580078125 463 m 4
 173.580078125 615.290039062 298.709960938 740.419921875 451 740.419921875 c 4
 603.290039062 740.419921875 728.419921875 615.290039062 728.419921875 463 c 4
 728.419921875 310.709960938 603.290039062 185.580078125 451 185.580078125 c 4
 298.709960938 185.580078125 173.580078125 310.709960938 173.580078125 463 c 4
269 463 m 4
 269 363 350 280 451 280 c 4
 552 280 633 363 633 463 c 4
 633 564 551 644 451 644 c 4
 351 644 269 564 269 463 c 4
EndSplineSet
PairPos2: "'kern' Horizontal Kerning lookup 4 subtable 1" uni06F2 dx=-100 dy=0 dh=-100 dv=0 dx=0 dy=0 dh=0 dv=0
PairPos2: "'kern' Horizontal Kerning lookup 4 subtable 1" uni06F3 dx=-100 dy=0 dh=-100 dv=0 dx=0 dy=0 dh=0 dv=0
PairPos2: "'kern' Horizontal Kerning lookup 4 subtable 1" uni06F4 dx=-10 dy=0 dh=-10 dv=0 dx=0 dy=0 dh=0 dv=0
PairPos2: "'kern' Horizontal Kerning lookup 4 subtable 1" uni06F7 dx=-100 dy=0 dh=-100 dv=0 dx=0 dy=0 dh=0 dv=0
PairPos2: "'kern' Horizontal Kerning lookup 4 subtable 1" uni06F8 dx=-46 dy=0 dh=-46 dv=0 dx=0 dy=0 dh=0 dv=0
PairPos2: "'kern' Horizontal Kerning lookup 4 subtable 1" uni06F6 dx=-20 dy=0 dh=-20 dv=0 dx=0 dy=0 dh=0 dv=0
EndChar

StartChar: uni06F4
Encoding: 1780 1780 90
GlifName: uni06F_4
Width: 1193
VWidth: 2950
GlyphClass: 2
Flags: HW
LayerCount: 2
Fore
SplineSet
317.694335938 1073.05957031 m 6
 255.662109375 1250.54296875 l 1
 159.32421875 1215.95996094 l 1
 278.294921875 957.71484375 337 630.657226562 337 218 c 2
 337 0 l 1
 447 0 l 1
 447 215 l 2
 447 352.177734375 435 532 408.918945312 734.392578125 c 6
 400.694335938 799.059570312 l 5
 505.557617188 700.513671875 600.830078125 634.059570312 824.694335938 634.059570312 c 4
 904.444335938 634.059570312 973.5625 651.063476562 1047.91796875 681.690429688 c 5
 1033.02050781 792.451171875 l 5
 962.693359375 766.729492188 887.0390625 747.059570312 803.694335938 747.059570312 c 4
 738.032226562 747.059570312 684.897460938 755.508789062 640.869140625 770.770507812 c 4
 585.71875 789.88671875 556.141601562 816.686523438 563.703125 893.98046875 c 4
 576.029296875 1019.97265625 660.96875 1146.46679688 811.728515625 1146.46679688 c 4
 886.321289062 1146.46679688 933.670898438 1129.71972656 968.083984375 1113.16601562 c 5
 1004.55957031 1213.47265625 l 5
 974.287109375 1232.25097656 904.919921875 1267.05957031 800.694335938 1267.05957031 c 4
 595.275390625 1267.05957031 475.108398438 1073.04980469 470.66796875 891.797851562 c 6
 469.694335938 852.059570312 l 5
 442.694335938 870.059570312 l 6
 398.848632812 899.290039062 366 934 317.694335938 1073.05957031 c 6
EndSplineSet
Substitution2: "'locl' Localized Forms in Arabic lookup 10 subtable" uni06F4.urdu
PairPos2: "'kern' Horizontal Kerning lookup 4 subtable 1" uni06F0 dx=-64 dy=0 dh=-64 dv=0 dx=0 dy=0 dh=0 dv=0
PairPos2: "'kern' Horizontal Kerning lookup 4 subtable 1" uni06F5 dx=-40 dy=0 dh=-40 dv=0 dx=0 dy=0 dh=0 dv=0
PairPos2: "'kern' Horizontal Kerning lookup 4 subtable 1" uni06F8 dx=-64 dy=0 dh=-64 dv=0 dx=0 dy=0 dh=0 dv=0
PairPos2: "'kern' Horizontal Kerning lookup 4 subtable 1" uni06F1 dx=-64 dy=0 dh=-64 dv=0 dx=0 dy=0 dh=0 dv=0
PairPos2: "'kern' Horizontal Kerning lookup 4 subtable 1" uni06F9 dx=-64 dy=0 dh=-64 dv=0 dx=0 dy=0 dh=0 dv=0
EndChar

StartChar: uni06F5
Encoding: 1781 1781 91
GlifName: uni06F_5
Width: 1246
VWidth: 2950
GlyphClass: 2
Flags: HW
LayerCount: 2
Fore
SplineSet
396 110 m 0
 506 110 551 191 586 367 c 1
 660 367 l 1
 693 187 744 110 854 110 c 0
 947 110 996 190 996 294 c 0
 996 509 891 737 639 1001 c 6
 614 1026 l 5
 593 998 l 6
 363 694 250 478 250 294 c 0
 250 190 309 110 396 110 c 0
539 1258 m 5
 939 880 1100 583 1100 295 c 0
 1100 82 1012 0 854 0 c 0
 717.461954329 0 661.174804688 101.416992188 622 232 c 1
 585.161132812 99.1171875 543.27978968 0 397 0 c 0
 245 0 146 90 146 295 c 0
 146 543 314 808 515 1082 c 6
 531 1103 l 5
 512 1121 l 5
 470 1163 l 5
 539 1258 l 5
EndSplineSet
PairPos2: "'kern' Horizontal Kerning lookup 4 subtable 1" uni06F2 dx=-100 dy=0 dh=-100 dv=0 dx=0 dy=0 dh=0 dv=0
PairPos2: "'kern' Horizontal Kerning lookup 4 subtable 1" uni06F3 dx=-100 dy=0 dh=-100 dv=0 dx=0 dy=0 dh=0 dv=0
PairPos2: "'kern' Horizontal Kerning lookup 4 subtable 1" uni06F4 dx=-42 dy=0 dh=-42 dv=0 dx=0 dy=0 dh=0 dv=0
PairPos2: "'kern' Horizontal Kerning lookup 4 subtable 1" uni06F6 dx=-42 dy=0 dh=-42 dv=0 dx=0 dy=0 dh=0 dv=0
PairPos2: "'kern' Horizontal Kerning lookup 4 subtable 1" uni06F7 dx=-100 dy=0 dh=-100 dv=0 dx=0 dy=0 dh=0 dv=0
PairPos2: "'kern' Horizontal Kerning lookup 4 subtable 1" uni06F8 dx=-38 dy=0 dh=-38 dv=0 dx=0 dy=0 dh=0 dv=0
EndChar

StartChar: uni06F6
Encoding: 1782 1782 92
GlifName: uni06F_6
Width: 1009
VWidth: 2950
GlyphClass: 2
Flags: HW
LayerCount: 2
Fore
SplineSet
871.056640625 695.223632812 m 1
 594.622070312 559.977539062 418.190429688 326.512695312 268.1875 -28.0224609375 c 1
 166.772460938 17.484375 l 5
 264.786132812 243.416992188 369.875976562 403.981445312 502.858398438 545.453125 c 2
 542.037109375 587.130859375 l 1
 485.475585938 595.6640625 l 2
 262.729492188 629.268554688 163 751.6328125 163 879 c 0
 163 1069.484375 304.340820312 1260 528 1260 c 0
 584.337890625 1260 648.572265625 1253.69433594 721.834960938 1211.70898438 c 1
 682.872070312 1113.65332031 l 1
 618.083984375 1141.24023438 572.018554688 1143 535 1143 c 0
 393.307617188 1143 277 1007.57128906 277 886 c 0
 277 784.946289062 381.2734375 698.291015625 621.48828125 678.10546875 c 0
 628.291992188 677.533203125 642.478515625 682.263671875 646.322265625 684.826171875 c 0
 726.627929688 735.454101562 767.974609375 760.768554688 841.227539062 798.036132812 c 1
 871.056640625 695.223632812 l 1
EndSplineSet
Substitution2: "'locl' Localized Forms in Arabic lookup 10 subtable" uni0666
PairPos2: "'kern' Horizontal Kerning lookup 4 subtable 1" uni06F7 dx=-40 dy=0 dh=-40 dv=0 dx=0 dy=0 dh=0 dv=0
PairPos2: "'kern' Horizontal Kerning lookup 4 subtable 1" uni06F8 dx=-40 dy=0 dh=-40 dv=0 dx=0 dy=0 dh=0 dv=0
PairPos2: "'kern' Horizontal Kerning lookup 4 subtable 1" uni06F9 dx=-30 dy=0 dh=-30 dv=0 dx=0 dy=0 dh=0 dv=0
EndChar

StartChar: uniFB8F
Encoding: 64399 64399 107
GlifName: uniF_B_8F_
Width: 1941
VWidth: 2920
GlyphClass: 2
Flags: HW
AnchorPoint: "Anchor-10" 1193.88 1314.67 basechar 0
AnchorPoint: "Anchor-7" 900.268 -256.468 basechar 0
LayerCount: 2
Fore
SplineSet
267.112304688 633.100585938 m 1
 250.8671875 581.138671875 243 531.252929688 243 478.931640625 c 0
 244.118164062 232.8671875 458.83203125 120 828 120 c 2
 1030 120 l 2
 1314.95800781 120 1496 181.90234375 1496 343 c 0
 1496 420.620117188 1453.67578125 482.912109375 1381.52441406 550.880859375 c 4
 1275.03710938 650.3359375 1183.62402344 720.744140625 1106.39648438 780.697265625 c 0
 1034.14746094 836.786132812 1005 889.599609375 1005 942 c 0
 1005 1013.48828125 1041.10351562 1063.16992188 1124.55175781 1094.91699219 c 2
 1774 1335.87109375 l 1
 1774 1228.88085938 l 1
 1118.58105469 986.1328125 l 1
 1070.296875 968.25 l 1
 1109.6640625 935.063476562 l 2
 1281.328125 790.345703125 1414.77050781 681.677734375 1492.97949219 596.625 c 4
 1543.41992188 542.44921875 1582.66503906 481.353515625 1614.73730469 391.938476562 c 0
 1675.54394531 219.82421875 1781.1953125 122.094726562 1929 120.022460938 c 1
 1961 120.022460938 l 1
 1961 0 l 1
 1929 0.015625 l 1
 1793.28417969 1.359375 1691.33886719 57.4423828125 1607.87695312 167.163085938 c 2
 1582.33789062 200.737304688 l 1
 1559.00585938 165.592773438 l 2
 1489.59667969 61.0390625 1324.06738281 0 1030 0 c 2
 838 0 l 2
 364.15234375 0 128 156.466796875 128 454 c 0
 128 528.747070312 143.16015625 602.15234375 168.837890625 669.712890625 c 1
 267.112304688 633.100585938 l 1
EndSplineSet
EndChar

StartChar: uniFB9F
Encoding: 64415 64415 115
GlifName: uniF_B_9F_
Width: 1528
VWidth: 2920
GlyphClass: 2
Flags: HW
AnchorPoint: "Anchor-10" 687.458 1334.61 basechar 0
AnchorPoint: "Anchor-7" 579.902 -832.086 basechar 0
LayerCount: 2
Fore
SplineSet
1207 69.94921875 m 0
 1207 187.81640625 1179.01757812 305.298828125 1127.85351562 421.338867188 c 1
 1236.51757812 459.026367188 l 1
 1299.546875 262.171875 l 2
 1329.0546875 171.376953125 1393.9453125 120.677734375 1506 120.00390625 c 1
 1548 120.00390625 l 5
 1548 0 l 5
 1506 0.037109375 l 1
 1397.0703125 1.50390625 1367.06347656 36.337890625 1313.03808594 86.619140625 c 1
 1312.03613281 29.0947265625 l 2
 1306.69140625 -331.369140625 1084.74804688 -520 721 -520 c 0
 317.131835938 -520 127.99609375 -341.971679688 127.99609375 26.2255859375 c 0
 127.99609375 153.01953125 154.178710938 284.930664062 204.751953125 416.171875 c 1
 305.208007812 375.10546875 l 1
 262.09765625 254.887695312 240 141.875 240 31 c 0
 240 -257.961914062 411.837890625 -407 728 -407 c 0
 1038.97753906 -407 1205.94824219 -242.223632812 1207 69.94921875 c 0
EndSplineSet
EndChar

StartChar: uniFBE8
Encoding: 64488 64488 118
GlifName: uniF_B_E_8
Width: 672
VWidth: 2920
GlyphClass: 2
Flags: HW
AnchorPoint: "Anchor-10" 311.384 1321 basechar 0
AnchorPoint: "Anchor-7" 303.422 -255.625 basechar 0
LayerCount: 2
Fore
SplineSet
505.033203125 671.834960938 m 1
 530.416992188 576.455078125 544 471.32421875 544 386 c 0
 544 106.466796875 421.512695312 0 129 0 c 2
 -20 0 l 5
 -20 120 l 5
 129 120 l 2
 332.23828125 120 433 171.794921875 433 383 c 0
 433 456.395507812 421.24609375 555.987304688 401.807617188 646.028320312 c 1
 505.033203125 671.834960938 l 1
EndSplineSet
EndChar

StartChar: uniFBE9
Encoding: 64489 64489 119
GlifName: uniF_B_E_9
Width: 767
VWidth: 2950
GlyphClass: 2
Flags: HW
AnchorPoint: "Anchor-10" 315.665 1265.09 basechar 0
AnchorPoint: "Anchor-7" 380.537 -209.742 basechar 0
LayerCount: 2
Fore
SplineSet
756 0.0439453125 m 1
 628.643554688 1.869140625 564.350737918 44.4010029316 519.369140625 127.306640625 c 2
 496.5078125 169.442382812 l 1
 468.60546875 130.461914062 l 2
 408.689453125 46.755859375 292.153320312 0 129 0 c 2
 -20 0 l 1
 -20 120 l 1
 131 120 l 2
 334.809570312 120 431.8828125 178.078125 433 356.90625 c 0
 433 413.596679688 430.127929688 477.122070312 426.755859375 532.478515625 c 1
 531.102539062 544.567382812 l 1
 545.065429688 329.020507812 l 2
 553.531827477 198.323674689 626.3046875 123.5078125 756 120.100585938 c 1
 787 120.100585938 l 5
 787 0.0439453125 l 5
 756 0.0439453125 l 1
EndSplineSet
EndChar

StartChar: uniFE73
Encoding: 65139 65139 127
GlifName: uniF_E_73
Width: 672
VWidth: 2920
GlyphClass: 2
Flags: HW
AnchorPoint: "Anchor-10" 342.943 980.47 basechar 0
AnchorPoint: "Anchor-7" 416.943 -238.304 basechar 0
LayerCount: 2
Fore
SplineSet
268.372070312 388.69140625 m 1
 271.034179688 208.434570312 400.517578125 120.342773438 618.00390625 120.342773438 c 2
 691.674804688 120.342773438 l 5
 691.674804688 1.5537109375 l 5
 608.036132812 1.5537109375 l 2
 289.373046875 1.8388671875 144.669921875 129.434570312 141.58984375 388.69140625 c 1
 268.372070312 388.69140625 l 1
EndSplineSet
EndChar

StartChar: uniFE8E
Encoding: 65166 65166 153
GlifName: uniF_E_8E_
Width: 527
VWidth: 2920
GlyphClass: 2
Flags: HW
AnchorPoint: "Anchor-10" 230.697 1471.11 basechar 0
AnchorPoint: "Anchor-7" 292.078 -271.903 basechar 0
LayerCount: 2
Fore
SplineSet
516 0.0244140625 m 1
 290.182617188 2.021484375 178 101.364257812 178 375 c 2
 178 1306 l 5
 287 1306 l 5
 287 374 l 2
 287 194.326171875 373.919921875 122.037109375 516 120.03515625 c 1
 547 120.03515625 l 1
 547 0.0244140625 l 1
 516 0.0244140625 l 1
EndSplineSet
EndChar

StartChar: uniFEA2
Encoding: 65186 65186 173
GlifName: uniF_E_A_2
Width: 1378
VWidth: 2920
GlyphClass: 2
Flags: HW
AnchorPoint: "Anchor-7" 690.833 -860.619 basechar 0
AnchorPoint: "Anchor-10" 601.478 1146.07 basechar 0
LayerCount: 2
Fore
SplineSet
1213.81542969 -593.733398438 m 1
 1088.32421875 -649.471679688 949.0234375 -677 784 -677 c 0
 385.791992188 -677 129 -519.504882812 129 -181 c 0
 129 121.1875 367.921875 384.375976562 842.559570312 490.725585938 c 2
 937.0390625 511.895507812 l 1
 847.141601562 547.854492188 l 2
 822.075195312 557.880859375 812.569335938 561.680664062 756.26953125 584.802734375 c 0
 621.094726562 638.873046875 536.266601562 676 477 676 c 0
 387.983398438 676 305.051757812 619.294921875 252.212890625 550.28125 c 2
 240.2890625 534.823242188 l 1
 140.002929688 584.634765625 l 1
 220.159179688 713.901367188 340.44921875 794 478 794 c 0
 552.979492188 794 650.915039062 757.521484375 767.897460938 701.012695312 c 0
 958.622070312 607.954101562 1083.7734375 562.23828125 1195.90625 550.443359375 c 1
 1192.98730469 511.8671875 1189.77050781 473.47265625 1186.953125 435.944335938 c 1
 1125.12988281 430.856445312 1069.79589844 423.787109375 1016.09863281 416.745117188 c 2
 989.860351562 413.303710938 l 1
 990 386.840820312 l 2
 991.09375 180.116210938 1100.02050781 120 1300 120 c 2
 1398 120 l 5
 1398 0 l 5
 1303 0 l 2
 1016.27636719 0 900.943359375 81.6640625 900 357.102539062 c 2
 899.865234375 396.489257812 l 1
 861.9296875 385.89453125 l 2
 457.279296875 272.875 235 65.8212890625 235 -165 c 0
 235 -435.467773438 437.3046875 -566 798 -566 c 0
 934.013671875 -566 1066.953125 -536.872070312 1191.15917969 -483.688476562 c 1
 1213.81542969 -593.733398438 l 1
EndSplineSet
EndChar

StartChar: uniFEA3
Encoding: 65187 65187 174
GlifName: uniF_E_A_3
Width: 1334
VWidth: 2950
GlyphClass: 2
Flags: HW
AnchorPoint: "Anchor-10" 591.825 1100.07 basechar 0
AnchorPoint: "Anchor-7" 553.524 -266.745 basechar 0
LayerCount: 2
Fore
SplineSet
-20 0 m 5
 -20 120 l 5
 143 120 l 2
 409.427734375 120 601.138671875 213.47265625 883.859375 359.392578125 c 2
 961.958007812 400.4453125 l 1
 1026.11523438 434.168945312 l 1
 956.891601562 455.65234375 l 2
 932.607421875 463.188476562 901.41015625 479.747070312 774.249023438 530.811523438 c 0
 639.329101562 585.779296875 553.873046875 622 495 622 c 0
 405.983398438 622 323.051757812 565.294921875 270.212890625 496.28125 c 2
 258.2890625 480.823242188 l 1
 158.002929688 530.634765625 l 1
 238.159179688 659.901367188 358.44921875 740 496 740 c 0
 570.979492188 740 668.915039062 703.521484375 785.897460938 647.012695312 c 0
 977.564453125 553.494140625 1102.68847656 507.846679688 1215.671875 496.259765625 c 1
 1214.30273438 379.872070312 l 1
 1130.62207031 364.216796875 1031.41015625 318.162109375 847.004882812 220.536132812 c 0
 603.426757812 92.0732421875 402.743164062 0 140 0 c 2
 -20 0 l 5
EndSplineSet
Position2: "Single Positioning lookup 2 subtable" dx=0 dy=0 dh=-178 dv=0
Position2: "Single Positioning lookup 1 subtable" dx=0 dy=0 dh=-173 dv=0
EndChar

StartChar: uniFEA4
Encoding: 65188 65188 175
GlifName: uniF_E_A_4
Width: 1351
VWidth: 2950
GlyphClass: 2
Flags: HW
AnchorPoint: "Anchor-10" 591.825 1100.07 basechar 0
AnchorPoint: "Anchor-7" 553.524 -266.745 basechar 0
LayerCount: 2
Fore
SplineSet
1214.30664062 380.279296875 m 1
 1162.51464844 372.108398438 1101.98632812 355.2109375 1028.97558594 320.025390625 c 2
 1011.24414062 311.48046875 l 1
 1017.02745155 165.520716884 1119.41609337 120 1317 120 c 6
 1371 120 l 1
 1371 0 l 1
 1313 0 l 2
 1072.83007812 0 962.25390625 68.1826171875 942.776367188 226.659179688 c 2
 937.397460938 270.41796875 l 1
 898.666992188 249.354492188 l 2
 648.1171875 113.092773438 401.952148438 0 140 0 c 2
 -20 0 l 1
 -20 120 l 1
 143 120 l 2
 409.427734375 120 601.138671875 213.47265625 883.859375 359.392578125 c 2
 961.958007812 400.4453125 l 1
 1026.11523438 434.168945312 l 1
 956.891601562 455.65234375 l 2
 932.607421875 463.188476562 901.41015625 479.747070312 774.249023438 530.811523438 c 0
 639.329101562 585.779296875 553.873046875 622 495 622 c 0
 405.983398438 622 323.051757812 565.294921875 270.212890625 496.28125 c 2
 258.2890625 480.823242188 l 1
 158.002929688 530.634765625 l 1
 238.159179688 659.901367188 358.44921875 740 496 740 c 0
 570.979492188 740 668.915039062 703.521484375 785.897460938 647.012695312 c 0
 977.564453125 553.494140625 1102.68847656 507.846679688 1215.671875 496.259765625 c 1
 1214.30664062 380.279296875 l 1
EndSplineSet
EndChar

StartChar: uniFEAA
Encoding: 65194 65194 181
GlifName: uniF_E_A_A_
Width: 1055
VWidth: 2950
GlyphClass: 2
Flags: HW
AnchorPoint: "Anchor-7" 401.24 -271.316 basechar 0
AnchorPoint: "Anchor-10" 506.848 1123.53 basechar 0
LayerCount: 2
Fore
SplineSet
128 141.709960938 m 1
 193.532226562 127.559570312 248.517578125 121 307 121 c 0
 534.256835938 121 684.006835938 174.8671875 684.006835938 316.581054688 c 0
 684.006835938 362.280273438 652.352539062 443.401367188 590.439453125 588.541992188 c 2
 481.625 843.942382812 l 1
 587.580078125 892.745117188 l 1
 784.069335938 391.051757812 l 2
 862.229492188 191.642578125 932.639648438 120 1033 120 c 2
 1075 120 l 5
 1075 0 l 5
 1033 0 l 2
 931.799804688 0 856.135742188 48.76953125 797.044921875 147.849609375 c 2
 775.500976562 183.973632812 l 1
 748.360351562 151.840820312 l 2
 665.880859375 54.189453125 531.966796875 1 322 1 c 0
 243.759765625 1 181.942382812 8.1513671875 128 19.537109375 c 1
 128 141.709960938 l 1
EndSplineSet
EndChar

StartChar: uniFEAE
Encoding: 65198 65198 185
GlifName: uniF_E_A_E_
Width: 860
VWidth: 2112
GlyphClass: 2
Flags: HW
AnchorPoint: "Anchor-7" 322.969 -669.998 basechar 0
AnchorPoint: "Anchor-10" 493.256 818.2 basechar 0
LayerCount: 2
Fore
SplineSet
545 99.888671875 m 0
 545 188.686523438 521.698242188 307.353515625 477.262695312 421.249023438 c 1
 580.6328125 458.612304688 l 1
 632.525390625 296.236328125 l 2
 667.877929688 185.895507812 732.896484375 120 841 120 c 2
 880 120 l 5
 880 0 l 5
 849 0.00390625 l 2
 751.760605325 0.016567629515 704.928710938 28.95703125 652.529296875 94.498046875 c 1
 647.018554688 28.0810546875 l 2
 626.479492188 -256.690429688 436.30078125 -448.098632812 69.0458984375 -523.481445312 c 1
 30.712890625 -425.794921875 l 1
 364.4453125 -353.15625 542.936523438 -177.7578125 545 99.888671875 c 0
EndSplineSet
EndChar

StartChar: uniFEB2
Encoding: 65202 65202 189
GlifName: uniF_E_B_2
Width: 2553
GlyphClass: 2
Flags: HW
AnchorPoint: "Anchor-7" 710.902 -746.086 basechar 0
AnchorPoint: "Anchor-10" 1770.53 837.1 basechar 0
LayerCount: 2
Fore
SplineSet
1531 0 m 0
 1456 0 1404 18 1361 52 c 2
 1313 89 l 1
 1312 28 l 2
 1309 -156 1256 -290 1154 -381 c 0
 1051 -473 908 -520 721 -520 c 0
 318 -520 128 -342 128 26 c 0
 128 153 154 284 205 416 c 1
 305 375 l 1
 261 252 240 139 240 31 c 0
 240 -258 411 -407 728 -407 c 0
 1041 -407 1206 -242 1207 70 c 0
 1207 186 1180 304 1128 421 c 1
 1237 459 l 1
 1286 305 l 2
 1324 187 1405 121 1533 120 c 0
 1683 120 1748 214 1748 359 c 0
 1748 389 1745 440 1740 511 c 1
 1845 523 l 1
 1859 329 l 2
 1866 220 1923 120 2048 120 c 0
 2164 120 2217 215 2217 357 c 0
 2217 398 2214 458 2209 532 c 1
 2314 544 l 1
 2328 329 l 2
 2337 196 2413 121 2541 120 c 1
 2573 120 l 5
 2573 0 l 5
 2541 0 l 1
 2369.39313655 1.4066136348 2330.1875 58.8251953125 2287 169 c 1
 2228.63867188 59.572265625 2193.00901573 0 2049 0 c 0
 1944 0 1875 39 1833 124 c 2
 1811 169 l 1
 1782 129 l 2
 1718 41 1637 0 1531 0 c 0
EndSplineSet
EndChar

StartChar: uniFEB3
Encoding: 65203 65203 190
GlifName: uniF_E_B_3
Width: 1562
GlyphClass: 2
Flags: HW
AnchorPoint: "Anchor-7" 764.902 -266.086 basechar 0
AnchorPoint: "Anchor-10" 852.53 873.1 basechar 0
LayerCount: 2
Fore
SplineSet
1153 120 m 0
 1269 120 1322 221 1322 372 c 0
 1322 440 1309 523 1285 615 c 1
 1396 644 l 1
 1422 554 1434 469 1434 387 c 0
 1434 163 1358 1 1154 0 c 0
 1048 0 980 39 938 124 c 2
 916 169 l 1
 887 129 l 2
 823 41 742 0 636 0 c 0
 470.071901521 0 424.907773861 58.7869993901 375 169 c 1
 346 119 l 2
 297 35 203 0 49 0 c 2
 -20 0 l 5
 -20 120 l 5
 51 120 l 2
 221 120 323 183 323 359 c 0
 323 390 320 442 315 511 c 1
 420 523 l 1
 434 329 l 2
 443 213 510 120 638 120 c 0
 788 120 853 214 853 359 c 0
 853 389 850 440 845 511 c 1
 950 523 l 1
 964 329 l 2
 971 220 1028 120 1153 120 c 0
EndSplineSet
Position2: "Single Positioning lookup 2 subtable" dx=0 dy=0 dh=-178 dv=0
Position2: "Single Positioning lookup 1 subtable" dx=0 dy=0 dh=-173 dv=0
EndChar

StartChar: uniFEB4
Encoding: 65204 65204 191
GlifName: uniF_E_B_4
Width: 1658
GlyphClass: 2
Flags: HW
AnchorPoint: "Anchor-10" 852.53 873.1 basechar 0
AnchorPoint: "Anchor-7" 764.902 -266.086 basechar 0
LayerCount: 2
Fore
SplineSet
346 118 m 2
 297 34 203 0 49 0 c 2
 -20 0 l 1
 -20 120 l 1
 51 120 l 2
 221 120 323 183 323 359 c 0
 323 390 320 443 315 511 c 1
 420 523 l 1
 434 329 l 2
 443 213 509 120 638 120 c 0
 788 120 853 214 853 359 c 0
 853 389 850 440 845 511 c 1
 950 523 l 1
 964 329 l 2
 971 220 1028 120 1153 120 c 0
 1269 120 1322 215 1322 357 c 0
 1322 398 1319 458 1314 532 c 1
 1419 544 l 1
 1433 329 l 2
 1442 196 1518 121 1646 120 c 1
 1678 120 l 5
 1678 0 l 5
 1646 0 l 1
 1474.39313655 1.4066136348 1435.1875 58.8251953125 1392 169 c 1
 1333.63867188 59.572265625 1298.00901573 0 1154 0 c 0
 1049 0 980 39 938 124 c 2
 916 169 l 1
 887 129 l 2
 823 41 741 0 636 0 c 0
 470.324250551 1.31488690039 423.983680544 56.3426630698 376 169 c 1
 346 118 l 2
EndSplineSet
EndChar

StartChar: uniFEBA
Encoding: 65210 65210 197
GlifName: uniF_E_B_A_
Width: 2610
VWidth: 2920
GlyphClass: 2
Flags: HW
AnchorPoint: "Anchor-10" 2052.53 1098.1 basechar 0
AnchorPoint: "Anchor-7" 710.902 -746.086 basechar 0
LayerCount: 2
Fore
SplineSet
1753.1015625 121 m 2
 2109.99902344 121 2329 194.146484375 2329 383 c 0
 2329 507.88671875 2236.00390625 605 2104 605 c 0
 1930.63085938 605 1758.19042969 443.884765625 1579.76171875 166.217773438 c 2
 1549.82226562 119.626953125 l 1
 1605.203125 120.000976562 l 1
 1753.1015625 121 l 2
1207 69.94921875 m 0
 1207 187.8671875 1179.44335938 305.321289062 1128.15039062 421.405273438 c 1
 1236.82714844 458.702148438 l 1
 1286.41210938 304.904296875 l 2
 1313.64746094 218.155273438 1351.77539062 156.614257812 1415.53515625 149.201171875 c 2
 1434.88574219 146.950195312 l 1
 1444.81347656 163.712890625 l 2
 1671.8828125 547.142578125 1890.45996094 727 2096 727 c 0
 2305.91699219 727 2447 585.266601562 2447 392 c 0
 2447 318.454101562 2414.90429688 241.828125 2371.90722656 183.875 c 2
 2345.96386719 148.908203125 l 1
 2387.87792969 137.120117188 l 2
 2424.72753906 126.756835938 2486.52246094 120.13671875 2598 120 c 1
 2630 120 l 5
 2630 0 l 5
 2598 0.00390625 l 1
 2442.5625 0.5556640625 2341.21289062 34.5771484375 2277.97949219 86.2333984375 c 2
 2262.26074219 99.07421875 l 1
 2244.49414062 89.259765625 l 2
 2146.7578125 35.2724609375 1979.08496094 0 1757 0 c 2
 1706 0 l 2
 1539.17578125 0 1425.18457031 20.3115234375 1354.99316406 54.0400390625 c 2
 1312.61132812 74.4052734375 l 1
 1312.00292969 27.388671875 l 2
 1307.22265625 -341.633789062 1083.84765625 -520 721 -520 c 0
 317.294921875 -520 128 -342.08984375 128 26 c 0
 128 152.734375 153.965820312 284.143554688 204.693359375 415.83203125 c 1
 304.858398438 375.119140625 l 1
 262.118164062 254.66796875 240 142.059570312 240 31 c 0
 240 -257.825195312 411.58203125 -407 728 -407 c 0
 1039.04296875 -407 1205.95214844 -242.264648438 1207 69.94921875 c 0
EndSplineSet
EndChar

StartChar: uniFEBB
Encoding: 65211 65211 198
GlifName: uniF_E_B_B_
Width: 1654
VWidth: 2920
GlyphClass: 2
Flags: HW
AnchorPoint: "Anchor-10" 1112.53 1098.1 basechar 0
AnchorPoint: "Anchor-7" 679.209 -272.348 basechar 0
LayerCount: 2
Fore
SplineSet
832.1015625 121 m 2
 1188.99902344 121 1408 194.146484375 1408 383 c 0
 1408 507.88671875 1315.00390625 605 1183 605 c 0
 1009.63085938 605 837.190429688 443.884765625 658.76171875 166.217773438 c 2
 628.822265625 119.626953125 l 1
 684.203125 120.000976562 l 1
 832.1015625 121 l 2
523.795898438 163.68359375 m 2
 750.891601562 546.161132812 969.513671875 727 1175 727 c 0
 1384.91699219 727 1526 585.221679688 1526 392.053710938 c 0
 1525.09277344 137.208984375 1313.98144531 0 836 0 c 2
 785 0 l 2
 535.456054688 0 404.836914062 49.328125 353.46875 131.853515625 c 2
 330.178710938 169.26953125 l 1
 303.911132812 133.880859375 l 2
 236.212890625 42.67578125 169.274414062 0 20 0 c 2
 -20.8330078125 0 l 5
 -20.166015625 120 l 5
 20 120 l 2
 209.908203125 120 273 202.969726562 273 358 c 0
 273 410.373046875 269.276367188 476.631835938 266.389648438 531.60546875 c 1
 371.368164062 544.408203125 l 1
 387.084960938 328.747070312 l 2
 394.244140625 236.69921875 421.434570312 168.275390625 490.306640625 150.002929688 c 2
 512.220703125 144.189453125 l 1
 523.795898438 163.68359375 l 2
EndSplineSet
Position2: "Single Positioning lookup 2 subtable" dx=0 dy=0 dh=-178 dv=0
Position2: "Single Positioning lookup 1 subtable" dx=0 dy=0 dh=-173 dv=0
EndChar

StartChar: uniFEBC
Encoding: 65212 65212 199
GlifName: uniF_E_B_C_
Width: 1689
VWidth: 2920
GlyphClass: 2
Flags: HW
AnchorPoint: "Anchor-10" 1112.53 1098.1 basechar 0
AnchorPoint: "Anchor-7" 679.209 -272.348 basechar 0
LayerCount: 2
Fore
SplineSet
832.1015625 121 m 2
 1188.99902344 121 1408 194.146484375 1408 383 c 0
 1408 507.88671875 1315.00390625 605 1183 605 c 0
 1009.63085938 605 837.190429688 443.884765625 658.76171875 166.217773438 c 2
 628.822265625 119.626953125 l 1
 684.203125 120.000976562 l 1
 832.1015625 121 l 2
523.783203125 163.6640625 m 2
 751.868164062 547.124023438 970.455078125 727 1176 727 c 0
 1386.67773438 727 1526 584.586914062 1526 390 c 0
 1526 317.806640625 1493.10742188 242.021484375 1450.72070312 183.622070312 c 2
 1428.27832031 152.700195312 l 1
 1491.77245306 126.724605506 1529.3620374 120.180184416 1677 120 c 1
 1709 120 l 5
 1709 0 l 5
 1677 0.001953125 l 1
 1521.3984375 0.37109375 1420.38867188 34.43359375 1356.97949219 86.2333984375 c 2
 1341.26074219 99.07421875 l 1
 1323.49414062 89.259765625 l 2
 1225.7578125 35.2724609375 1058.08496094 0 836 0 c 2
 785 0 l 2
 538.658203125 0 406.607421875 50.19921875 353.235351562 133.22265625 c 2
 329.772460938 169.721679688 l 1
 303.911132812 134.880859375 l 2
 236.212890625 43.67578125 169.274414062 0 20 0 c 2
 -20 0 l 1
 -20 120 l 1
 19 120 l 2
 209.883789062 120 273 203.845703125 273 357 c 0
 273 410.971679688 269.255859375 477.2421875 266.392578125 531.606445312 c 1
 371.368164062 544.408203125 l 1
 387.084960938 328.747070312 l 2
 394.244140625 236.69921875 421.434570312 168.275390625 490.306640625 150.002929688 c 2
 512.203125 144.194335938 l 1
 523.783203125 163.6640625 l 2
EndSplineSet
EndChar

StartChar: uniFEC2
Encoding: 65218 65218 205
GlifName: uniF_E_C_2
Width: 1510
VWidth: 2920
GlyphClass: 2
Flags: HW
AnchorPoint: "Anchor-7" 636.602 -268.453 basechar 0
AnchorPoint: "Anchor-10" 470.36 1466.78 basechar 0
LayerCount: 2
Fore
SplineSet
649.1015625 122 m 2
 1005.99902344 122 1225 195.146484375 1225 384 c 0
 1225 508.672851562 1133.15136719 606 1001 606 c 0
 827.673828125 606 654.232421875 444.950195312 475.76171875 167.217773438 c 2
 445.822265625 120.626953125 l 1
 501.203125 121.000976562 l 1
 649.1015625 122 l 2
1498 120 m 1
 1530 120 l 1
 1530 0 l 1
 1498 0.0029296875 l 1
 1326.46582031 0.6083984375 1240.30371094 36.6142578125 1179.82617188 85.357421875 c 2
 1164.56738281 97.6552734375 l 1
 1147.17578125 88.625 l 2
 1050.29492188 38.3212890625 866.591796875 0 653 0 c 2
 128 0 l 1
 128 120 l 1
 320 120 l 1
 336.763671875 120 l 1
 345.549804688 134.27734375 l 2
 369.166992188 172.655273438 395.194335938 211.689453125 418.665039062 250.465820312 c 2
 423 257.627929688 l 1
 423 266 l 1
 423 1306 l 5
 532 1306 l 5
 532 506 l 1
 532 420.880859375 l 1
 585.370117188 487.189453125 l 2
 714.387695312 647.483398438 847.21484375 727 992 727 c 0
 1200.85742188 727 1342 585.302734375 1342 392 c 0
 1342 323.622070312 1310.8203125 245.415039062 1267.26757812 181.98046875 c 2
 1250.984375 158.26171875 l 1
 1303.01592379 119.238057158 1345.47482273 120.143423939 1498 120 c 1
EndSplineSet
EndChar

StartChar: uniFEC3
Encoding: 65219 65219 206
GlifName: uniF_E_C_3
Width: 1293
VWidth: 2920
GlyphClass: 2
Flags: HW
AnchorPoint: "Anchor-7" 481.602 -268.453 basechar 0
AnchorPoint: "Anchor-10" 292.36 1465.78 basechar 0
LayerCount: 2
Fore
SplineSet
471.1015625 122 m 2
 827.999023438 122 1047 195.146484375 1047 384 c 0
 1047 508.88671875 954.00390625 606 822 606 c 0
 648.630859375 606 476.190429688 444.884765625 297.76171875 167.217773438 c 2
 267.822265625 120.626953125 l 1
 323.203125 121.000976562 l 1
 471.1015625 122 l 2
407.231445312 487.018554688 m 2
 538.165039062 647.265625 674.10546875 727 819 727 c 0
 1024.38476562 727 1165 582.561523438 1165 392 c 0
 1165 137.1171875 955.009765625 0 476 0 c 2
 -20 0 l 1
 -20 120 l 1
 140 120 l 1
 156.403320312 120 l 1
 165.256835938 133.809570312 l 2
 189.935546875 172.309570312 215.963867188 210.346679688 240.364257812 248.98046875 c 2
 245 256.319335938 l 1
 245 265 l 1
 245 1306 l 5
 354 1306 l 5
 354 506 l 1
 354 421.869140625 l 1
 407.231445312 487.018554688 l 2
EndSplineSet
Position2: "Single Positioning lookup 2 subtable" dx=0 dy=0 dh=-178 dv=0
Position2: "Single Positioning lookup 1 subtable" dx=0 dy=0 dh=-173 dv=0
EndChar

StartChar: uniFEC4
Encoding: 65220 65220 207
GlifName: uniF_E_C_4
Width: 1332
VWidth: 2920
GlyphClass: 2
Flags: HW
AnchorPoint: "Anchor-10" 289.36 1463.78 basechar 0
AnchorPoint: "Anchor-7" 481.602 -268.453 basechar 0
LayerCount: 2
Fore
SplineSet
471.1015625 122 m 2
 827.999023438 122 1047 195.146484375 1047 384 c 0
 1047 508.88671875 954.00390625 606 822 606 c 0
 648.630859375 606 476.190429688 444.884765625 297.76171875 167.217773438 c 2
 267.822265625 120.626953125 l 1
 323.203125 121.000976562 l 1
 471.1015625 122 l 2
1321 120 m 1
 1352 120 l 1
 1352 0 l 1
 1321 0 l 1
 1149.30859375 0 1062.78125 37.2294921875 1001.82617188 86.357421875 c 2
 986.567382812 98.6552734375 l 1
 969.17578125 89.625 l 2
 872.13671875 39.2392578125 689.491210938 0 476 0 c 2
 -20 0 l 1
 -20 120 l 1
 142 120 l 1
 158.763671875 120 l 1
 167.549804688 134.27734375 l 2
 191.356445312 172.961914062 216.291992188 211.865234375 240.364257812 249.98046875 c 2
 245 257.319335938 l 1
 245 266 l 1
 245 1306 l 5
 354 1306 l 5
 354 506 l 1
 354 422.3515625 l 1
 407.162109375 486.93359375 l 2
 539.264648438 647.4140625 673.28515625 727 816 727 c 0
 1022.66992188 727 1165 583.295898438 1165 392 c 0
 1165 323.8671875 1132.94921875 245.603515625 1089.26757812 181.98046875 c 2
 1072.984375 158.26171875 l 1
 1124.88626461 119.335301543 1167.88125183 120.071712592 1321 120 c 1
EndSplineSet
EndChar

StartChar: uniFECA
Encoding: 65226 65226 213
GlifName: uniF_E_C_A_
Width: 1199
VWidth: 2920
GlyphClass: 2
Flags: HW
AnchorPoint: "Anchor-7" 610.833 -860.619 basechar 0
AnchorPoint: "Anchor-10" 574.833 1136.24 basechar 0
LayerCount: 2
Fore
SplineSet
1034.68164062 -602.08203125 m 1
 934.319335938 -643.021484375 820.936523438 -663 689 -663 c 0
 353.885742188 -663 128 -513.83984375 128 -228 c 0
 128 -30.5712890625 256.026367188 131.172851562 462.051757812 261.655273438 c 2
 503.606445312 287.973632812 l 1
 461.185546875 312.872070312 l 2
 278.08203125 420.346679688 198 518.578125 198 599 c 0
 198 716.323242188 406.799804688 786 616 786 c 0
 829.977539062 786 1024 729.956054688 1024 603 c 0
 1024 534.327148438 936.3359375 427.586914062 733.088867188 300.432617188 c 2
 693.877929688 275.90234375 l 1
 732.264648438 250.1015625 l 2
 857.823242188 165.709960938 981.611328125 120 1159 120 c 2
 1219 120 l 1
 1219 0 l 1
 1159 0 l 2
 974.024414062 0 813.8515625 67.224609375 619.211914062 203.571289062 c 2
 603.759765625 214.395507812 l 1
 587.310546875 205.157226562 l 2
 382.540039062 90.1630859375 235 -50.53125 235 -228 c 0
 235 -427.970437915 412.681749402 -552.005169708 693.7165038 -552.005169708 c 0
 798.246679873 -552.005169708 905.818058875 -530.817840563 1011.81445312 -491.012695312 c 1
 1034.68164062 -602.08203125 l 1
618.458007812 360.713867188 m 2
 792.098632812 456.215820312 909 521.1328125 909 588 c 0
 909 670.072265625 771.763671875 672 615 672 c 0
 455.573242188 672 321 663.779296875 321 577 c 0
 321 509.096679688 431.481445312 446.490234375 589.690429688 360.6328125 c 2
 604.096679688 352.814453125 l 1
 618.458007812 360.713867188 l 2
EndSplineSet
EndChar

StartChar: uniFECB
Encoding: 65227 65227 214
GlifName: uniF_E_C_B_
Width: 1057
VWidth: 2920
GlyphClass: 2
Flags: HW
AnchorPoint: "Anchor-10" 550.493 1157.05 basechar 0
AnchorPoint: "Anchor-7" 484.511 -267.021 basechar 0
LayerCount: 2
Fore
SplineSet
929 139.143554688 m 1
 621.448242188 45.2451171875 340.55859375 0 85 0 c 2
 -20 0 l 5
 -20 120 l 5
 277 120 l 1
 338.870117188 120 l 1
 300.5546875 168.578125 l 2
 245.3828125 238.528320312 201 304.249023438 201 416 c 0
 201 631.765625 347.671875 809 585 809 c 0
 711.791992188 809 810.724609375 770.400390625 892.018554688 695.103515625 c 1
 850.122070312 601.788085938 l 1
 773.842773438 656.5859375 697.239257812 686.0234375 617.182617188 687 c 0
 443.119140625 687 311 566.66796875 311 410 c 0
 311 364.155273438 334.20703125 235.46875 481.225585938 168.848632812 c 0
 492.450195312 163.377929688 512.193359375 153.87109375 538.043945312 159.836914062 c 2
 929 258.489257812 l 1
 929 139.143554688 l 1
EndSplineSet
Position2: "Single Positioning lookup 2 subtable" dx=0 dy=0 dh=-178 dv=0
Position2: "Single Positioning lookup 1 subtable" dx=0 dy=0 dh=-173 dv=0
EndChar

StartChar: uniFEDA
Encoding: 65242 65242 229
GlifName: uniF_E_D_A_
Width: 1891
VWidth: 2920
GlyphClass: 2
Flags: HW
AnchorPoint: "Anchor-10" 916.11 1210.05 basechar 0
AnchorPoint: "Anchor-7" 900.268 -256.468 basechar 0
LayerCount: 2
Fore
SplineSet
723 541.182617188 m 1
 773.895507812 535.26953125 797.032226562 532 839 532 c 0
 933.349609375 532 1040 529.661132812 1040 630 c 0
 1040 703.227539062 989.124023438 712.706054688 922.065429688 713 c 0
 839.16796875 713.36328125 768 752.38671875 768 879 c 0
 768 980.854492188 829.147460938 1055.578125 972.252929688 1055.578125 c 0
 1000.43652344 1055.578125 1033.19238281 1052.74121094 1067 1047.32324219 c 1
 1067 982.109375 l 1
 1032.37109375 986.397460938 1003.04980469 988.399414062 976.748046875 988.399414062 c 0
 878.321289062 988.399414062 827 946.831054688 827 888 c 0
 827 828.92578125 859.2265625 787.434570312 939.918945312 787 c 0
 1061.34179688 786.346679688 1098 745.474609375 1098 634 c 0
 1098 502.1328125 1027.36621094 464 846 464 c 0
 798.709960938 464 778.959960938 468.188476562 723 476.875 c 1
 723 541.182617188 l 1
978 120 m 2
 1451.66601562 120 1544 222.071289062 1544 440 c 2
 1544 1306 l 1
 1653 1306 l 1
 1653 442 l 2
 1653 248.72265625 1680.84082031 120 1876 120 c 2
 1911 120 l 1
 1911 0 l 1
 1878 0 l 2
 1666.35351562 0 1638.61816406 70.7021484375 1596.40039062 208.76953125 c 5
 1471.8883867 52.1196495806 1364.60310553 0 985 0 c 6
 840 0 l 2
 365.087890625 0 128 156.538085938 128 454 c 0
 128 528.747070312 143.16015625 602.15234375 168.837890625 669.712890625 c 1
 267.112304688 633.100585938 l 1
 250.8671875 581.138671875 243 531.252929688 243 478.931640625 c 0
 244.119140625 232.771484375 459.916992188 120 830 120 c 2
 978 120 l 2
EndSplineSet
EndChar

StartChar: uniFEDB
Encoding: 65243 65243 230
GlifName: uniF_E_D_B_
Width: 950
VWidth: 2920
GlyphClass: 2
Flags: HW
AnchorPoint: "Anchor-10" 327.533 1340.15 basechar 0
AnchorPoint: "Anchor-7" 310.991 -263.935 basechar 0
LayerCount: 2
Fore
SplineSet
195.6640625 935.063476562 m 2
 367.182617188 790.46875 498.7734375 681.69921875 578.00390625 596.599609375 c 4
 658.740234375 509.213867188 696 427.012695312 696 326 c 0
 696 109.346679688 555.068359375 0 166 0 c 2
 -20 0 l 1
 -20 120 l 1
 165 120 l 2
 439.0703125 120 581 185.913085938 581 343 c 0
 581 420.625 538.688476562 482.899414062 466.508789062 550.895507812 c 4
 363.943359375 646.420898438 272.71484375 716.66015625 191.478515625 780.633789062 c 0
 119.069335938 836.845703125 90 889.576171875 90 942 c 0
 90 1013.48828125 126.103515625 1063.16992188 209.551757812 1094.91699219 c 2
 859 1335.87109375 l 1
 859 1228.87011719 l 1
 204.567382812 986.126953125 l 1
 156.319335938 968.231445312 l 1
 195.6640625 935.063476562 l 2
EndSplineSet
Position2: "Single Positioning lookup 2 subtable" dx=0 dy=0 dh=-226 dv=0
Position2: "Single Positioning lookup 1 subtable" dx=0 dy=0 dh=-219 dv=0
Position2: "Single Positioning lookup 0 subtable" dx=0 dy=0 dh=180 dv=0
EndChar

StartChar: uniFEDC
Encoding: 65244 65244 231
GlifName: uniF_E_D_C_
Width: 1027
VWidth: 2920
GlyphClass: 2
Flags: HW
AnchorPoint: "Anchor-10" 327.533 1340.15 basechar 0
AnchorPoint: "Anchor-7" 310.991 -263.935 basechar 0
LayerCount: 2
Fore
SplineSet
643.909179688 165.446289062 m 2
 574.03125 58.8369140625 446.024414062 0 166 0 c 2
 -20 0 l 1
 -20 120 l 1
 165 120 l 2
 439.0703125 120 581 185.913085938 581 343 c 0
 581 420.625 538.688476562 482.899414062 466.508789062 550.895507812 c 4
 363.943359375 646.420898438 272.71484375 716.66015625 191.478515625 780.633789062 c 0
 119.069335938 836.845703125 90 889.576171875 90 942 c 0
 90 1013.48828125 126.103515625 1063.16992188 209.551757812 1094.91699219 c 2
 859 1335.87109375 l 1
 859 1228.87011719 l 1
 204.567382812 986.126953125 l 1
 156.319335938 968.231445312 l 1
 195.6640625 935.063476562 l 2
 367.2109375 790.4453125 498.72265625 681.75390625 578.04296875 596.557617188 c 4
 628.416015625 542.453125 668.65234375 480.3359375 699.713867188 392.006835938 c 0
 760.704101562 219.37109375 866.64453125 121.674804688 1015 120.01171875 c 1
 1047 120.01171875 l 1
 1047 0 l 1
 1015 0.0087890625 l 1
 877.626953125 1.087890625 775.583984375 57.201171875 692.975585938 167.033203125 c 2
 667.313476562 201.151367188 l 1
 643.909179688 165.446289062 l 2
EndSplineSet
EndChar

StartChar: uniFEDE
Encoding: 65246 65246 233
GlifName: uniF_E_D_E_
Width: 1439
VWidth: 2920
GlyphClass: 2
Flags: HW
AnchorPoint: "Anchor-7" 662.902 -738.086 basechar 0
AnchorPoint: "Anchor-10" 654.908 975.66 basechar 0
LayerCount: 2
Fore
SplineSet
296.512695312 311.259765625 m 1
 258.135742188 207.099609375 239 115.385742188 239 6 c 0
 239 -264.514648438 392.232421875 -407 675 -407 c 0
 945.954101562 -407 1089 -250.326171875 1089 37.9541015625 c 2
 1090.95703125 1306 l 5
 1198.96972656 1306 l 5
 1198 363 l 2
 1198 211.15625 1258.81445312 120 1428 120 c 1
 1459 120 l 1
 1459 0 l 1
 1428 0.0029296875 l 2
 1296.35346932 0.591530370474 1244.74740956 54.2840594357 1198.88964844 117.609375 c 1
 1198.00292969 48.384765625 l 2
 1193.15136719 -330.025390625 1026.44921875 -520 674 -520 c 0
 302.2109375 -520 128 -351.05859375 128 5 c 0
 128 127.423828125 150.67578125 233.904296875 196.60546875 351.8671875 c 1
 296.512695312 311.259765625 l 1
EndSplineSet
EndChar

StartChar: uniFEDF
Encoding: 65247 65247 234
GlifName: uniF_E_D_F_
Width: 608
VWidth: 2920
GlyphClass: 2
Flags: HW
AnchorPoint: "Anchor-10" 365.751 1470.65 basechar 0
AnchorPoint: "Anchor-7" 259.812 -268.234 basechar 0
LayerCount: 2
Fore
SplineSet
-20 0 m 1
 -20 120 l 1
 61 120 l 2
 254.28125 120 321 213.515625 321 373 c 2
 321 1306 l 5
 430 1306 l 5
 430 374 l 2
 430 120.68359375 340.860351562 0 60 0 c 2
 -20 0 l 1
EndSplineSet
Position2: "Single Positioning lookup 2 subtable" dx=0 dy=0 dh=-143 dv=0
Position2: "Single Positioning lookup 1 subtable" dx=0 dy=0 dh=-104 dv=0
Position2: "Single Positioning lookup 0 subtable" dx=0 dy=0 dh=130 dv=0
EndChar

StartChar: uniFEE0
Encoding: 65248 65248 235
GlifName: uniF_E_E_0
Width: 670
VWidth: 2920
GlyphClass: 2
Flags: HW
AnchorPoint: "Anchor-7" 259.812 -268.234 basechar 0
AnchorPoint: "Anchor-10" 364.751 1470.65 basechar 0
LayerCount: 2
Fore
SplineSet
343.447265625 130.239257812 m 2
 282.879882812 43.9765625 206.538085938 0 43 0 c 2
 -20 0 l 1
 -20 120 l 1
 45 120 l 2
 233.990234375 120 319.884765625 203.895507812 321 358.891601562 c 2
 321 1306 l 5
 430 1306 l 5
 430 359 l 2
 430 209.02734375 497.186523438 120 658 120 c 1
 690 120 l 1
 690 0 l 1
 658 0.0029296875 l 1
 521.04296875 0.5185546875 455.32421875 44.3984375 392.216796875 130.70703125 c 2
 367.505859375 164.502929688 l 1
 343.447265625 130.239257812 l 2
EndSplineSet
EndChar

StartChar: uniFEE2
Encoding: 65250 65250 237
GlifName: uniF_E_E_2
Width: 1296
VWidth: 2590
GlyphClass: 2
Flags: HW
AnchorPoint: "Anchor-10" 763.952 990.2 basechar 0
AnchorPoint: "Anchor-7" 714.983 -368.909 basechar 0
LayerCount: 2
Fore
SplineSet
140.299804688 -655 m 5
 134.26953125 -548.793945312 131 -459.012695312 131 -363 c 4
 131 -12.203125 173.028320312 226.900390625 390.767578125 269.559570312 c 2
 406.830078125 272.70703125 l 1
 412.876953125 287.916015625 l 2
 510.3515625 533.078125 634.197265625 641 780 641 c 0
 963.518554688 641 1057.98535156 517.28125 1095.64355469 333.81640625 c 0
 1123.34082031 205.590820312 1183.63476562 122.140625 1285 120.022460938 c 1
 1316 120.022460938 l 1
 1316 0 l 1
 1285 0.0146484375 l 1
 1210.34960938 0.8984375 1151.31835938 27.5390625 1108.90917969 90.7197265625 c 2
 1082.23828125 130.453125 l 1
 1058.09765625 89.1337890625 l 2
 1011.21191406 8.8876953125 954.30078125 -23 846 -23 c 0
 775.307617188 -23 701.609375 1.4326171875 613.709960938 54.55859375 c 0
 580.94921875 75.0341796875 545.674804688 93.7021484375 508.782226562 112.646484375 c 0
 476.502929688 129.342773438 445.697265625 138 418.85546875 138 c 0
 278.102539062 136.646484375 244 -45.7353515625 244 -335 c 4
 244 -453.41015625 248.21484375 -558.71875 255.506835938 -655 c 5
 140.299804688 -655 l 5
540.623046875 242.287109375 m 2
 662.034179688 148.193359375 760.749023438 95 842.182617188 95 c 0
 941.544921875 96.2119140625 994 162.059570312 994 265 c 0
 994 398.03515625 916.342773438 516 780 516 c 0
 664.62890625 516 583.98046875 423.502929688 530.783203125 276.189453125 c 2
 523.369140625 255.659179688 l 1
 540.623046875 242.287109375 l 2
EndSplineSet
EndChar

StartChar: uniFEE3
Encoding: 65251 65251 238
GlifName: uniF_E_E_3
Width: 1048
VWidth: 2920
GlyphClass: 2
Flags: HW
AnchorPoint: "Anchor-10" 583.952 990.2 basechar 0
AnchorPoint: "Anchor-7" 514.594 -267.063 basechar 0
LayerCount: 2
Fore
SplineSet
365.380859375 256.291992188 m 2
 455.575195312 152.774414062 546.493164062 93 641 93 c 0
 749.767578125 93 813 155.470703125 813 262 c 0
 813 402.895507812 734.953125 515 601 515 c 0
 489.18359375 515 410.119140625 427.951171875 359.729492188 286.038085938 c 2
 353.861328125 269.513671875 l 1
 365.380859375 256.291992188 l 2
280.392578125 133.720703125 m 2
 202.1953125 44.080078125 118.671875 0 23 0 c 0
 22 0 22 0 22 0 c 2
 -20 0 l 5
 -20 120 l 5
 22 120.037109375 l 1
 163.947265625 123.029296875 234.75 261.750976562 283.3203125 368.607421875 c 0
 369.341796875 558.245117188 472.506835938 641 597 641 c 0
 791.029296875 641 920 476.766601562 920 277 c 0
 920 80.732421875 829.4296875 -22 655 -22 c 0
 534.787109375 -22 434.827148438 29.4609375 323.732421875 135.68359375 c 2
 301.03515625 157.384765625 l 1
 280.392578125 133.720703125 l 2
EndSplineSet
Position2: "Single Positioning lookup 2 subtable" dx=0 dy=0 dh=-178 dv=0
Position2: "Single Positioning lookup 1 subtable" dx=0 dy=0 dh=-173 dv=0
EndChar

StartChar: uniFEE4
Encoding: 65252 65252 239
GlifName: uniF_E_E_4
Width: 1112
VWidth: 2920
GlyphClass: 2
Flags: HW
AnchorPoint: "Anchor-10" 583.952 990.2 basechar 0
AnchorPoint: "Anchor-7" 534.594 -267.063 basechar 0
LayerCount: 2
Fore
SplineSet
365.270507812 256.420898438 m 2
 454.611328125 152.702148438 545.975585938 93 645 93 c 0
 752.306640625 93 816 153.9140625 816 258 c 0
 816 397.41796875 733.981445312 515 597 515 c 0
 486.588867188 515 409.9375 426.416015625 359.751953125 286.103515625 c 2
 353.870117188 269.655273438 l 1
 365.270507812 256.420898438 l 2
880.866210938 90.3798828125 m 2
 828.3203125 9.7490234375 765.955078125 -22 653 -22 c 0
 538.818359375 -22 430.46484375 29.927734375 324.116210938 135.309570312 c 2
 301.408203125 157.811523438 l 1
 280.392578125 133.720703125 l 2
 202.1953125 44.080078125 118.671875 0 23 0 c 0
 22 0 22 0 22 0 c 2
 -20 0 l 1
 -20 120 l 1
 22 120.037109375 l 1
 166.028320312 123.064453125 236.796875 263.927734375 283.381835938 368.743164062 c 0
 368.309570312 557.14453125 472.565429688 641 597 641 c 0
 780.037109375 641 879.086914062 507.944335938 915.62890625 333.890625 c 0
 942.0546875 206.841796875 1001.51367188 123.27734375 1100 120.069335938 c 1
 1132 120.069335938 l 5
 1132 0 l 5
 1100 0.0283203125 l 1
 1029.62890625 1.138671875 973.4609375 27.326171875 930.909179688 90.7197265625 c 2
 905.629882812 128.379882812 l 1
 880.866210938 90.3798828125 l 2
EndSplineSet
EndChar

StartChar: uniFEEA
Encoding: 65258 65258 245
GlifName: uniF_E_E_A_
Width: 1038
VWidth: 2920
GlyphClass: 2
Flags: HW
AnchorPoint: "Anchor-10" 662.464 1192.36 basechar 0
AnchorPoint: "Anchor-7" 469.642 -266.09 basechar 0
LayerCount: 2
Fore
SplineSet
128 382 m 0
 128 557.001953125 273.299804688 700.091796875 613.857421875 805.337890625 c 2
 638.62890625 812.9921875 l 1
 634.643554688 838.611328125 l 1
 632.028320312 855.422851562 l 1
 731.70703125 876.111328125 l 1
 809.275390625 318.946289062 l 2
 825.865234375 197.287109375 903.000976562 120 1027 120 c 1
 1058 120 l 5
 1058 0 l 5
 1023 0 l 2
 848.150390625 0 761.333984375 74.705078125 730.276367188 213.548828125 c 2
 719.340820312 262.436523438 l 1
 681.40625 229.717773438 l 2
 605.934570312 164.623046875 524.49609375 132 431 132 c 0
 256.409179688 132 128 209.547851562 128 382 c 0
620.623046875 701.1484375 m 2
 387.234375 615.111328125 242 524.749023438 242 394 c 0
 242 292.256835938 317.86328125 240 425 240 c 0
 543.421875 240 691 312.555664062 691 452 c 0
 691 472.11328125 689.938476562 491.6484375 686.649414062 513.57421875 c 2
 660.629882812 677.697265625 l 1
 654.908203125 713.787109375 l 1
 620.623046875 701.1484375 l 2
EndSplineSet
EndChar

StartChar: uniFEEB
Encoding: 65259 65259 246
GlifName: uniF_E_E_B_
Width: 1369
VWidth: 2950
GlyphClass: 2
Flags: HW
AnchorPoint: "Anchor-10" 609.134 1172.79 basechar 0
AnchorPoint: "Anchor-7" 510.852 -269.953 basechar 0
LayerCount: 2
Fore
SplineSet
799 453 m 0
 799 340.618164062 753.5390625 250.528320312 672.1171875 178.46484375 c 2
 647.411132812 156.598632812 l 1
 622.705078125 134.732421875 l 1
 655.423828125 130.491210938 l 1
 685.142578125 126.248046875 l 2
 740.916015625 119.018554688 811.436523438 115 862 115 c 0
 1021.86523438 115 1126 178.5546875 1126 320 c 0
 1126 459.372070312 876.02734375 626.391601562 669.649414062 736.78515625 c 0
 628.086914062 759.016601562 586.578125 779.610351562 550.561523438 796.278320312 c 1
 597.478515625 881.469726562 l 1
 1042.4375 661.591796875 1241 480.286132812 1241 323 c 0
 1241 115.0546875 1103.44335938 10 879 10 c 0
 752.16015625 10 582.01171875 45.64453125 494.672851562 75.3984375 c 2
 489.609375 77.123046875 l 1
 484.546875 78.84765625 l 1
 479.53515625 76.9794921875 l 1
 474.521484375 75.111328125 l 2
 367.96875 35.3955078125 207.970703125 0 75 0 c 2
 -20 0 l 1
 -20 120 l 1
 63 120 l 2
 175.188544768 120 265.82270638 126.837993201 352.32421875 138.57421875 c 5
 257.420128114 207.028887491 183 289.960869414 183 436 c 0
 183 617.129882812 323.931640625 731 495 731 c 0
 548.8046875 731 601.044921875 717.327148438 646.405273438 692.998046875 c 0
 733.8125 646.118164062 799 556.400390625 799 453 c 0
514.099609375 182.12890625 m 2
 636.681640625 230.9453125 703.845703125 330.065429688 705 432.83203125 c 0
 705 559.322265625 620.963867188 632 504 632 c 0
 383.116210938 632 293 556.196289062 293 438 c 0
 293 330.875 364.000976562 230.489257812 492.388671875 181.939453125 c 2
 497.834960938 179.879882812 l 1
 503.28125 177.8203125 l 1
 508.690429688 179.974609375 l 1
 514.099609375 182.12890625 l 2
EndSplineSet
Position2: "Single Positioning lookup 2 subtable" dx=0 dy=0 dh=-178 dv=0
Position2: "Single Positioning lookup 1 subtable" dx=0 dy=0 dh=-173 dv=0
EndChar

StartChar: uniFEEC
Encoding: 65260 65260 247
GlifName: uniF_E_E_C_
Width: 1002
VWidth: 2920
GlyphClass: 2
Flags: HW
AnchorPoint: "Anchor-7" 597.16 -739.603 basechar 0
AnchorPoint: "Anchor-10" 551.648 1105.04 basechar 0
LayerCount: 2
Fore
SplineSet
610.209960938 -533.743164062 m 1
 402.799804688 -428.578125 286.048828125 -262.748046875 246.594726562 -25.0869140625 c 2
 242.430664062 0 l 1
 217 0 l 1
 -20 0 l 1
 -20 120 l 1
 204 120 l 1
 232.541992188 120 l 1
 233.962890625 148.505859375 l 2
 251.189453125 494.061523438 322.4765625 736 548 736 c 0
 689.671875 736 780 631.086914062 780 457 c 0
 780 231.8984375 582.309570312 5.3759765625 375.075195312 -1.0146484375 c 2
 340.447265625 -2.08203125 l 1
 346.454101562 -36.2021484375 l 2
 372.723632812 -185.409179688 446.162109375 -296.958984375 568.711914062 -376.193359375 c 2
 615 -406.12109375 l 1
 615 -351 l 2
 615 -45.615234375 738.354492188 120 988 120 c 2
 1022 120 l 5
 1022 0 l 5
 986 0 l 2
 796.73828125 0 703 -132.083984375 703 -360 c 0
 703 -384.48828125 703.8203125 -413.549804688 705.885742188 -440.439453125 c 1
 610.209960938 -533.743164062 l 1
367.9609375 119.015625 m 2
 541.547851562 124.579101562 681 273.373046875 681 457 c 0
 681 553.969726562 627.233398438 622 546 622 c 0
 397.62109375 622 350.701171875 438.416992188 337.034179688 150.421875 c 2
 335.494140625 117.974609375 l 1
 367.9609375 119.015625 l 2
EndSplineSet
EndChar

StartChar: uniFEFB
Encoding: 65275 65275 262
GlifName: uniF_E_F_B_
Width: 1212
VWidth: 2920
GlyphClass: 3
Flags: HW
AnchorPoint: "Anchor-9" 221.642 1416.64 baselig 1
AnchorPoint: "Anchor-6" 288.021 -274.333 baselig 1
AnchorPoint: "Anchor-6" 925.078 -270.55 baselig 0
AnchorPoint: "Anchor-9" 975.01 1467.81 baselig 0
LayerCount: 2
Fore
SplineSet
205 132.18359375 m 1
 273.301757812 124.583984375 335.01953125 121 399 121 c 0
 434.576171875 121 472.06640625 122.0078125 504.87109375 124.05859375 c 2
 542.21875 126.392578125 l 1
 531.817382812 162.338867188 l 2
 464.740234375 394.150390625 344.94921875 726.848632812 148.45703125 1180.75976562 c 1
 244.026367188 1232.71386719 l 1
 438.466796875 761.649414062 566.958007812 427.975585938 633.012695312 180.270507812 c 2
 641.18359375 149.631835938 l 1
 671.322265625 159.485351562 l 2
 843.283203125 215.703125 925 329.848632812 925 568 c 2
 925 1306 l 1
 1034 1306 l 1
 1034 567 l 2
 1034 159.349609375 828.12109375 3 396 3 c 0
 319.298828125 3 255.771484375 7.412109375 205 14.6142578125 c 1
 205 132.18359375 l 1
EndSplineSet
Position2: "Single Positioning lookup 2 subtable" dx=0 dy=0 dh=-143 dv=0
Position2: "Single Positioning lookup 1 subtable" dx=0 dy=0 dh=-104 dv=0
Position2: "Single Positioning lookup 0 subtable" dx=0 dy=0 dh=130 dv=0
PairPos2: "'kern' Horizontal Kerning lookup 4 subtable 0" uni0639 dx=-60 dy=0 dh=-60 dv=0 dx=0 dy=0 dh=0 dv=0
PairPos2: "'kern' Horizontal Kerning lookup 4 subtable 0" uni063A dx=-60 dy=0 dh=-60 dv=0 dx=0 dy=0 dh=0 dv=0
LCarets2: 1 0
Ligature2: "'rlig' Required Ligatures in Arabic lookup 5 subtable" uniFEDF uniFE8E
EndChar

StartChar: uniFEFC
Encoding: 65276 65276 263
GlifName: uniF_E_F_C_
Width: 1273
VWidth: 2920
GlyphClass: 3
Flags: HW
AnchorPoint: "Anchor-9" 974.01 1467.81 baselig 0
AnchorPoint: "Anchor-9" 221.642 1418.64 baselig 1
AnchorPoint: "Anchor-6" 925.078 -270.55 baselig 0
AnchorPoint: "Anchor-6" 288.021 -274.333 baselig 1
LayerCount: 2
Fore
SplineSet
244.026367188 1232.71386719 m 1
 438.466796875 761.649414062 566.289595887 430.464187883 633.012695312 180.270507812 c 2
 641.18359375 149.631835938 l 1
 671.322265625 159.485351562 l 2
 843.283203125 215.703125 925 329.848632812 925 568 c 6
 925 1306 l 1
 1034 1306 l 1
 1034 517 l 2
 1034 275.841796875 1086.36425781 120 1257 120 c 2
 1293 120 l 1
 1293 0 l 1
 1254 0 l 2
 1101.5234375 0 1026.93457031 65.078125 984.765625 207.516601562 c 2
 967.682617188 265.220703125 l 1
 931.884765625 216.845703125 l 2
 828.10546875 76.603515625 658.643554688 3 396 3 c 0
 319.298828125 3 255.771484375 7.412109375 205 14.6142578125 c 1
 205 132.106445312 l 1
 270.8984375 124.663085938 334.47265625 121 398 121 c 0
 433.57421875 121 471.072265625 122.009765625 504.814453125 124.0546875 c 2
 542.479492188 126.337890625 l 1
 531.765625 162.518554688 l 2
 463.719726562 392.295898438 344.049804688 724.6171875 148.376953125 1180.71679688 c 1
 244.026367188 1232.71386719 l 1
EndSplineSet
PairPos2: "'kern' Horizontal Kerning lookup 4 subtable 0" uni0639 dx=-60 dy=0 dh=-60 dv=0 dx=0 dy=0 dh=0 dv=0
PairPos2: "'kern' Horizontal Kerning lookup 4 subtable 0" uni063A dx=-60 dy=0 dh=-60 dv=0 dx=0 dy=0 dh=0 dv=0
LCarets2: 1 0
Ligature2: "'rlig' Required Ligatures in Arabic lookup 5 subtable" uniFEE0 uniFE8E
EndChar

StartChar: arabic_dot
Encoding: 65536 -1 264
GlifName: arabic_dot
Width: 189
VWidth: 2682
GlyphClass: 2
Flags: HW
LayerCount: 2
Fore
SplineSet
-21.6446030681 97.8496672476 m 1
 91.2001953125 210.694465629 l 1
 204.994328559 96.9003323817 l 1
 92.150274509 -15.9444652573 l 1
 -21.6446030681 97.8496672476 l 1
EndSplineSet
EndChar

StartChar: arabic_2dots
Encoding: 65537 -1 265
GlifName: arabic_2dots
Width: 504
VWidth: 2682
GlyphClass: 2
Flags: HW
LayerCount: 2
Fore
SplineSet
303.41197729 97.8850653556 m 5
 411.057774084 205.530862149 l 5
 519.472883553 97.884654165 l 5
 411.058183832 -11.2989441364 l 5
 303.41197729 97.8850653556 l 5
-28.5880227098 97.8850653556 m 5
 79.0577740837 205.530862149 l 5
 187.472883553 97.884654165 l 5
 79.0581838316 -11.2989441364 l 5
 -28.5880227098 97.8850653556 l 5
EndSplineSet
EndChar

StartChar: arabic_3dots
Encoding: 65538 -1 266
GlifName: arabic_3dots
Width: 504
VWidth: 2675
GlyphClass: 2
Flags: HW
LayerCount: 2
Fore
SplineSet
143.465656198 324.938744263 m 1
 243.061255737 424.534343802 l 1
 343.411600739 324.938512673 l 1
 243.061487327 224.588399261 l 1
 143.465656198 324.938744263 l 1
315.465656198 62.938744263 m 1
 415.061255737 162.534343802 l 1
 515.411600739 62.9385126731 l 1
 415.061487327 -37.4116007385 l 1
 315.465656198 62.938744263 l 1
-24.5343438024 62.938744263 m 1
 75.061255737 162.534343802 l 1
 175.411600739 62.9385126731 l 1
 75.0614873269 -37.4116007385 l 1
 -24.5343438024 62.938744263 l 1
EndSplineSet
EndChar

StartChar: arabic_3dots_a
Encoding: 65539 -1 267
GlifName: arabic_3dots_a
Width: 504
VWidth: 2689
GlyphClass: 2
Flags: HW
LayerCount: 2
Fore
SplineSet
144.465656198 -133.938744263 m 1
 244.061487327 -33.5883992615 l 1
 344.411600739 -133.938512673 l 1
 244.061255737 -233.534343802 l 1
 144.465656198 -133.938744263 l 1
316.465656198 128.061255737 m 1
 416.061487327 228.411600739 l 1
 516.411600739 128.061487327 l 1
 416.061255737 28.4656561976 l 1
 316.465656198 128.061255737 l 1
-23.5343438024 128.061255737 m 1
 76.0614873269 228.411600739 l 1
 176.411600739 128.061487327 l 1
 76.061255737 28.4656561976 l 1
 -23.5343438024 128.061255737 l 1
EndSplineSet
EndChar

StartChar: uni066E.fina
Encoding: 65540 -1 268
GlifName: uni066E_.fina
Width: 1878
VWidth: 2920
GlyphClass: 2
Flags: HW
AnchorPoint: "Anchor-10" 892.51 1395.59 basechar 0
AnchorPoint: "Anchor-7" 795.357 -289.261 basechar 0
LayerCount: 2
Fore
SplineSet
985 0 m 2
 840 0 l 2
 365.087890625 0 128 156.538085938 128 454 c 0
 128 528.747070312 143.16015625 602.15234375 168.837890625 669.712890625 c 1
 267.112304688 633.100585938 l 1
 250.8671875 581.138671875 243 531.252929688 243 478.931640625 c 0
 244.119140625 232.771484375 459.916992188 120 830 120 c 2
 980 120 l 2
 1237.94726562 120 1418.90917969 158.368164062 1503.08984375 259.845703125 c 0
 1531.08203125 293.58984375 1545 340.740234375 1545 402 c 0
 1545 446.080078125 1542.16796875 492.119140625 1539.68554688 531.705078125 c 1
 1641.11132812 544.3046875 l 1
 1655.06640625 328.004882812 l 2
 1663.72460938 198.127929688 1733.15820312 122.724609375 1866 120.059570312 c 1
 1898 120.059570312 l 5
 1898 0 l 5
 1866 0.0517578125 l 1
 1736.97851562 1.9736328125 1657.23535156 54.42578125 1602.74121094 161.59765625 c 2
 1583.49609375 199.447265625 l 1
 1554.25 168.662109375 l 2
 1449.4453125 58.341796875 1251.71875 0 985 0 c 2
EndSplineSet
EndChar

StartChar: uni06A1.fina
Encoding: 65543 -1 269
GlifName: uni06A_1.fina
Width: 1962
VWidth: 2920
GlyphClass: 2
Flags: HW
AnchorPoint: "Anchor-10" 713.816 1541.03 basechar 0
AnchorPoint: "Anchor-7" 590.121 -341.592 basechar 0
LayerCount: 2
Fore
SplineSet
1501 681 m 0
 1413.0859375 681 1299 544.328125 1299 460 c 0
 1299 380.5546875 1416.79785156 210 1506 210 c 0
 1600.78027344 210 1715 385.810546875 1715 468 c 0
 1715 542.190429688 1608.02636719 681 1501 681 c 0
960 120 m 2
 1218.91210938 120 1277.09277344 122.313476562 1326.43457031 134.935546875 c 2
 1377.44238281 147.984375 l 1
 1340.21289062 185.212890625 l 2
 1238.71582031 286.7109375 1191 362.255859375 1191 466 c 0
 1191 588.991210938 1344.02832031 796 1503 796 c 0
 1674.45996094 796 1824 607.387695312 1824 481 c 0
 1824 365.879882812 1775.48144531 295.837890625 1672.01660156 184.413085938 c 2
 1640.31347656 150.272460938 l 1
 1684.51269531 135.5390625 l 2
 1724.19335938 122.3125 1769.99707031 120 1888 120 c 2
 1982 120 l 5
 1982 0 l 5
 1890 0 l 2
 1719.22558594 0 1613.21386719 35.2529296875 1520.76269531 103.176757812 c 2
 1503.72363281 115.6953125 l 1
 1486.20410156 103.857421875 l 2
 1383.91015625 34.740234375 1210.82421875 0 965 0 c 2
 840 0 l 2
 365.067382812 0 128 156.11328125 128 454 c 0
 128 529.00390625 142.884765625 602.756835938 168.744140625 670.146484375 c 1
 267.47265625 633.044921875 l 1
 250.883789062 580.497070312 243 531.161132812 243 478.921875 c 0
 244.127929688 233.030273438 459.900390625 120 830 120 c 2
 960 120 l 2
EndSplineSet
EndChar

StartChar: uni06A1.init
Encoding: 65544 -1 270
GlifName: uni06A_1.init
Width: 918
VWidth: 2920
GlyphClass: 2
Flags: HW
AnchorPoint: "Anchor-10" 447.443 1574.02 basechar 0
AnchorPoint: "Anchor-7" 367.886 -277.023 basechar 0
LayerCount: 2
Fore
SplineSet
658.209960938 389.68359375 m 2
 599.186523438 371.595703125 535.22265625 362 466 362 c 0
 259.690429688 362 170.79296875 439.772460938 169 601.166992188 c 0
 169 814.20703125 282.90234375 982 466 982 c 0
 687.271484375 982 790 728.768554688 790 432 c 0
 790 67.724609375 656.065429688 0 265 0 c 2
 -20 0 l 5
 -20 120 l 5
 276 120 l 2
 522.954101562 120 694.670898438 159.360351562 696.998046875 360.653320312 c 2
 697.47265625 401.715820312 l 1
 658.209960938 389.68359375 l 2
680.791015625 532.53125 m 2
 665.391601562 662.466796875 619.801757812 866 459 866 c 0
 350.987304688 866 270 755.176757812 270 628 c 0
 270 520.556640625 355.266601562 472 479 472 c 0
 539.512695312 472 600.333984375 482.583007812 659.57421875 500.250976562 c 2
 683.762695312 507.465820312 l 1
 680.791015625 532.53125 l 2
EndSplineSet
EndChar

StartChar: uni06A1.medi
Encoding: 65545 -1 271
GlifName: uni06A_1.medi
Width: 972
VWidth: 2920
GlyphClass: 2
Flags: HW
AnchorPoint: "Anchor-10" 532.544 1356.06 basechar 0
AnchorPoint: "Anchor-7" 507.517 -277.023 basechar 0
LayerCount: 2
Fore
SplineSet
511 681 m 0
 423.0859375 681 309 544.328125 309 460 c 0
 309 380.5546875 426.797851562 210 516 210 c 0
 610.780273438 210 725 385.810546875 725 468 c 0
 725 542.333984375 617.001953125 681 511 681 c 0
693.465820312 135.91015625 m 2
 734.5859375 120.490234375 792.790039062 120 898 120 c 2
 992 120 l 5
 992 0 l 5
 900 0 l 2
 742.466796875 0 622.505859375 35.7734375 530.762695312 103.176757812 c 2
 512.967773438 116.25 l 1
 495.1953125 103.145507812 l 2
 402.883789062 35.0771484375 277.90625 0 114 0 c 2
 -20 0 l 1
 -20 120 l 1
 114 120 l 2
 241.245117188 120 303.607421875 120.014648438 340.981445312 137.954101562 c 2
 379.151367188 156.275390625 l 1
 349.212890625 186.212890625 l 2
 247.736328125 287.690429688 201 362.123046875 201 466 c 0
 201 589.114257812 353.111328125 796 512 796 c 0
 683.541992188 796 834 607.267578125 834 481 c 0
 834 375.756835938 784.244140625 285.6953125 682.889648438 185.315429688 c 2
 649.610351562 152.356445312 l 1
 693.465820312 135.91015625 l 2
EndSplineSet
EndChar

StartChar: uni066F.fina
Encoding: 65546 -1 272
GlifName: uni066F_.fina
Width: 1450
VWidth: 2950
GlyphClass: 2
Flags: HW
AnchorPoint: "Anchor-10" 758.297 969.41 basechar 0
AnchorPoint: "Anchor-7" 713.744 -728.409 basechar 0
LayerCount: 2
Fore
SplineSet
304.858398438 375.119140625 m 1
 262.118164062 254.66796875 240 142.059570312 240 31 c 0
 240 -257.568359375 407.51171875 -407 728 -407 c 0
 1049.453125 -407 1180.51171875 -278.116210938 1203.86621094 -31.83203125 c 2
 1206.97949219 1 l 1
 1174 1 l 1
 1023 1 l 2
 789.255859375 1 689 87.9033203125 689 267 c 0
 689 485.524414062 820.083984375 661 993 661 c 0
 1169.42578125 661 1279.21289062 507.234375 1310.11035156 147.43359375 c 2
 1312.46582031 120 l 1
 1340 120 l 1
 1470 120 l 5
 1470 0 l 5
 1338 0 l 1
 1311.19140625 0 l 1
 1308.18847656 -26.6396484375 l 2
 1270.61523438 -359.983398438 1117.73144531 -520 721 -520 c 0
 314.328125 -520 128 -342.234375 128 26 c 0
 128 152.734375 153.965820312 284.143554688 204.693359375 415.83203125 c 1
 304.858398438 375.119140625 l 1
1205.93847656 152.918945312 m 2
 1191.04101562 385.321289062 1126.63769531 536 979 536 c 0
 862.158203125 536 794 403.161132812 794 282 c 0
 794 172.303710938 882.346679688 121 1013 121 c 2
 1176 121 l 1
 1207.984375 121 l 1
 1205.93847656 152.918945312 l 2
EndSplineSet
EndChar

StartChar: arabic_gaf_bar
Encoding: 65550 -1 273
GlifName: arabic_gaf_bar
Width: 751
VWidth: 2739
GlyphClass: 2
Flags: HW
LayerCount: 2
Fore
SplineSet
716 1810 m 1
 23 1552.5 l 1
 23 1626.20410156 l 5
 716 1883.70410156 l 5
 716 1810 l 1
EndSplineSet
EndChar

StartChar: guillemotleft
Encoding: 171 171 283
GlifName: guillemotleft
Width: 946
Flags: HW
LayerCount: 2
Fore
SplineSet
518 425 m 0
 518 503.59765625 557.90625 664.623046875 726.321289062 860.256835938 c 1
 775.506835938 815.34765625 l 1
 637.220703125 629.965820312 615 500.8828125 615 426 c 0
 615 344.90234375 636.657226562 221.608398438 775.55859375 34.69921875 c 1
 726.37890625 -10.2041015625 l 1
 557.66796875 186.711914062 518 346.46484375 518 425 c 0
140 425 m 0
 140 503.59765625 179.90625 664.623046875 348.321289062 860.256835938 c 1
 397.506835938 815.34765625 l 1
 259.220703125 629.965820312 237 500.8828125 237 426 c 0
 237 344.90234375 258.657226562 221.608398438 397.55859375 34.69921875 c 1
 348.37890625 -10.2041015625 l 1
 179.66796875 186.711914062 140 346.46484375 140 425 c 0
EndSplineSet
EndChar

StartChar: guillemotright
Encoding: 187 187 284
GlifName: guillemotright
Width: 946
Flags: HW
LayerCount: 2
Fore
SplineSet
428 425 m 0
 428 346.587890625 387.098632812 185.271484375 219.62109375 -10.2041015625 c 1
 170.44140625 34.69921875 l 1
 310.577148438 223.26953125 331 344.69921875 331 426 c 0
 331 500.68359375 307.53125 631.638671875 170.493164062 815.34765625 c 1
 219.678710938 860.256835938 l 1
 389.330078125 663.1875 428 503.716796875 428 425 c 0
806 425 m 0
 806 346.587890625 765.098632812 185.271484375 597.62109375 -10.2041015625 c 1
 548.44140625 34.69921875 l 1
 688.577148438 223.26953125 709 344.69921875 709 426 c 0
 709 500.68359375 685.53125 631.638671875 548.493164062 815.34765625 c 1
 597.678710938 860.256835938 l 1
 767.330078125 663.1875 806 503.716796875 806 425 c 0
EndSplineSet
EndChar

StartChar: NameMe.302
Encoding: 65562 -1 293
GlifName: N_ameM_e.302
Width: 525
VWidth: 2920
Flags: HW
LayerCount: 2
Fore
SplineSet
22 0 m 2
 -20 0 l 1
 -20 120 l 1
 24 120 l 2
 203.180664062 120 218 234.216796875 218 399 c 2
 218 989 l 5
 327 989 l 5
 327 399 l 2
 327 237.392578125 338.374023438 120 502 120 c 2
 545 120 l 1
 545 0 l 1
 505 0 l 2
 359.868576316 0 304.578293644 55.6690827942 270.44140625 158.41796875 c 1
 226.794836025 52.2438389673 177.443899465 0 22 0 c 2
EndSplineSet
EndChar

StartChar: NameMe.303
Encoding: 65563 -1 294
GlifName: N_ameM_e.303
Width: 487
VWidth: 2920
Flags: HW
LayerCount: 2
Fore
SplineSet
11 0 m 1
 -20 0 l 1
 -20 120 l 1
 11 120 l 1
 166.390625 120 200 230.158203125 200 373 c 2
 200 1142 l 5
 309 1142 l 5
 309 375 l 2
 309 123.657226562 238.9609375 0.7470703125 11 0 c 1
EndSplineSet
EndChar

StartChar: NameMe.65564
Encoding: 65564 -1 297
GlifName: N_ameM_e.65564
Width: 527
VWidth: 2920
Flags: HW
AnchorPoint: "Anchor-10" 232.697 1266.11 basechar 0
AnchorPoint: "Anchor-7" 292.078 -271.903 basechar 0
LayerCount: 2
Fore
SplineSet
516 0.0244140625 m 1
 290.072265625 2.0048828125 178 100.43359375 178 374 c 2
 178 1107 l 5
 287 1107 l 5
 287 374 l 2
 287 194.326171875 373.919921875 122.037109375 516 120.03515625 c 1
 547 120.03515625 l 1
 547 0.0244140625 l 1
 516 0.0244140625 l 1
EndSplineSet
EndChar

StartChar: NameMe.65565
Encoding: 65565 -1 298
GlifName: N_ameM_e.65565
Width: 716
VWidth: 2957
Flags: HW
LayerCount: 2
Fore
SplineSet
127.546794745 -294.87545041 m 1
 164.627594973 -301.903112995 200.472635214 -305 233 -305 c 0
 340.348703474 -305 416.712528051 -287.439202565 461.416286768 -251.676195592 c 0
 494.347974941 -225.11838255 513 -195.069217034 513 -162 c 0
 513 -137.092623075 491.562441111 -124.130502441 463.449775189 -123.005995804 c 2
 363.3796252 -121.004804613 l 2
 291.414419411 -119.182900669 259 -86.0850553537 259 -13 c 0
 259 141.765090267 411.531624844 226.016523853 603.901470283 232.650958639 c 1
 596.977471315 132.6376402 l 1
 447.178335523 127.581407031 364.193411637 85.9143736451 353.105175887 -7.22680665322 c 2
 351.180644215 -23.3928726963 l 1
 367.449911559 -23.98991003 l 1
 476.558307154 -27.99388785 l 2
 560.600993672 -29.8615031059 605 -69.1645643611 605 -151 c 0
 605 -200.124802708 582.30302774 -249.677672829 536.907155049 -299.902893679 c 0
 474.993870821 -367.444658291 372.868346664 -403 226 -403 c 0
 190.442378415 -403 151.596603872 -399.790024654 113.006571531 -394.361188192 c 1
 127.546794745 -294.87545041 l 1
EndSplineSet
EndChar

StartChar: uni060D
Encoding: 1549 1549 299
Width: 828
VWidth: 4006
Flags: HW
LayerCount: 2
Fore
SplineSet
630.03125 1389.95019531 m 1
 715.53125 1364.24023438 l 1
 178.96875 -203.950195312 l 1
 93.46875 -178.240234375 l 1
 630.03125 1389.95019531 l 1
EndSplineSet
EndChar

StartChar: NameMe.65541
Encoding: 65541 -1 300
Width: 592
VWidth: 2920
Flags: HW
AnchorPoint: "Anchor-10" 261.384 1321 basechar 0
AnchorPoint: "Anchor-7" 253.422 -255.625 basechar 0
LayerCount: 2
Fore
SplineSet
425.033203125 671.834960938 m 1
 450.416992188 576.455078125 464 471.32421875 464 386 c 0
 464 131.821289062 344.991210938 0 99 0 c 2
 -20 0 l 5
 -20 120 l 5
 99 120 l 2
 267.739257812 120 353 203.142578125 353 383 c 0
 353 456.395507812 341.24609375 555.987304688 321.807617188 646.028320312 c 1
 425.033203125 671.834960938 l 1
EndSplineSet
EndChar

StartChar: NameMe.65542
Encoding: 65542 -1 301
Width: 687
VWidth: 2950
Flags: HW
AnchorPoint: "Anchor-10" 265.665 1265.09 basechar 0
AnchorPoint: "Anchor-7" 320.537 -209.742 basechar 0
LayerCount: 2
Fore
SplineSet
676 0.046875 m 1
 552.545898438 1.8642578125 483.042053026 44.9687830084 438.369140625 127.306640625 c 2
 415.634765625 169.208984375 l 1
 387.693359375 130.583984375 l 2
 326.2265625 45.615234375 226.678710938 0 101 0 c 2
 -20 0 l 5
 -20 120 l 5
 101 120 l 2
 274.41015625 120 353 204.77734375 353 367 c 0
 353 420.733398438 349.252929688 480.053710938 346.424804688 531.610351562 c 1
 451.123046875 544.377929688 l 1
 465.065429688 330.020507812 l 2
 473.557584842 199.457711661 546.10546875 123.559570312 676 120.103515625 c 1
 707 120.103515625 l 1
 707 0.046875 l 1
 676 0.046875 l 1
EndSplineSet
EndChar

StartChar: uniFBFD.compact
Encoding: 65575 -1 321
Width: 1437
VWidth: 2703
Flags: HW
AnchorPoint: "Anchor-7" 718.902 -728.086 basechar 0
AnchorPoint: "Anchor-10" 681.6 623.22 basechar 0
LayerCount: 2
Fore
SplineSet
286.419921875 317.9609375 m 1
 255.26953125 222.74609375 240 128.154296875 240 30 c 0
 240 -256.403320312 408.090820312 -407 719 -407 c 0
 955.249023438 -407 1234 -306.813476562 1234 -137 c 0
 1234 -54.0458984375 1154.75878906 0 1040 0 c 2
 917 0 l 2
 896.856445312 0 888.040039062 8.9580078125 881.211914062 38.8310546875 c 2
 865.150390625 106 l 2
 862.845711672 115.638117777 864 120 874 120 c 2
 1457 120 l 5
 1457 0 l 5
 1338 0 l 1
 1289.85253906 0 l 1
 1309.85612365 -30.7464741132 1336 -80.6952486915 1336 -144 c 0
 1336 -350.266601562 1102.32714844 -519 720 -519 c 0
 316.53125 -519 129 -340.383789062 129 31 c 0
 129 125.783203125 149.397460938 261.248046875 186.380859375 358.885742188 c 1
 286.419921875 317.9609375 l 1
EndSplineSet
EndChar

StartChar: uniFECC.compact
Encoding: 65579 -1 324
Width: 1071
VWidth: 2920
Flags: HW
AnchorPoint: "Anchor-7" 574.511 -267.021 basechar 0
AnchorPoint: "Anchor-10" 598.107 1070.89 basechar 0
LayerCount: 2
Fore
SplineSet
727.935546875 174.056640625 m 2
 797.959960938 133.397460938 890.807617188 120 1045 120 c 2
 1091 120 l 1
 1091 0 l 1
 1045 0 l 2
 847.09765625 0 726.5625 47.74609375 623.907226562 117.782226562 c 2
 606.829101562 129.43359375 l 1
 589.861328125 117.622070312 l 2
 493.896484375 50.8232421875 355.399414062 0 87 0 c 2
 -20 0 l 5
 -20 120 l 5
 90 120 l 2
 292.001953125 120 411.965820312 129.713867188 476.392578125 175.556640625 c 2
 513.978515625 202.299804688 l 1
 474.290039062 225.810546875 l 2
 289.98046875 334.995117188 197 428.895507812 197 529 c 0
 197 651.088867188 393.989257812 716 607 716 c 0
 805.922851562 716 1010 650.833984375 1010 529 c 0
 1010 453.990234375 913.759765625 338.23828125 727.484375 225.67578125 c 2
 684.141601562 199.485351562 l 1
 727.935546875 174.056640625 l 2
618.46875 273.719726562 m 2
 701.201171875 319.26953125 892 418.336914062 892 506 c 0
 892 591.380859375 760.247070312 602 604 602 c 0
 449.194335938 602 315 593.452148438 315 506 c 0
 315 419.1875 489.365234375 323.776367188 590.583984375 273.166992188 c 2
 604.670898438 266.123046875 l 1
 618.46875 273.719726562 l 2
EndSplineSet
EndChar

StartChar: uniFEEE.compact
Encoding: 65581 -1 327
Width: 876
VWidth: 2142
Flags: HW
AnchorPoint: "Anchor-10" 430.256 1000.2 basechar 0
AnchorPoint: "Anchor-7" 415.969 -649.998 basechar 0
LayerCount: 2
Fore
SplineSet
432 660 m 0
 615.806640625 660 725.188476562 507.171875 749.06640625 148.009765625 c 2
 750.928710938 120 l 1
 779 120 l 1
 896 120 l 5
 896 0 l 5
 767 0 l 1
 742.068359375 0 l 1
 737.506835938 -24.5107421875 l 2
 690.115234375 -279.122070312 511.829101562 -454.46484375 186.795898438 -523.604492188 c 1
 148.892578125 -426.3203125 l 1
 423.747070312 -366.041992188 588.283203125 -226.967773438 639.939453125 -37.9072265625 c 2
 650.295898438 0 l 1
 611 0 l 1
 462 0 l 2
 228.255859375 0 128 86.9033203125 128 266 c 0
 128 483.467773438 260.140625 660 432 660 c 0
645.938476562 151.918945312 m 2
 631.029296875 384.5 565.53515625 535 418 535 c 0
 301.158203125 535 233 402.161132812 233 281 c 0
 233 171.303710938 321.346679688 120 452 120 c 2
 616 120 l 1
 647.984375 120 l 1
 645.938476562 151.918945312 l 2
EndSplineSet
EndChar

StartChar: figuredash
Encoding: 8210 8210 329
Width: 1170
Flags: HW
LayerCount: 2
Fore
SplineSet
1003 651 m 1
 168 651 l 1
 168 782 l 5
 1003 782 l 5
 1003 651 l 1
EndSplineSet
EndChar

StartChar: NameMe.65583
Encoding: 65583 -1 340
Width: 465
VWidth: 2703
Flags: HW
LayerCount: 2
Fore
SplineSet
202.145439797 1325.5703125 m 2
 370.381291455 1325.5703125 436.240234375 1340.97017628 436.240234375 1422.11035156 c 0
 436.240234375 1477.31252832 395.609939337 1519.85058594 337.08984375 1519.85058594 c 0
 260.169267569 1519.85058594 209.709002124 1466.53155241 126.250002954 1336.65513397 c 2
 118.76504447 1325.00726365 l 1
 132.610214952 1325.10075693 l 1
 202.145439797 1325.5703125 l 2
-36.788082377 1316.7046181 m 1
 -23.1113493185 1382.42966415 l 1
 -7.30433394493 1369.09382889 18.6806205636 1348.23294132 42.4829103589 1339.21678621 c 2
 48.3729442792 1336.98567904 l 1
 51.5885518358 1342.401416 l 2
 158.733122407 1522.85465874 232.456711649 1590.390625 333.330078125 1590.390625 c 0
 435.309989122 1590.390625 504.900438258 1520.83526907 504.900438258 1426.3675504 c 0
 504.451399763 1300.37591935 429.37207113 1255.5 204 1255.5 c 2
 180.030273438 1255.5 l 2
 64.25321226 1255.5 -9.17942015044 1276.70122754 -36.788082377 1316.7046181 c 1
EndSplineSet
EndChar

StartChar: uni06CD
Encoding: 1741 1741 352
Width: 1681
VWidth: 2950
Flags: HW
AnchorPoint: "Anchor-7" 920.902 -706.086 basechar 0
AnchorPoint: "Anchor-10" 848.6 906.22 basechar 0
LayerCount: 2
Fore
SplineSet
342.809570312 359.834960938 m 1
 99.0791015625 261.848632812 l 1
 120.001953125 360.071289062 l 1
 409.892578125 475.66015625 l 1
 526.0390625 428.452148438 l 1
 471.21484375 288.6875 443 170.564453125 443 52 c 0
 443 -236.60546875 613.215820312 -386.9609375 928 -388 c 0
 1162.16113281 -388 1451 -287.762695312 1451 -72 c 0
 1451 9.5302734375 1359.43066406 16 1322 16 c 2
 1178 16 l 2
 1031.63476562 16 962 85.3203125 962 233 c 0
 962 484.884765625 1167.35839844 646.53515625 1395.55859375 646.53515625 c 0
 1428.23339844 646.53515625 1484.34375 644.87890625 1541.72167969 625.822265625 c 1
 1520.70410156 517.450195312 l 1
 1471.82421875 529.01171875 1429.54980469 531.233398438 1395.96875 531.233398438 c 0
 1203.15722656 531.233398438 1071 386.841796875 1071 246 c 0
 1071 176.69140625 1102.49023438 132 1188 132 c 2
 1367.9375 132 l 2
 1495.32128906 131.46875 1553 63.6044921875 1553 -32 c 0
 1553 -328.259765625 1307.52441406 -499 923 -499 c 0
 521.41015625 -499 332 -321.20703125 332 49 c 0
 332 148.711914062 345.040039062 208.575195312 382.501953125 322.638671875 c 2
 402.614257812 383.877929688 l 1
 342.809570312 359.834960938 l 1
EndSplineSet
Substitution2: "'fina' Terminal Forms in Arabic lookup 1 subtable" uni06CD.fina
EndChar

StartChar: uni06CD.compact
Encoding: 65585 -1 353
Width: 1677
VWidth: 2703
Flags: HW
AnchorPoint: "Anchor-7" 958.902 -728.086 basechar 0
AnchorPoint: "Anchor-10" 921.6 623.22 basechar 0
LayerCount: 2
Fore
SplineSet
99.0595703125 151.760742188 m 1
 120.001953125 250.071289062 l 1
 409.85546875 365.645507812 l 1
 526.419921875 317.9609375 l 1
 495.26953125 222.74609375 480 128.154296875 480 30 c 0
 480 -256.403320312 648.090820312 -407 959 -407 c 0
 1195.24902344 -407 1474 -306.813476562 1474 -137 c 0
 1474 -54.0458984375 1394.75878906 0 1280 0 c 2
 1157 0 l 2
 1136.85644531 0 1128.04003906 8.9580078125 1121.21191406 38.8310546875 c 2
 1101.80273438 120 l 1
 1667 120 l 1
 1667 0 l 1
 1578 0 l 1
 1529.85253906 0 l 1
 1551.0703125 -43.2197265625 l 2
 1576.22070312 -94.4521484375 1576 -117.555664062 1576 -144 c 0
 1576 -350.266601562 1342.32714844 -519 960 -519 c 0
 556.53125 -519 369 -340.383789062 369 31 c 0
 369 93.4521484375 377.162109375 142.033203125 394.40234375 219.481445312 c 2
 406.759765625 274.993164062 l 1
 353.965820312 253.849609375 l 1
 99.0595703125 151.760742188 l 1
EndSplineSet
EndChar

StartChar: NameMe.65587
Encoding: 65587 -1 355
Width: 504
VWidth: 2682
Flags: HW
LayerCount: 2
Fore
SplineSet
244.672851562 155.0859375 m 1
 137.02734375 262.731445312 l 1
 244.673828125 371.146484375 l 1
 353.857421875 262.731445312 l 1
 244.672851562 155.0859375 l 1
244.672851562 -126.9140625 m 1
 137.02734375 -19.2685546875 l 1
 244.673828125 89.146484375 l 1
 353.857421875 -19.2685546875 l 1
 244.672851562 -126.9140625 l 1
EndSplineSet
EndChar

StartChar: uni06D2
Encoding: 1746 1746 385
Width: 1744
VWidth: 0
Flags: HW
AnchorPoint: "Anchor-7" 881.902 -210.086 basechar 0
AnchorPoint: "Anchor-10" 585.53 1070.1 basechar 0
LayerCount: 2
Fore
SplineSet
795.516601562 466.9453125 m 1
 744.284179688 536.059570312 683.736328125 623.084960938 611.037109375 688.327148438 c 2
 585.693359375 711.072265625 l 1
 566.325195312 683.0625 l 2
 499.875 586.966796875 487.95703125 554.130859375 419.916015625 472.161132812 c 0
 300.959960938 328.850585938 241 330.885742188 241 269 c 0
 241 145.71484375 545.649414062 110.009765625 807.669921875 110.009765625 c 0
 1163.96777344 110.009765625 1506.46679688 156.60546875 1611.15625 172.188476562 c 1
 1615.10253906 55.1240234375 l 1
 1516.83691406 42.365234375 1168.13574219 0.67578125 810.045898438 0.67578125 c 0
 482.752929688 0.67578125 128 47.8828125 128 253 c 0
 128 370.342773438 233.866210938 388.904296875 363.721679688 556.634765625 c 0
 515.688476562 752.924804688 514.236328125 812 584 812 c 0
 665.833984375 812 815.438476562 621.299804688 869.6875 532.240234375 c 1
 795.516601562 466.9453125 l 1
EndSplineSet
Position2: "Single Positioning lookup 2 subtable" dx=0 dy=0 dh=-120 dv=0
Position2: "Single Positioning lookup 1 subtable" dx=0 dy=0 dh=-120 dv=0
Substitution2: "'fina' Terminal Forms in Arabic lookup 1 subtable" uniFBAF
EndChar

StartChar: uni06D4
Encoding: 1748 1748 387
Width: 632
VWidth: 2950
Flags: HW
LayerCount: 2
Fore
SplineSet
98 0 m 1
 98 180 l 1
 534 180 l 5
 534 0 l 5
 98 0 l 1
EndSplineSet
EndChar

StartChar: uniFBA7
Encoding: 64423 64423 388
Width: 919
VWidth: 2950
Flags: HW
AnchorPoint: "Anchor-10" 465.28 864.77 basechar 0
AnchorPoint: "Anchor-7" 442.251 -236.396 basechar 0
LayerCount: 2
Fore
SplineSet
219.166992188 -12.978515625 m 1
 130.68359375 8.83984375 l 1
 170.112304688 325.872070312 353.688476562 545 479 545 c 0
 697.9765625 545 637.07421875 120 906 120 c 2
 939 120 l 5
 939 0 l 5
 907 0 l 2
 596.236328125 0 638.291992188 402 482 402 c 0
 373.598632812 402 258.944335938 226.190429688 219.166992188 -12.978515625 c 1
EndSplineSet
EndChar

StartChar: uniFBA9
Encoding: 64425 64425 390
Width: 1002
Flags: HW
AnchorPoint: "Anchor-7" 604.251 -737.396 basechar 0
AnchorPoint: "Anchor-10" 483.28 804.77 basechar 0
LayerCount: 2
Fore
SplineSet
207.892578125 46.9853515625 m 2
 138.09375 13.0830078125 105.500976562 0 43 0 c 2
 -20 0 l 5
 -20 120 l 5
 45 120 l 2
 210.357421875 120 274.989257812 177.518554688 374.2421875 271.149414062 c 1
 443.426757812 194.416992188 l 1
 441.236328125 192.481445312 l 2
 417.62890625 171.623046875 398.715820312 148.765625 384.301757812 124.541992188 c 0
 275.584960938 -58.1689453125 424.286132812 -290.490234375 569.6875 -376.797851562 c 2
 615 -403.694335938 l 1
 615 -351 l 2
 615 -45.615234375 738.354492188 120 988 120 c 2
 1022 120 l 1
 1022 0 l 1
 986 0 l 2
 796.73828125 0 703 -132.083984375 703 -360 c 0
 703 -384.48828125 703.8203125 -413.549804688 705.885742188 -440.439453125 c 1
 610.213867188 -533.739257812 l 1
 400.588867188 -427.291992188 258.42578125 -245.069335938 250.98828125 20.8388671875 c 2
 249.689453125 67.2861328125 l 1
 207.892578125 46.9853515625 l 2
EndSplineSet
EndChar

StartChar: uniFBAA
Encoding: 64426 64426 391
Width: 1487
VWidth: 2703
Flags: HW
AnchorPoint: "Anchor-10" 727.134 1222.79 basechar 0
AnchorPoint: "Anchor-7" 628.852 -239.953 basechar 0
LayerCount: 2
Fore
SplineSet
47 120 m 5
 119 120 l 5
 119 0 l 1
 95 0 l 1
 47 120 l 5
EndSplineSet
Refer: 246 65259 N 1 0 0 1 118 0 2
EndChar

StartChar: uniFBAB
Encoding: 64427 64427 392
Width: 1120
VWidth: 2703
Flags: HW
AnchorPoint: "Anchor-10" 659.648 1135.04 basechar 0
AnchorPoint: "Anchor-7" 705.16 -709.603 basechar 0
LayerCount: 2
Fore
SplineSet
47 120 m 5
 119 120 l 5
 119 0 l 1
 95 0 l 1
 47 120 l 5
EndSplineSet
Refer: 247 65260 N 1 0 0 1 118 0 2
EndChar

StartChar: uni0658
Encoding: 1624 1624 397
Width: 0
VWidth: 2316
Flags: HW
AnchorPoint: "Anchor-7" 711.902 -612.086 basechar 0
AnchorPoint: "Anchor-10" 603.219 1239.43 mark 0
AnchorPoint: "Anchor-9" 603.219 1239.43 mark 0
AnchorPoint: "Anchor-1" 598.537 1560.66 basemark 0
AnchorPoint: "Anchor-1" 603.219 1239.43 mark 0
LayerCount: 2
Fore
SplineSet
826.389471329 1529 m 1
 809.962379653 1388.12059278 733.105202514 1282.1953125 591.306640625 1282.1953125 c 0
 448.491239925 1282.1953125 372.37077657 1390.5120706 356.225740162 1529 c 1
 436.923985815 1529 l 1
 451.552571501 1434.4481703 491.936026325 1364.0703125 591.306640625 1364.0703125 c 0
 691.997229683 1364.0703125 730.151001463 1437.59403512 743.962830344 1529 c 1
 826.389471329 1529 l 1
EndSplineSet
EndChar

StartChar: uniFBC0
Encoding: 64448 64448 398
Width: 0
VWidth: 2712
Flags: HW
AnchorPoint: "Anchor-10" 674.729 1661.91 mark 0
AnchorPoint: "Anchor-9" 674.729 1661.91 mark 0
AnchorPoint: "Anchor-1" 673.079 2352.57 basemark 0
AnchorPoint: "Anchor-1" 674.729 1661.91 mark 0
LayerCount: 2
Fore
SplineSet
640.561809936 1822.54980469 m 2
 804.212247464 1822.54980469 882.275390625 1857.0943021 882.275390625 1922.95019531 c 0
 882.275390625 1969.83174027 848.542081716 2005.34960938 798.525390625 2005.34960938 c 0
 735.586424077 2005.34960938 665.104292186 1946.09336225 591.805117966 1837.88490268 c 2
 581.145410486 1822.148429 l 1
 600.151974672 1822.27682407 l 1
 640.561809936 1822.54980469 l 2
493.214660839 1826.37028034 m 2
 502.749162925 1841.705295 512.140926106 1856.41574579 519.824716765 1868.555707 c 2
 521.375 1871.00506815 l 1
 521.375 1873.90381756 l 1
 521.375 2297.34960938 l 1
 521.375 2301.34960938 l 1
 525.375 2301.34960938 l 1
 601.424804688 2301.34960938 l 1
 605.424804688 2301.34960938 l 1
 605.424804688 2297.34960938 l 1
 605.424804688 2015.15240966 l 1
 605.424804688 1990.07620835 l 1
 622.68062735 2008.27105532 l 2
 677.279577789 2065.84116182 732.549053626 2094.79980469 794.474609375 2094.79980469 c 0
 898.601788278 2094.79980469 970.375253414 2023.68922146 970.375253414 1926.57097149 c 0
 969.449991708 1796.60619825 858.196804511 1732.65039062 642.375 1732.65039062 c 2
 392.625 1732.65039062 l 1
 388.625 1732.65039062 l 1
 388.625 1736.65039062 l 1
 388.625 1817.65039062 l 1
 388.625 1821.65039062 l 1
 392.625 1821.65039062 l 1
 484.722285701 1821.65039062 l 1
 490.280082722 1821.65039062 l 1
 493.214660839 1826.37028034 l 2
EndSplineSet
EndChar

StartChar: uniFBBF
Encoding: 64447 64447 403
Width: 0
VWidth: 0
Flags: HW
LayerCount: 2
Fore
SplineSet
121.193359375 386.977539062 m 4
 121.193359375 337.837890625 160.8828125 299.092773438 210.022460938 299.092773438 c 4
 259.162109375 299.092773438 297.907226562 337.837890625 297.907226562 386.977539062 c 4
 297.907226562 436.1171875 259.162109375 475.806640625 210.022460938 475.806640625 c 4
 160.8828125 475.806640625 121.193359375 436.1171875 121.193359375 386.977539062 c 4
46.2001953125 387 m 0
 46.2001953125 477 120 550.799804688 210 550.799804688 c 0
 300 550.799804688 373.799804688 477 373.799804688 387 c 0
 373.799804688 297 300 223.200195312 210 223.200195312 c 0
 120 223.200195312 46.2001953125 297 46.2001953125 387 c 0
EndSplineSet
EndChar

StartChar: uniFBAF.compact
Encoding: 65613 -1 408
Width: 1207
VWidth: 2950
Flags: HW
AnchorPoint: "Anchor-7" 802.902 -662.086 basechar 0
AnchorPoint: "Anchor-10" 756.53 489.1 basechar 0
LayerCount: 2
Fore
SplineSet
656 0 m 2
 440.250976562 0 241 -136.754882812 241 -201 c 0
 241 -324.28515625 545.649414062 -359.990234375 807.669921875 -359.990234375 c 0
 1091.50976562 -359.990234375 1269.82714844 -319.326171875 1337.96777344 -300.197265625 c 1
 1362.28320312 -406.416992188 l 1
 1289.1328125 -424.603515625 1081.9765625 -469.32421875 810.045898438 -469.32421875 c 0
 482.752929688 -469.32421875 128 -422.1171875 128 -217 c 0
 128 -89.998046875 386.989257812 120 660 120 c 2
 1227 120 l 1
 1227 0 l 1
 656 0 l 2
EndSplineSet
EndChar

StartChar: uni06F4.urdu
Encoding: 65615 -1 412
Width: 1246
VWidth: 2950
Flags: HW
LayerCount: 2
Fore
SplineSet
237 1081 m 0
 237 1193.45703125 296.584960938 1256.71191406 396.576171875 1256.71191406 c 0
 595.551757812 1256.71191406 757.192382812 1078.10644531 826.32421875 853.186523438 c 2
 864.586914062 728.6953125 l 1
 884.642578125 857.380859375 l 2
 906.224609375 995.865234375 951.830078125 1142.74511719 1003.44433594 1246.13378906 c 1
 1102.08886719 1192.67480469 l 1
 1016.18554688 1065.49511719 961.428710938 917.813476562 923.784179688 709 c 1
 806.767578125 709 l 1
 704.7109375 974.099609375 556.208007812 1141.33105469 437.58203125 1141.33105469 c 0
 379.228515625 1141.33105469 348.9765625 1105.58398438 348.9765625 1049.87304688 c 0
 348.9765625 948.302734375 447 767.212890625 447 215 c 2
 447 0 l 1
 337 0 l 1
 337 218 l 2
 337 768.151367188 237 958.743164062 237 1081 c 0
EndSplineSet
EndChar

StartChar: uni06F7.urdu
Encoding: 65616 -1 413
Width: 1056
VWidth: 2950
Flags: HW
LayerCount: 2
Fore
SplineSet
140.875 0 m 1
 160.14453125 333.931640625 486.487304688 894.5078125 793.452148438 1229.49511719 c 1
 878.325195312 1149.84570312 l 1
 539.591796875 822.142578125 303.358398438 367.060546875 270.35546875 154.604492188 c 2
 264.98046875 120 l 1
 300 120 l 1
 926 120 l 1
 926 0 l 1
 140.875 0 l 1
EndSplineSet
EndChar

StartChar: uni06E9
Encoding: 1769 1769 418
Width: 1180
VWidth: 0
Flags: HW
LayerCount: 2
Fore
SplineSet
527.710431502 65.3603515625 m 1
 540.244188659 74.5762815308 l 1
 544.3203125 77.5734093189 l 1
 544.3203125 82.6328125 l 1
 544.3203125 678.62890625 l 1
 544.3203125 682.771041874 l 1
 541.391380312 685.699974062 l 1
 407.792526249 819.298828125 l 1
 590 1001.50630188 l 1
 772.207473751 819.298828125 l 1
 638.608619688 685.699974062 l 1
 635.6796875 682.771041874 l 1
 635.6796875 678.62890625 l 1
 635.6796875 82.6328125 l 1
 635.6796875 77.5734093189 l 1
 639.755811341 74.5762815308 l 1
 652.289568498 65.3603515625 l 1
 527.710431502 65.3603515625 l 1
499.717018126 812.227760313 m 1
 582.928932188 729.01584625 l 1
 590 721.944778438 l 1
 597.071067812 729.01584625 l 1
 680.282981874 812.227760313 l 1
 687.354008194 819.298786633 l 1
 680.283023366 826.369854444 l 1
 597.071109304 909.582745069 l 1
 590 916.653937359 l 1
 582.928890696 909.582745069 l 1
 499.716976634 826.369854444 l 1
 492.645991806 819.298786633 l 1
 499.717018126 812.227760313 l 1
216.874244688 812.227760313 m 1
 404.3203125 624.781692501 l 1
 404.3203125 148.405065738 l 1
 205.595603046 2.28305520027 l 1
 201.51953125 -0.714074887416 l 1
 201.51953125 -5.7734375 l 1
 201.51953125 -64.6396484375 l 1
 201.51953125 -74.6396484375 l 1
 211.51953125 -74.6396484375 l 1
 968.48046875 -74.6396484375 l 1
 978.48046875 -74.6396484375 l 1
 978.48046875 -64.6396484375 l 1
 978.48046875 -5.7734375 l 1
 978.48046875 -0.714074887416 l 1
 974.404396954 2.28305520027 l 1
 775.6796875 148.405065738 l 1
 775.6796875 624.781692501 l 1
 963.125755312 812.227760313 l 1
 970.196813692 819.298818693 l 1
 963.125764744 826.369886505 l 1
 597.071077244 1192.42555057 l 1
 590 1199.49664668 l 1
 582.928922756 1192.42555057 l 1
 216.874235256 826.369886505 l 1
 209.803186308 819.298818693 l 1
 216.874244688 812.227760313 l 1
124.950722169 819.29883533 m 1
 590 1284.34906091 l 1
 1055.04927783 819.29883533 l 1
 838.608619688 602.858177187 l 1
 835.6796875 599.929244999 l 1
 835.6796875 595.787109375 l 1
 835.6796875 183.8203125 l 1
 835.6796875 178.760949887 l 1
 839.755759296 175.7638198 l 1
 1038.48046875 29.6418092624 l 1
 1038.48046875 -134.639648438 l 1
 141.51953125 -134.639648438 l 1
 141.51953125 29.6418092624 l 1
 340.244240704 175.7638198 l 1
 344.3203125 178.760949887 l 1
 344.3203125 183.8203125 l 1
 344.3203125 595.787109375 l 1
 344.3203125 599.929244999 l 1
 341.391380312 602.858177187 l 1
 124.950722169 819.29883533 l 1
EndSplineSet
EndChar

StartChar: uni06DE
Encoding: 1758 1758 419
Width: 1990
VWidth: 0
Flags: HW
LayerCount: 2
Fore
SplineSet
430.599609375 241.9453125 m 5
 430.599609375 20.140625 l 5
 430.599609375 10.140625 l 5
 440.599609375 10.140625 l 5
 662.404296875 10.140625 l 5
 686.546875 10.140625 l 5
 669.475585938 27.2119140625 l 5
 447.670898438 249.016601562 l 5
 430.599609375 266.087890625 l 5
 430.599609375 241.9453125 l 5
738.544921875 -46 m 5
 375 -46 l 5
 375 317.544921875 l 5
 375 321.6875 l 5
 372.071289062 324.616210938 l 5
 115.005859375 581.681640625 l 5
 372.071289062 838.747070312 l 5
 375 841.67578125 l 5
 375 845.818359375 l 5
 375 1203 l 5
 732.181640625 1203 l 5
 736.32421875 1203 l 5
 739.252929688 1205.92871094 l 5
 991.818359375 1458.49414062 l 5
 1244.38378906 1205.92871094 l 5
 1247.3125 1203 l 5
 1251.45507812 1203 l 5
 1615 1203 l 5
 1615 839.455078125 l 5
 1615 835.3125 l 5
 1617.92871094 832.383789062 l 5
 1874.99414062 575.318359375 l 5
 1617.92871094 318.252929688 l 5
 1615 315.32421875 l 5
 1615 311.181640625 l 5
 1615 -46 l 5
 1257.81835938 -46 l 5
 1253.67578125 -46 l 5
 1250.74707031 -48.9287109375 l 5
 998.181640625 -301.494140625 l 5
 745.616210938 -48.9287109375 l 5
 742.6875 -46 l 5
 738.544921875 -46 l 5
1333.95898438 10.140625 m 5
 1549.40039062 10.140625 l 5
 1559.40039062 10.140625 l 5
 1559.40039062 20.140625 l 5
 1559.40039062 235.58203125 l 5
 1559.40039062 259.724609375 l 5
 1542.32910156 242.653320312 l 5
 1326.88769531 27.2119140625 l 5
 1309.81640625 10.140625 l 5
 1333.95898438 10.140625 l 5
1559.40039062 915.0546875 m 5
 1559.40039062 1136.859375 l 5
 1559.40039062 1146.859375 l 5
 1549.40039062 1146.859375 l 5
 1327.59570312 1146.859375 l 5
 1303.453125 1146.859375 l 5
 1320.52441406 1129.78808594 l 5
 1542.32910156 907.983398438 l 5
 1559.40039062 890.912109375 l 5
 1559.40039062 915.0546875 l 5
447.670898438 914.346679688 m 5
 663.112304688 1129.78808594 l 5
 680.18359375 1146.859375 l 5
 656.041015625 1146.859375 l 5
 440.599609375 1146.859375 l 5
 430.599609375 1146.859375 l 5
 430.599609375 1136.859375 l 5
 430.599609375 921.41796875 l 5
 430.599609375 897.275390625 l 5
 447.670898438 914.346679688 l 5
430.599609375 813.739257812 m 5
 430.599609375 348.860351562 l 5
 430.599609375 344.717773438 l 5
 433.528320312 341.7890625 l 5
 762.248046875 13.0693359375 l 5
 765.176757812 10.140625 l 5
 769.319335938 10.140625 l 5
 1226.28027344 10.140625 l 5
 1230.42285156 10.140625 l 5
 1233.3515625 13.0693359375 l 5
 1556.47167969 336.189453125 l 5
 1559.40039062 339.118164062 l 5
 1559.40039062 343.260742188 l 5
 1559.40039062 808.139648438 l 5
 1559.40039062 812.282226562 l 5
 1556.47167969 815.2109375 l 5
 1227.75195312 1143.93066406 l 5
 1224.82324219 1146.859375 l 5
 1220.68066406 1146.859375 l 5
 763.719726562 1146.859375 l 5
 759.577148438 1146.859375 l 5
 756.6484375 1143.93066406 l 5
 433.528320312 820.810546875 l 5
 430.599609375 817.881835938 l 5
 430.599609375 813.739257812 l 5
839.860351562 1203 m 5
 1144.54003906 1203 l 5
 1168.68261719 1203 l 5
 1151.61132812 1220.07128906 l 5
 999.271484375 1372.41113281 l 5
 992.200195312 1379.48242188 l 5
 985.12890625 1372.41113281 l 5
 832.7890625 1220.07128906 l 5
 815.717773438 1203 l 5
 839.860351562 1203 l 5
357.928710938 745.2109375 m 5
 201.088867188 588.37109375 l 5
 194.017578125 581.299804688 l 5
 201.088867188 574.228515625 l 5
 357.928710938 417.388671875 l 5
 375 400.317382812 l 5
 375 424.459960938 l 5
 375 738.139648438 l 5
 375 762.282226562 l 5
 357.928710938 745.2109375 l 5
1615 732.540039062 m 5
 1615 418.860351562 l 5
 1615 394.717773438 l 5
 1632.07128906 411.7890625 l 5
 1788.91113281 568.62890625 l 5
 1795.98242188 575.700195312 l 5
 1788.91113281 582.771484375 l 5
 1632.07128906 739.611328125 l 5
 1615 756.682617188 l 5
 1615 732.540039062 l 5
1150.13964844 -46 m 5
 845.459960938 -46 l 5
 821.317382812 -46 l 5
 838.388671875 -63.0712890625 l 5
 990.728515625 -215.411132812 l 5
 997.799804688 -222.482421875 l 5
 1004.87109375 -215.411132812 l 5
 1157.2109375 -63.0712890625 l 5
 1174.28222656 -46 l 5
 1150.13964844 -46 l 5
891 575 m 4
 891 517.383789062 937.62890625 472 995 472 c 4
 1052.47265625 472 1098 517.52734375 1098 575 c 4
 1098 632.37109375 1052.61621094 679 995 679 c 4
 937.485351562 679 891 632.514648438 891 575 c 4
832 575 m 4
 832 664.456054688 905.543945312 738 995 738 c 4
 1084.45605469 738 1158 664.456054688 1158 575 c 4
 1158 485.543945312 1084.45605469 412 995 412 c 4
 905.543945312 412 832 485.543945312 832 575 c 4
EndSplineSet
EndChar

StartChar: uni06DD
Encoding: 1757 1757 420
Width: 2440
VWidth: 0
Flags: HW
LayerCount: 2
Fore
SplineSet
294 1362 m 0
 294 1460.46422325 374.535828888 1541 473 1541 c 0
 508.370623509 1541 541.375360472 1530.63511917 569.218974107 1512.76572395 c 2
 574.926516435 1509.10275366 l 1
 580.441004266 1513.05038773 l 2
 760.673854966 1642.07294861 981.440253476 1718 1220 1718 c 0
 1457.73913253 1718 1677.80687599 1642.59446262 1857.69694834 1514.38014232 c 2
 1863.12918108 1510.50838875 l 1
 1868.79040764 1514.03686464 l 2
 1896.20782576 1531.1253344 1928.47611017 1541 1963 1541 c 0
 2061.46422325 1541 2142 1460.46417111 2142 1362 c 0
 2142 1327.56093113 2132.17428092 1295.36689269 2115.16284367 1267.99427168 c 2
 2111.64150895 1262.3281919 l 1
 2115.52074699 1256.90087485 l 2
 2244.25775003 1076.78907802 2320 856.269439734 2320 618 c 0
 2320 379.932813098 2244.38644993 159.587372574 2115.84978197 -20.4402253676 c 2
 2111.98952105 -25.8468810025 l 1
 2115.47727586 -31.5010039156 l 2
 2132.2952386 -58.7651993129 2142 -90.773608345 2142 -125 c 0
 2142 -223.464223254 2061.46417111 -304 1963 -304 c 0
 1928.77353089 -304 1896.76524521 -294.295266905 1869.50100391 -277.477275856 c 2
 1863.846881 -273.989521054 l 1
 1858.44022536 -277.849781969 l 2
 1678.41262767 -406.386449759 1458.06718646 -482 1220 -482 c 0
 981.117047324 -482 760.076815849 -405.866871802 579.709337468 -276.525829988 c 2
 574.220371308 -272.589706869 l 1
 568.519285859 -276.21178354 l 2
 540.823658287 -293.807676009 508.075647891 -304 473 -304 c 0
 374.535776746 -304 294 -223.464171112 294 -125 c 0
 294 -89.5849794202 304.390742559 -56.5414199182 322.301805257 -28.675551789 c 2
 325.953628173 -22.9940789728 l 1
 322.047191687 -17.4845691984 l 2
 194.789205872 161.995916195 120 381.234388999 120 618 c 0
 120 854.973667213 194.920781842 1074.38823978 322.382064465 1253.95687778 c 2
 326.307439805 1259.48698299 l 1
 322.621884379 1265.17972543 l 2
 304.51460644 1293.14839163 294 1326.37465279 294 1362 c 0
1839.59960938 -125 m 0
 1839.59960938 -192.936085053 1895.06383063 -248.400390625 1963 -248.400390625 c 0
 2030.93608505 -248.400390625 2086.40039062 -192.936169371 2086.40039062 -125 c 0
 2086.40039062 -57.0639149475 2030.93616937 -1.599609375 1963 -1.599609375 c 0
 1895.06391495 -1.599609375 1839.59960938 -57.0638306287 1839.59960938 -125 c 0
349.599609375 -125 m 0
 349.599609375 -192.936085053 405.063830629 -248.400390625 473 -248.400390625 c 0
 540.936085053 -248.400390625 596.400390625 -192.936169371 596.400390625 -125 c 0
 596.400390625 -57.0639149473 540.936169371 -1.599609375 473 -1.599609375 c 0
 405.063914947 -1.599609375 349.599609375 -57.0638306285 349.599609375 -125 c 0
1839.59960938 1362 m 0
 1839.59960938 1294.06391495 1895.06383063 1238.59960938 1963 1238.59960938 c 0
 2030.93608505 1238.59960938 2086.40039062 1294.06383063 2086.40039062 1362 c 0
 2086.40039062 1429.93608505 2030.93616937 1485.40039062 1963 1485.40039062 c 0
 1895.06391495 1485.40039062 1839.59960938 1429.93616937 1839.59960938 1362 c 0
349.599609375 1362 m 0
 349.599609375 1294.06391495 405.063830629 1238.59960938 473 1238.59960938 c 0
 540.936085053 1238.59960938 596.400390625 1294.06383063 596.400390625 1362 c 0
 596.400390625 1429.93608505 540.936169371 1485.40039062 473 1485.40039062 c 0
 405.063914947 1485.40039062 349.599609375 1429.93616937 349.599609375 1362 c 0
1774.12890625 1365 m 1
 661.87109375 1365 l 1
 652.232513292 1365 l 1
 651.877865268 1355.36794632 l 2
 648.364682141 1259.95174165 569.243379138 1183 473 1183 c 0
 448.316912968 1183 424.799964981 1188.04765646 403.373609524 1197.16539224 c 2
 395.893673835 1200.34839167 l 1
 391.250120259 1193.67618563 l 2
 277.628079523 1030.41551584 211 831.946862207 211 618 c 0
 211 404.392452275 277.416973941 206.215776955 390.70860517 43.1020636291 c 2
 395.365212222 36.3976278335 l 1
 402.866298679 39.6174338126 l 2
 424.428158599 48.8727604765 448.122397137 54 473 54 c 0
 567.964805819 54 646.264187878 -20.9259176158 651.698432791 -114.579276568 c 2
 652.245071149 -124 l 1
 661.681640625 -124 l 1
 1774.31835938 -124 l 1
 1783.75492886 -124 l 1
 1784.30156721 -114.579276568 l 2
 1789.73581369 -20.9258906139 1868.03523581 54 1963 54 c 0
 1988.99833359 54 2013.70323558 48.4010561964 2036.03354046 38.3422936616 c 2
 2043.59955893 34.9341546518 l 1
 2048.34451514 41.7419030008 l 2
 2162.21307562 205.112958515 2229 403.798645935 2229 618 c 0
 2229 832.537724321 2162.00293178 1031.51046974 2047.80797603 1195.02739674 c 2
 2043.07618296 1201.80289971 l 1
 2035.53063546 1198.43214026 l 2
 2013.33320235 1188.51606626 1988.8018361 1183 1963 1183 c 0
 1866.7566272 1183 1787.63531798 1259.95173846 1784.12213473 1355.36794632 c 2
 1783.76748671 1365 l 1
 1774.12890625 1365 l 1
1783.20325535 1455.29235229 m 2
 1622.35293354 1563.70454009 1428.52766271 1627 1220 1627 c 0
 1011.47234507 1627 817.647061684 1563.70453687 656.796744645 1455.29235229 c 2
 629.656523494 1437 l 1
 662.385742188 1437 l 1
 1777.61425781 1437 l 1
 1810.3434765 1437 l 1
 1783.20325535 1455.29235229 l 2
649.375704134 -214.242416654 m 2
 811.671234401 -325.736326265 1008.25476467 -391 1220 -391 c 0
 1431.74523599 -391 1628.32876525 -325.736326504 1790.62429586 -214.242416654 c 2
 1817.17877489 -196 l 1
 1784.96191406 -196 l 1
 655.038085938 -196 l 1
 622.821225108 -196 l 1
 649.375704134 -214.242416654 l 2
EndSplineSet
EndChar

StartChar: uniFD3E
Encoding: 64830 64830 421
Width: 1273
Flags: HW
LayerCount: 2
Fore
SplineSet
597 603 m 0
 597 560.160479473 633.672368424 525 677 525 c 0
 721.61557646 525 757 560.729891157 757 607 c 0
 757 650.292565289 717.965125755 684 676 684 c 0
 628.891729159 684 597 644.841821692 597 603 c 0
620.265174223 199.70824685 m 0
 658.651162673 25.9611412368 745.031811785 -114.429075604 877.745788335 -220.802873602 c 2
 916.034582269 -251.492364923 l 1
 892.808929233 -208.266843994 l 2
 821.305603943 -75.1912108159 774.710864003 63.5967326572 751.861042511 205.663014111 c 0
 749.398472592 219.617576987 752.80645988 228.664324256 763.071067812 238.928932188 c 2
 798.071067812 273.928932188 l 2
 805.514817836 281.372682212 814.968879481 286 826 286 c 2
 987 286 l 1
 997 286 l 1
 997 296 l 1
 997 916 l 1
 997 926 l 1
 987 926 l 1
 826 926 l 2
 814.968879481 926 805.514817836 930.627317788 798.071067812 938.071067812 c 2
 759.917421524 976.2247141 l 2
 750.34499734 984.999436268 747.316044935 995.756171001 749.855211552 1009.29839296 c 0
 776.741622062 1179.57899286 828.3176329 1333.20373666 903.788534317 1472.22908137 c 2
 926.485798874 1514.03983187 l 1
 888.876022581 1484.90549812 l 2
 744.754774623 1373.26227787 652.527856155 1212.68786692 612.194193243 1003.96116135 c 0
 610.639657502 996.188482648 606.921003559 990.063139183 600.928932188 984.071067812 c 2
 554.928932188 938.071067812 l 2
 547.240610941 930.382746564 538.921230272 926 528 926 c 2
 366 926 l 1
 356 926 l 1
 356 916 l 1
 356 755 l 2
 356 743.538422468 352.268585066 735.410720689 344.928932188 728.071067812 c 2
 229.928932188 613.071067812 l 1
 222.857864376 606 l 1
 229.928932188 598.928932188 l 1
 344.928932188 483.928932188 l 2
 352.268585066 476.589279311 356 468.461577532 356 457 c 2
 356 296 l 1
 356 286 l 1
 366 286 l 1
 528 286 l 2
 538.921230272 286 547.240610941 281.617253436 554.928932188 273.928932188 c 2
 609.928932188 218.928932188 l 2
 615.238159508 213.619704869 618.583076289 206.436638588 620.265174223 199.70824685 c 0
823 599 m 0
 823 521.935288653 753.658733586 456 676 456 c 0
 592.866557505 456 529 524.071490502 529 609 c 0
 529 686.064711347 598.341266414 752 676 752 c 0
 759.133442495 752 823 683.928509498 823 599 c 0
1084.06995754 1580.37913394 m 1
 957.60650098 1463.66278422 873.089637279 1276.37464633 829.144511092 1020.69391216 c 2
 828.267362458 1015.59050192 l 1
 831.928932188 1011.92893219 l 1
 837.928932188 1005.92893219 l 1
 840.857864376 1003 l 1
 845 1003 l 1
 1036 1003 l 2
 1062.72054614 1003 1074 989.432529111 1074 965 c 2
 1074 247.156211872 l 2
 1073.14578143 219.821217548 1062.13542762 209 1036 209 c 2
 845 209 l 1
 840.857864376 209 l 1
 837.928932188 206.071067812 l 1
 834.928932188 203.071067812 l 1
 831.198117187 199.340252811 l 1
 832.171732565 194.154692645 l 2
 878.400044312 -52.0613155715 963.009596628 -222.532401855 1083.61982135 -322.700215609 c 0
 1088.82609989 -327.013989251 1092.11601095 -330.994838611 1093.97196388 -334.396802354 c 0
 1101.38258382 -347.980476763 1088.62971961 -366.026452987 1045.90888425 -389.243115681 c 1
 782.83178377 -310.09112945 618.691608086 -124.333606768 548.727711785 169.317676298 c 2
 548.091722142 171.987041279 l 1
 546.182402228 173.957952158 l 1
 515.182402228 205.957952158 l 1
 512.235418381 209 l 1
 508 209 l 1
 317 209 l 2
 299.88514497 209 279 224.40709257 279 247 c 2
 279 437 l 1
 279 441.120376004 l 1
 276.097305269 444.044732637 l 1
 142.071067812 579.071067812 l 2
 134.821960615 586.320175008 130 597.03232875 130 607 c 0
 130 616.045619664 133.473023588 624.330985682 142.097305269 632.955267363 c 2
 276.097305269 767.955267363 l 1
 279 770.879623996 l 1
 279 775 l 1
 279 965 l 2
 279 988.229682174 301.616354009 1003 317 1003 c 2
 508 1003 l 1
 512.279005751 1003 l 1
 515.233555441 1006.09524253 l 1
 536.233555441 1028.09524253 l 1
 538.241156832 1030.19844399 l 1
 538.808072665 1033.05020242 l 2
 604.276295069 1362.37519997 775.699277816 1566.55009864 1049.82913408 1647.40854545 c 2
 1050.18849719 1647.51454464 l 1
 1050.53892097 1647.64713743 l 2
 1056.31693671 1649.83341365 1060.96433079 1649.99277226 1064.87362951 1649.05138032 c 0
 1080.05277852 1645.39611384 1093.28116365 1617.65381618 1084.06995754 1580.37913394 c 1
EndSplineSet
EndChar

StartChar: uniFD3F
Encoding: 64831 64831 422
Width: 1273
Flags: HW
LayerCount: 2
Fore
SplineSet
676 603 m 0
 676 644.8419089 644.108518081 684 597 684 c 0
 555.034372026 684 516 650.292553451 516 607 c 0
 516 560.729824735 551.384514551 525 596 525 c 0
 639.327818841 525 676 560.160518291 676 603 c 0
652.734825777 199.70824685 m 0
 654.346738273 206.155896834 657.80297841 213.660842787 663.071067812 218.928932188 c 2
 718.071067812 273.928932188 l 2
 725.759389059 281.617253436 734.078769728 286 745 286 c 2
 907 286 l 1
 917 286 l 1
 917 296 l 1
 917 457 l 2
 917 468.461577532 920.731414934 476.589279311 928.071067812 483.928932188 c 2
 1043.07106781 598.928932188 l 1
 1050.14213562 606 l 1
 1043.07106781 613.071067812 l 1
 928.071067812 728.071067812 l 2
 920.731414934 735.410720689 917 743.538422468 917 755 c 2
 917 916 l 1
 917 926 l 1
 907 926 l 1
 745 926 l 2
 734.078769728 926 725.759389059 930.382746564 718.071067812 938.071067812 c 2
 672.071067812 984.071067812 l 2
 666.09728211 990.044853514 662.346372209 996.2572531 660.818368956 1003.89726936 c 0
 620.459958442 1212.75204377 528.261334501 1373.24979897 384.123977419 1484.90549812 c 2
 346.514201126 1514.03983187 l 1
 369.211465683 1472.22908137 l 2
 444.681964267 1333.20447872 496.258563662 1179.5778166 523.144788448 1009.29839296 c 0
 525.684065677 995.755581067 522.653893994 984.998419991 513.082578476 976.2247141 c 2
 474.928932188 938.071067812 l 2
 467.485182164 930.627317788 458.031120519 926 447 926 c 2
 286 926 l 1
 276 926 l 1
 276 916 l 1
 276 296 l 1
 276 286 l 1
 286 286 l 1
 447 286 l 2
 458.031120519 286 467.485182164 281.372682212 474.928932188 273.928932188 c 2
 509.928932188 238.928932188 l 2
 520.193258569 228.664605807 523.601421792 219.616978493 521.138957489 205.663014111 c 0
 498.289071035 63.5963287635 451.694533755 -75.1909545459 380.191070767 -208.266843994 c 2
 356.965417731 -251.492364923 l 1
 395.254211665 -220.802873602 l 2
 528.005177248 -114.399427905 614.288411622 25.6876354149 652.734825777 199.70824685 c 0
450 599 m 0
 450 683.928506881 513.866517066 752 597 752 c 0
 674.656023552 752 744 686.065290823 744 609 c 0
 744 524.071493119 680.133482934 456 597 456 c 0
 519.343976448 456 450 521.934709177 450 599 c 0
188.930042458 1580.37913394 m 1
 184.17008242 1599.64110633 185.295046611 1617.27465778 190.009936647 1629.76691579 c 0
 196.473723952 1646.89293529 207.438521835 1653.33134825 222.461079026 1647.64713743 c 2
 222.811502811 1647.51454464 l 1
 223.170865924 1647.40854545 l 2
 497.300758472 1566.55008794 668.723700629 1362.37522161 734.191927335 1033.05020242 c 2
 734.758843168 1030.19844399 l 1
 736.766444559 1028.09524253 l 1
 757.766444559 1006.09524253 l 1
 760.720994249 1003 l 1
 765 1003 l 1
 956 1003 l 2
 971.3819446 1003 994 988.228560659 994 965 c 2
 994 775 l 1
 994 770.879623996 l 1
 996.902694731 767.955267363 l 1
 1130.92893219 632.928932188 l 2
 1139.50112354 624.356740837 1143 616.035081635 1143 607 c 0
 1143 597.021785351 1138.20389943 586.345937338 1130.90269473 579.044732637 c 2
 996.902694731 444.044732637 l 1
 994 441.120376004 l 1
 994 437 l 1
 994 247 l 2
 994 224.406242589 973.115878641 209 956 209 c 2
 765 209 l 1
 760.764581619 209 l 1
 757.817597772 205.957952158 l 1
 726.817597772 173.957952158 l 1
 724.908277858 171.987041279 l 1
 724.272288215 169.317676298 l 2
 654.211164113 -124.741689651 488.958469792 -310.455105764 227.091115751 -389.243115681 c 1
 206.342683945 -377.967368412 192.016404368 -367.682761704 183.918329013 -358.039424512 c 0
 173.403343316 -345.517985998 172.584749748 -336.616419577 189.38901003 -322.692889628 c 0
 309.981350958 -222.539928519 394.60070021 -52.0573501802 440.828267435 194.154692645 c 2
 441.801882813 199.340252811 l 1
 438.071067812 203.071067812 l 1
 435.071067812 206.071067812 l 1
 432.142135624 209 l 1
 428 209 l 1
 237 209 l 2
 210.864965372 209 199.854253413 219.820102665 199 247.156211872 c 2
 199 965 l 2
 199 989.432264778 210.279070328 1003 237 1003 c 2
 428 1003 l 1
 432.142135624 1003 l 1
 435.071067812 1005.92893219 l 1
 441.071067812 1011.92893219 l 1
 444.732637542 1015.59050192 l 1
 443.855488908 1020.69391216 l 2
 399.858520303 1276.67627494 314.419292806 1464.56190399 188.930042458 1580.37913394 c 1
EndSplineSet
EndChar

StartChar: uni0610
Encoding: 1552 1552 423
Width: 0
VWidth: 2712
Flags: HW
AnchorPoint: "Anchor-10" 493.924 1223.86 mark 0
AnchorPoint: "Anchor-9" 493.924 1223.86 mark 0
AnchorPoint: "Anchor-1" 534.091 1760.26 basemark 0
AnchorPoint: "Anchor-1" 493.924 1223.86 mark 0
LayerCount: 2
Fore
SplineSet
458.013267641 1357.40527344 m 2
 639.18499859 1357.40527344 743.709960938 1394.83436978 743.709960938 1484.56542969 c 0
 743.709960938 1544.90604563 699.148123192 1591.52539062 635.234375 1591.52539062 c 0
 551.008138871 1591.52539062 464.860464044 1512.41427761 374.826507629 1372.30646446 c 2
 364.846502493 1356.77591631 l 1
 383.306807948 1356.90061877 l 1
 458.013267641 1357.40527344 l 2
150.047342478 1195.99691771 m 1
 168.233248822 1231.73225464 176.926061217 1274.88050049 177.099609375 1326.5 c 0
 177.099609375 1386.88375261 162.277832434 1447.83107992 135.420613885 1506.99940443 c 1
 200.6031395 1529.36984018 l 1
 227.281288155 1446.62495504 l 2
 241.469424277 1403.04535854 259.464444238 1374.94844835 288.154377232 1371.61186953 c 2
 294.626522789 1370.85917263 l 1
 297.929498555 1376.4757171 l 2
 412.247329124 1570.86744901 522.650004234 1663.43554688 632.205078125 1663.43554688 c 0
 737.656920664 1663.43554688 813.599672667 1587.47965987 813.599672667 1489.1459302 c 0
 813.125692914 1355.92644895 701.727923319 1286 460 1286 c 2
 434.244140625 1286 l 2
 349.624335769 1286 291.37163922 1296.2042918 254.755860769 1313.79858807 c 2
 240.62869931 1320.58684916 l 1
 240.425643931 1304.91470993 l 2
 239.682468535 1247.5552431 228.243162109 1199.47670197 208.458482974 1160.42908021 c 1
 150.047342478 1195.99691771 l 1
EndSplineSet
EndChar

StartChar: uni0611
Encoding: 1553 1553 424
Width: 0
VWidth: 2712
Flags: HW
AnchorPoint: "Anchor-10" 496.924 1247.86 mark 0
AnchorPoint: "Anchor-9" 496.924 1247.86 mark 0
AnchorPoint: "Anchor-1" 534.091 1790.26 basemark 0
AnchorPoint: "Anchor-1" 496.924 1247.86 mark 0
LayerCount: 2
Fore
SplineSet
243.958384385 1275.47818679 m 2
 242.710916367 1232.86835493 228.699201797 1188.82756228 208.645839234 1150.79090608 c 1
 150.171365915 1186.39730834 l 1
 168.35727226 1222.13264526 177.050084654 1265.28089112 177.223632812 1316.90039062 c 0
 177.223632812 1377.28414322 162.401855863 1438.23147056 135.54463733 1497.39979506 c 1
 200.727162937 1519.7702308 l 1
 227.396516969 1437.05249031 l 2
 241.474938089 1393.38701945 259.608360989 1365.34652542 288.27840067 1362.01226015 c 2
 288.867792712 1361.9437151 l 1
 289.461154936 1361.94535048 l 1
 384.065647124 1362.20609267 l 1
 404.617343433 1362.2627358 l 1
 391.889630976 1378.399054 l 2
 361.980139031 1416.31860012 336.903320312 1453.44308228 336.903320312 1515.58007812 c 0
 336.903320312 1634.8058298 418.495197719 1733.57714844 550.048828125 1733.57714844 c 0
 621.436695867 1733.57714844 677.358864238 1711.07971748 722.958351655 1667.49211203 c 1
 695.450592937 1606.22489989 l 1
 651.526556194 1639.04702009 611.115302928 1654.94580596 567.358833809 1655.47949219 c 0
 476.430451345 1655.47949219 408.533203125 1592.94988106 408.533203125 1512.34570312 c 0
 408.533203125 1489.43473554 420.151580855 1422.24516571 496.71860914 1387.96035554 c 0
 501.491214097 1385.57405306 511.901635378 1380.87840267 523.290758943 1383.50544094 c 2
 741.635742188 1438.6025901 l 1
 741.635742188 1361.79024858 l 1
 572.911811764 1309.84424641 430.548685242 1285.18554688 290.548828125 1285.18554688 c 2
 253.954101562 1285.18554688 l 1
 244.242582203 1285.18554688 l 1
 243.958384385 1275.47818679 l 2
EndSplineSet
EndChar

StartChar: uni0612
Encoding: 1554 1554 425
Width: 0
VWidth: 2712
Flags: HW
AnchorPoint: "Anchor-10" 517.924 962.86 mark 0
AnchorPoint: "Anchor-9" 517.924 962.86 mark 0
AnchorPoint: "Anchor-1" 522.091 1913.26 basemark 0
AnchorPoint: "Anchor-1" 517.924 962.86 mark 0
LayerCount: 2
Fore
SplineSet
452.045368252 1007.91157834 m 1
 237.829964899 1010.43487615 96.7412109375 1098.2368351 96.7412109375 1285.44238281 c 0
 96.7412109375 1455.22017135 230.786535604 1600.44632576 491.872973724 1658.94703348 c 2
 523.365399581 1666.00342911 l 1
 493.400544571 1677.98979928 l 2
 479.683308366 1683.47688977 474.459083789 1685.56389445 443.647415793 1698.21937111 c 0
 369.893600511 1727.72011657 323.134230653 1747.59375 293.407226562 1747.59375 c 0
 247.520506992 1747.59375 203.644373572 1718.00855315 175.594844839 1681.37362335 c 2
 165.847253604 1668.73773752 l 1
 100.173924135 1701.3572753 l 1
 102.989522069 1706.23746624 l 2
 147.442525515 1778.73873819 215.625327738 1824.91308594 293.954101562 1824.91308594 c 0
 336.864559166 1824.91308594 391.091569738 1804.42188242 455.230195932 1773.43848812 c 0
 562.924981228 1720.89254724 631.79141636 1696.43464939 693.268696543 1691.1321158 c 1
 687.578582472 1616.72046604 l 1
 398.613937935 1591.08541494 167.499023438 1466.85189372 167.499023438 1294.18945312 c 0
 167.499023438 1153.3707698 270.26847803 1083.92920054 458.062891361 1081.42103251 c 1
 452.045368252 1007.91157834 l 1
871.888221514 1593.69587335 m 1
 899.130781285 1522.58995483 912.47265625 1450.54157763 912.47265625 1392.05566406 c 0
 912.47265625 1201.31404849 804.055409596 1085.39296367 583.219242224 1040.98469861 c 1
 557.782967186 1106.27197083 l 1
 743.938321594 1144.84757561 840.055064487 1239.11794935 841.16796875 1389.32226562 c 0
 841.16796875 1438.32321315 827.706699184 1505.4678974 802.320965114 1568.78917254 c 1
 871.888221514 1593.69587335 l 1
EndSplineSet
EndChar

StartChar: uni06DC
Encoding: 1756 1756 426
Width: 0
VWidth: 2712
Flags: HW
AnchorPoint: "Anchor-10" 556.924 1187.86 mark 0
AnchorPoint: "Anchor-9" 556.924 1187.86 mark 0
AnchorPoint: "Anchor-1" 558.091 1694.26 basemark 0
AnchorPoint: "Anchor-1" 556.924 1187.86 mark 0
LayerCount: 2
Fore
SplineSet
498.709960938 1285.60546875 m 0
 460.682813423 1285.60546875 433.407858835 1294.62852176 410.803535095 1312.3452055 c 2
 394.919930685 1324.79436342 l 1
 394.635757087 1304.61542223 l 2
 392.060604923 1121.75591501 281.950608443 1026.77539062 95.5322265625 1026.77539062 c 0
 -107.10465087 1026.77539062 -204.566406249 1117.65763147 -204.56640625 1303.47851562 c 0
 -204.56640625 1368.72620158 -190.799170344 1436.40474463 -164.238596235 1503.97166035 c 1
 -105.361120221 1480.04148358 l 1
 -127.840617687 1417.96260108 -138.953125 1360.5617468 -138.953125 1305.96777344 c 0
 -138.953125 1164.97870542 -56.7711660995 1092.88574219 99.0166015625 1092.88574219 c 0
 252.359549571 1092.88574219 332.1631761 1172.29217698 332.505859375 1325.37988281 c 0
 332.505859375 1383.83170005 318.428476251 1443.61361696 291.471340521 1503.2005159 c 1
 355.437910047 1525.15391326 l 1
 381.67777654 1443.76242157 l 2
 400.178781436 1386.38052796 437.816702804 1355.73299388 499.705078125 1355.20019531 c 0
 571.354831185 1355.20019531 601.7890625 1398.5194816 601.7890625 1469.22949219 c 0
 601.7890625 1484.07106132 600.228404304 1512.52958976 597.505781914 1549.05316469 c 1
 659.707759547 1556.59284317 l 1
 666.927764325 1454.60828029 l 2
 670.569361004 1401.54690985 696.632380693 1355.20019531 755.548828125 1355.20019531 c 0
 809.132857661 1355.20019531 834.736328125 1401.16536895 834.736328125 1475.70117188 c 0
 834.736328125 1510.14010457 827.889152627 1552.32476725 815.139609267 1600.04977115 c 1
 879.710473497 1617.34528251 l 1
 893.906191763 1569.09634619 900.348632813 1526.2772412 900.348632812 1483.16699219 c 0
 900.348632812 1370.65112324 861.296354551 1286.06669184 756.046875 1285.60546875 c 0
 702.089624766 1285.60546875 666.459291748 1307.09896584 644.547554809 1351.23032659 c 2
 637.171118137 1366.08684795 l 1
 627.476623635 1352.62784274 l 2
 594.970752105 1307.49947693 552.744596002 1285.60546875 498.709960938 1285.60546875 c 0
EndSplineSet
EndChar

StartChar: uni220E
Encoding: 8718 8718 429
Width: 970
Flags: HW
LayerCount: 2
Fore
SplineSet
230 0 m 1
 230 784 l 1
 740 784 l 1
 740 0 l 1
 230 0 l 1
EndSplineSet
EndChar
